<svg width="32" height="32" viewBox="0 0 32 32" fill="none" xmlns="http://www.w3.org/2000/svg">
<path d="M7.7706 23H10.2315V19.5149H11.4943L13.3537 23H16.0384L13.9254 19.1222C15.044 18.6151 15.6903 17.6158 15.6903 16.2088C15.6903 14.1158 14.2635 12.8182 11.9766 12.8182H7.7706V23ZM10.2315 17.576V14.8018H11.4446C12.5483 14.8018 13.1399 15.2642 13.1399 16.2088C13.1399 17.1534 12.5483 17.576 11.4446 17.576H10.2315ZM17.0202 23H24.5572V21.0163H20.4308V20.9517L21.6488 19.8281C23.8562 17.9041 24.4329 16.9247 24.4329 15.7564C24.4329 13.9219 22.9364 12.679 20.6246 12.679C18.3725 12.679 16.8661 13.9766 16.8711 16.0497H19.2028C19.2028 15.13 19.7695 14.598 20.6147 14.598C21.445 14.598 22.0465 15.1101 22.0465 15.9503C22.0465 16.7109 21.5692 17.228 20.734 17.9787L17.0202 21.2301V23Z" fill="black"/>
<path d="M3 12C3 5.92487 7.92487 1 14 1C22.2843 1 29 7.71573 29 16V31H3V12Z" stroke="black" stroke-width="2"/>
</svg>
