<svg width="32" height="32" viewBox="0 0 32 32" fill="none" xmlns="http://www.w3.org/2000/svg">
<path d="M8.66051 24H10.7699V21.0128H11.8523L13.446 24H15.7472L13.9361 20.6761C14.8949 20.2415 15.4489 19.3849 15.4489 18.179C15.4489 16.3849 14.2259 15.2727 12.2656 15.2727H8.66051V24ZM10.7699 19.3509V16.973H11.8097C12.7557 16.973 13.2628 17.3693 13.2628 18.179C13.2628 18.9886 12.7557 19.3509 11.8097 19.3509H10.7699ZM19.9084 24.1193C21.9538 24.1193 23.407 23.0369 23.4027 21.5199C23.407 20.446 22.7038 19.679 21.3572 19.5213V19.4531C22.3672 19.3082 23.0831 18.6307 23.0788 17.6506C23.0831 16.2273 21.7962 15.1534 19.9254 15.1534C18.0419 15.1534 16.6697 16.2443 16.6527 17.7955H18.6683C18.6854 17.1989 19.2223 16.7983 19.9254 16.7983C20.5945 16.7983 21.0504 17.2031 21.0462 17.7869C21.0504 18.392 20.5135 18.8097 19.7379 18.8097H18.8899V20.3097H19.7379C20.62 20.3097 21.1953 20.7443 21.1868 21.358C21.1953 21.9759 20.6669 22.4062 19.9169 22.4062C19.1712 22.4062 18.6214 22.0099 18.6001 21.4347H16.478C16.495 23.0114 17.9141 24.1193 19.9084 24.1193Z" fill="black"/>
<path d="M26 14H25V15V27H7V15V14H6H3C1.89543 14 1 13.1046 1 12C1 10.8954 1.89543 10 3 10H29C30.1046 10 31 10.8954 31 12C31 13.1046 30.1046 14 29 14H26Z" stroke="black" stroke-width="2"/>
<path d="M16.7071 7.29289C16.3166 7.68342 15.6834 7.68342 15.2929 7.29289L11.7071 3.70711C11.0771 3.07714 11.5233 2 12.4142 2L19.5858 2C20.4767 2 20.9229 3.07714 20.2929 3.70711L16.7071 7.29289Z" fill="black"/>
</svg>
