<svg width="32" height="32" viewBox="0 0 32 32" fill="none" xmlns="http://www.w3.org/2000/svg">
<path d="M8.7706 23H15.4673V21.0014H11.2315V12.8182H8.7706V23ZM16.7214 23H24.2583V21.0163H20.1319V20.9517L21.35 19.8281C23.5574 17.9041 24.1341 16.9247 24.1341 15.7564C24.1341 13.9219 22.6376 12.679 20.3258 12.679C18.0737 12.679 16.5673 13.9766 16.5723 16.0497H18.9039C18.9039 15.13 19.4707 14.598 20.3159 14.598C21.1461 14.598 21.7477 15.1101 21.7477 15.9503C21.7477 16.7109 21.2704 17.228 20.4352 17.9787L16.7214 21.2301V23Z" fill="black"/>
<path d="M3 16C3 7.71573 9.71573 1 18 1C24.0751 1 29 5.92487 29 12V31H3V16Z" stroke="black" stroke-width="2"/>
</svg>
