<svg width="32" height="32" viewBox="0 0 32 32" fill="none" xmlns="http://www.w3.org/2000/svg">
<path d="M8.7706 20H11.2315V16.5149H12.4943L14.3537 20H17.0384L14.9254 16.1222C16.044 15.6151 16.6903 14.6158 16.6903 13.2088C16.6903 11.1158 15.2635 9.81818 12.9766 9.81818H8.7706V20ZM11.2315 14.576V11.8018H12.4446C13.5483 11.8018 14.1399 12.2642 14.1399 13.2088C14.1399 14.1534 13.5483 14.576 12.4446 14.576H11.2315ZM22.7283 9.81818H20.4464L17.9357 11.3793V13.5071L20.2127 12.1151H20.2724V20H22.7283V9.81818Z" fill="black"/>
<path d="M1 6H31V15C31 21.0751 26.0751 26 20 26H8C4.13401 26 1 22.866 1 19V6Z" stroke="black" stroke-width="2"/>
</svg>
