<svg width="32" height="32" viewBox="0 0 32 32" fill="none" xmlns="http://www.w3.org/2000/svg">
<path d="M12.7706 21H19.4673V19.0014H15.2315V10.8182H12.7706V21Z" fill="black"/>
<circle cx="16" cy="16" r="9" stroke="black" stroke-width="2"/>
<path d="M4.74167 9.5C6.17254 7.02166 8.38121 5.08471 11.0251 3.98957C13.669 2.89442 16.6004 2.70229 19.3646 3.44296C22.1289 4.18364 24.5715 5.81572 26.3136 8.0861C28.0557 10.3565 29 13.1383 29 16C29 18.8617 28.0557 21.6435 26.3136 23.9139C24.5715 26.1843 22.1289 27.8164 19.3646 28.557C16.6004 29.2977 13.669 29.1056 11.0251 28.0104C8.38121 26.9153 6.17254 24.9783 4.74167 22.5" stroke="black" stroke-width="2" stroke-linecap="round"/>
<path d="M0.3698 16.5547C0.145868 16.2188 0.145868 15.7812 0.369801 15.4453L2.16795 12.7481C2.71678 11.9248 4 12.3134 4 13.3028L4 18.6972C4 19.6866 2.71677 20.0752 2.16795 19.2519L0.3698 16.5547Z" fill="black"/>
</svg>
