<svg width="256" height="160" viewBox="0 0 256 160" fill="none" xmlns="http://www.w3.org/2000/svg">
<path fill-rule="evenodd" clip-rule="evenodd" d="M90.2553 45.5H84V55L44.5 94.5V146.116C45.1664 145.771 45.7702 145.218 46.2977 144.562C47.1903 143.451 47.787 142.136 48.0207 141.358C48.9946 138.071 49.9319 134.781 50.8698 131.49C57.624 107.787 64.409 83.9759 85.1124 60.1837L87.2635 57.3708C89.851 53.9871 90.9282 49.6933 90.2553 45.5ZM45.4596 146.709C46.0823 146.293 46.6234 145.753 47.0773 145.188C48.0593 143.966 48.7124 142.532 48.9789 141.644L48.9794 141.642C49.9566 138.344 50.8961 135.048 51.835 131.754L51.835 131.754L51.8351 131.754C58.5932 108.046 65.3204 84.4467 85.8772 60.8283L85.8876 60.8163L85.8972 60.8037L88.0579 57.9782C89.9466 55.5084 91.0793 52.583 91.3739 49.5489C92.9116 54.5273 97.5326 58 102.838 58H153.162C158.467 58 163.088 54.5273 164.626 49.5489C164.921 52.583 166.053 55.5084 167.942 57.9782L170.103 60.8037L170.112 60.8163L170.123 60.8283C190.68 84.4467 197.407 108.046 204.165 131.754L204.166 131.758L204.166 131.759L204.166 131.759L204.166 131.759C205.105 135.051 206.044 138.345 207.021 141.642L207.021 141.644C207.288 142.532 207.941 143.966 208.923 145.188C209.377 145.753 209.918 146.293 210.54 146.709L200.701 148.848L200.677 148.823C200.654 148.801 200.613 148.746 200.555 148.644C200.499 148.545 200.434 148.415 200.36 148.253C200.213 147.931 200.036 147.495 199.832 146.957C199.425 145.882 198.912 144.415 198.307 142.661L198.124 142.131L197.88 141.422L197.868 141.388L197.868 141.388L197.867 141.385C196.723 138.064 195.301 133.936 193.672 129.6C191.826 124.69 189.714 119.509 187.435 114.928C185.158 110.351 182.706 106.353 180.177 103.823L180.104 103.75H180H179.746C177.496 101.091 174.161 99.5 170.584 99.5H85.4164C81.8392 99.5 78.5036 101.091 76.2541 103.75H76H75.8964L75.8232 103.823C73.2936 106.353 70.8416 110.351 68.5652 114.928C66.2864 119.509 64.1736 124.69 62.3285 129.6C60.6986 133.937 59.2761 138.067 58.132 141.388L58.1307 141.392C57.9801 141.829 57.8342 142.253 57.6934 142.661C57.0877 144.415 56.5752 145.882 56.1676 146.957C55.9637 147.495 55.7875 147.931 55.6401 148.253C55.5664 148.415 55.5014 148.545 55.4452 148.644C55.3866 148.746 55.3457 148.801 55.3232 148.823L55.2989 148.848L45.4596 146.709ZM211.5 82.5V146.116C210.834 145.771 210.23 145.218 209.702 144.562C208.81 143.451 208.213 142.136 207.979 141.358C207.005 138.071 206.068 134.781 205.13 131.49C198.376 107.787 191.591 83.9759 170.888 60.1837L168.736 57.3708C166.149 53.9871 165.072 49.6933 165.745 45.5H167V51.5L194 82.5H211.5ZM181.317 106.133L181.5 106.5C183.322 110.904 185.302 116.517 187.309 122.209L187.309 122.209L187.309 122.21L187.309 122.21L187.309 122.211C191.91 135.258 196.658 148.722 200 149L200.164 148.964C200.149 148.941 200.135 148.916 200.12 148.891C200.054 148.774 199.982 148.63 199.905 148.461C199.751 148.123 199.57 147.676 199.365 147.135C198.954 146.051 198.439 144.577 197.834 142.824C197.693 142.414 197.546 141.989 197.395 141.55C196.251 138.229 194.831 134.106 193.203 129.775C191.361 124.873 189.255 119.71 186.987 115.15C185.034 111.224 182.968 107.76 180.855 105.296C181.019 105.567 181.173 105.847 181.317 106.133ZM55.8363 148.964C55.8509 148.941 55.8654 148.916 55.8796 148.891C55.946 148.774 56.0179 148.63 56.095 148.461C56.2491 148.123 56.4299 147.676 56.6351 147.135C57.0459 146.051 57.5607 144.577 58.166 142.824C58.3074 142.414 58.4537 141.989 58.6049 141.55C59.7491 138.229 61.1692 134.106 62.7965 129.775C64.6389 124.873 66.7449 119.71 69.0129 115.15C70.9662 111.224 73.0325 107.76 75.1447 105.296C74.9807 105.567 74.8267 105.847 74.6833 106.133L74.5 106.5C72.6774 110.905 70.698 116.518 68.6906 122.21C64.0897 135.258 59.3419 148.722 56 149L55.8363 148.964ZM125 86.5C124.172 86.5 123.5 87.1716 123.5 88C123.5 88.8284 124.172 89.5 125 89.5H132C132.828 89.5 133.5 88.8284 133.5 88C133.5 87.1716 132.828 86.5 132 86.5H125ZM125 86C123.895 86 123 86.8954 123 88C123 89.1046 123.895 90 125 90H132C133.105 90 134 89.1046 134 88C134 86.8954 133.105 86 132 86H125ZM126.5 97C126.224 97 126 97.2239 126 97.5C126 97.7761 126.224 98 126.5 98H129.5C129.776 98 130 97.7761 130 97.5C130 97.2239 129.776 97 129.5 97H126.5ZM125.866 70C126.302 70.0778 126.725 70.1914 127.146 70.3042C127.275 70.3387 127.404 70.3732 127.532 70.4065C127.695 70.4573 127.852 70.503 128.01 70.5487L128.01 70.5488L128.01 70.5489C128.168 70.5946 128.325 70.6403 128.488 70.6911C128.975 70.8537 129.463 71.0163 129.91 71.2805C130.114 71.4024 130.297 71.5447 130.459 71.7073C130.642 71.8902 130.784 72.0935 130.886 72.3171C131.089 72.7236 131.15 73.1707 131.171 73.6179C131.171 73.9024 131.171 74.2073 131.13 74.4919C131.089 74.7358 131.008 74.9797 130.866 75.2033C130.744 75.3862 130.581 75.5691 130.378 75.6707C130.195 75.7724 129.971 75.813 129.748 75.813C129.423 75.813 129.097 75.7114 128.813 75.5691V72.622C128.813 72.439 128.813 72.2561 128.793 72.0935C128.772 71.9512 128.711 71.8293 128.61 71.7276C128.549 71.6667 128.447 71.626 128.366 71.6057C128.264 71.5854 128.183 71.626 128.122 71.7073C128.02 71.8293 128 71.9919 128 72.1341V80C127.644 79.8882 127.294 79.7765 126.943 79.6647C126.593 79.5529 126.242 79.4411 125.886 79.3293C125.866 76.2398 125.866 73.1301 125.866 70ZM124.077 76.1585C123.615 76.3211 123.152 76.4837 122.695 76.6463C122.621 76.6733 122.547 76.6981 122.472 76.7228L122.472 76.7229L122.472 76.7229L122.472 76.7229L122.472 76.7229L122.472 76.7229L122.472 76.723L122.472 76.723L122.472 76.723L122.472 76.723L122.471 76.7231C122.322 76.7728 122.173 76.8225 122.024 76.8902C121.78 76.9919 121.516 77.1138 121.293 77.2764C121.191 77.3374 121.11 77.439 121.049 77.5406C120.988 77.6423 120.988 77.7642 121.028 77.8862C121.089 78.0081 121.171 78.1301 121.293 78.2114C121.496 78.374 121.74 78.4756 121.984 78.5366C122.736 78.7805 123.528 78.9024 124.301 78.8821C124.687 78.8821 125.073 78.8415 125.48 78.7398V78.5569V77.6423C125.327 77.7033 125.17 77.7591 125.012 77.815C124.855 77.8709 124.697 77.9268 124.545 77.9878C124.423 78.0488 124.301 78.0894 124.179 78.1098C123.996 78.1504 123.793 78.1707 123.61 78.1707C123.427 78.1707 123.264 78.1504 123.102 78.0894C123.041 78.0691 122.98 78.0285 122.959 77.9675C122.939 77.9065 122.959 77.8659 123 77.8252C123.081 77.7439 123.183 77.7033 123.284 77.6626C123.996 77.4187 124.727 77.1546 125.459 76.8904L125.459 76.8902V76.748V75.6707C125.002 75.8333 124.54 75.9959 124.077 76.1585ZM130.114 76.2398C130.215 76.2297 130.322 76.2246 130.429 76.2195C130.535 76.2144 130.642 76.2093 130.744 76.1992C131.435 76.1992 132.126 76.2805 132.797 76.5041C132.858 76.5244 132.924 76.5447 132.99 76.565L132.99 76.5651C133.056 76.5854 133.122 76.6057 133.183 76.626C133.406 76.7073 133.65 76.8089 133.833 76.9715C133.935 77.0732 134.036 77.2154 134.036 77.3577C134.036 77.4797 133.996 77.6016 133.894 77.7032C133.732 77.8862 133.528 78.0081 133.325 78.1097C133.165 78.1969 132.995 78.2529 132.829 78.3075C132.763 78.3292 132.698 78.3508 132.634 78.374C131.933 78.6279 131.227 78.8819 130.521 79.1358C129.815 79.39 129.108 79.6442 128.406 79.8984V78.7195C128.406 78.6992 128.406 78.6789 128.427 78.6789C129.504 78.2927 130.581 77.9065 131.638 77.5406C131.686 77.5203 131.735 77.5023 131.785 77.4842C131.884 77.4481 131.984 77.4119 132.065 77.3577C132.106 77.3171 132.167 77.2561 132.146 77.1951C132.126 77.1341 132.065 77.0935 132.004 77.0732C131.841 77.0122 131.658 76.9919 131.496 76.9919C131.232 76.9919 130.967 77.0325 130.703 77.1138C130.317 77.2459 129.936 77.3831 129.555 77.5203C129.174 77.6575 128.793 77.7947 128.406 77.9268V76.6463C128.955 76.4228 129.524 76.3008 130.114 76.2398ZM136.5 63C137.328 63 138 62.3284 138 61.5C138 60.6716 137.328 60 136.5 60C135.672 60 135 60.6716 135 61.5C135 62.3284 135.672 63 136.5 63ZM130 61.5C130 62.3284 129.328 63 128.5 63C127.672 63 127 62.3284 127 61.5C127 60.6716 127.672 60 128.5 60C129.328 60 130 60.6716 130 61.5ZM124.5 63C125.328 63 126 62.3284 126 61.5C126 60.6716 125.328 60 124.5 60C123.672 60 123 60.6716 123 61.5C123 62.3284 123.672 63 124.5 63ZM122 61.5C122 62.3284 121.328 63 120.5 63C119.672 63 119 62.3284 119 61.5C119 60.6716 119.672 60 120.5 60C121.328 60 122 60.6716 122 61.5ZM126.5 66C127.328 66 128 65.3284 128 64.5C128 63.6716 127.328 63 126.5 63C125.672 63 125 63.6716 125 64.5C125 65.3284 125.672 66 126.5 66ZM124 64.5C124 65.3284 123.328 66 122.5 66C121.672 66 121 65.3284 121 64.5C121 63.6716 121.672 63 122.5 63C123.328 63 124 63.6716 124 64.5ZM130.5 66C131.328 66 132 65.3284 132 64.5C132 63.6716 131.328 63 130.5 63C129.672 63 129 63.6716 129 64.5C129 65.3284 129.672 66 130.5 66ZM136 64.5C136 65.3284 135.328 66 134.5 66C133.672 66 133 65.3284 133 64.5C133 63.6716 133.672 63 134.5 63C135.328 63 136 63.6716 136 64.5ZM132.5 63C133.328 63 134 62.3284 134 61.5C134 60.6716 133.328 60 132.5 60C131.672 60 131 60.6716 131 61.5C131 62.3284 131.672 63 132.5 63ZM161 91.5C169.56 91.5 176.5 84.5604 176.5 76C176.5 67.4396 169.56 60.5 161 60.5C152.44 60.5 145.5 67.4396 145.5 76C145.5 84.5604 152.44 91.5 161 91.5ZM161 92C169.837 92 177 84.8366 177 76C177 67.1634 169.837 60 161 60C152.163 60 145 67.1634 145 76C145 84.8366 152.163 92 161 92ZM173 76C173 82.6274 167.627 88 161 88C154.373 88 149 82.6274 149 76C149 69.3726 154.373 64 161 64C167.627 64 173 69.3726 173 76ZM174 76C174 83.1797 168.18 89 161 89C153.82 89 148 83.1797 148 76C148 68.8203 153.82 63 161 63C168.18 63 174 68.8203 174 76ZM161 83.5C165.142 83.5 168.5 80.1421 168.5 76C168.5 71.8579 165.142 68.5 161 68.5C156.858 68.5 153.5 71.8579 153.5 76C153.5 80.1421 156.858 83.5 161 83.5ZM161 84C165.418 84 169 80.4183 169 76C169 71.5817 165.418 68 161 68C156.582 68 153 71.5817 153 76C153 80.4183 156.582 84 161 84ZM79.5 76C79.5 84.5604 86.4396 91.5 95 91.5C103.56 91.5 110.5 84.5604 110.5 76C110.5 67.4396 103.56 60.5 95 60.5C86.4396 60.5 79.5 67.4396 79.5 76ZM79 76C79 84.8366 86.1634 92 95 92C103.837 92 111 84.8366 111 76C111 67.1634 103.837 60 95 60C86.1634 60 79 67.1634 79 76ZM95 88C88.3726 88 83 82.6274 83 76C83 69.3726 88.3726 64 95 64C101.627 64 107 69.3726 107 76C107 82.6274 101.627 88 95 88ZM95 89C87.8203 89 82 83.1797 82 76C82 68.8203 87.8203 63 95 63C102.18 63 108 68.8203 108 76C108 83.1797 102.18 89 95 89ZM87.5 76C87.5 80.1421 90.8579 83.5 95 83.5C99.1421 83.5 102.5 80.1421 102.5 76C102.5 71.8579 99.1421 68.5 95 68.5C90.8579 68.5 87.5 71.8579 87.5 76ZM87 76C87 80.4183 90.5817 84 95 84C99.4183 84 103 80.4183 103 76C103 71.5817 99.4183 68 95 68C90.5817 68 87 71.5817 87 76ZM128 91C127.586 91 127.25 91.3358 127.25 91.75V91.8964L128.738 93.3844C128.746 93.3408 128.75 93.2959 128.75 93.25V91.75C128.75 91.3358 128.414 91 128 91ZM128.476 93.8296L127.25 92.6036V93.25C127.25 93.6642 127.586 94 128 94C128.181 94 128.347 93.9361 128.476 93.8296ZM128.688 94.0412L128.823 94.1768C128.838 94.1911 128.853 94.2034 128.87 94.2135C128.714 94.4031 128.498 94.541 128.25 94.5971V94.875H128.5C128.569 94.875 128.625 94.931 128.625 95C128.625 95.069 128.569 95.125 128.5 95.125H127.5C127.431 95.125 127.375 95.069 127.375 95C127.375 94.931 127.431 94.875 127.5 94.875H127.75V94.5971C127.249 94.4834 126.875 94.0354 126.875 93.5V93C126.875 92.931 126.931 92.875 127 92.875C127.069 92.875 127.125 92.931 127.125 93V93.5C127.125 93.9832 127.517 94.375 128 94.375C128.279 94.375 128.527 94.2445 128.688 94.0412ZM129.098 93.7447L128.875 93.5212L128.875 93.5V93C128.875 92.931 128.931 92.875 129 92.875C129.069 92.875 129.125 92.931 129.125 93V93.5C129.125 93.5841 129.116 93.666 129.098 93.7447ZM126.588 91.4116C126.54 91.3628 126.46 91.3628 126.412 91.4116C126.363 91.4604 126.363 91.5396 126.412 91.5884L129.412 94.5884C129.46 94.6372 129.54 94.6372 129.588 94.5884C129.637 94.5396 129.637 94.4604 129.588 94.4116L126.588 91.4116Z" fill="black"/>
<path fill-rule="evenodd" clip-rule="evenodd" d="M170.5 60.5L168.339 57.6745C165.578 54.0633 164.483 49.4478 165.328 44.981L169.885 20.8954C170.532 17.4758 173.52 15 177 15C182.317 15.3127 194.91 16.8872 205.035 20.7143C206.316 21.1987 207.359 22.1612 207.991 23.3767C225.59 57.2481 227.991 90.9533 227.5 115.5C227 140.5 216.041 147 213 147C210 147 208 143.167 207.5 141.5C206.524 138.207 205.586 134.915 204.648 131.622C197.891 107.915 191.134 84.2073 170.5 60.5ZM197.5 63C197.5 66.5899 194.59 69.5 191 69.5C187.41 69.5 184.5 66.5899 184.5 63C184.5 59.4101 187.41 56.5 191 56.5C194.59 56.5 197.5 59.4101 197.5 63ZM198 63C198 66.866 194.866 70 191 70C187.134 70 184 66.866 184 63C184 59.134 187.134 56 191 56C194.866 56 198 59.134 198 63ZM187.646 59.6464C187.842 59.4512 188.158 59.4512 188.354 59.6464L191 62.2929L190.293 63L187.646 60.3536C187.451 60.1583 187.451 59.8417 187.646 59.6464ZM191 63.7071L188.354 66.3536C188.158 66.5488 187.842 66.5488 187.646 66.3536C187.451 66.1583 187.451 65.8417 187.646 65.6464L190.293 63L191 63.7071ZM191.707 63L194.354 65.6464C194.549 65.8417 194.549 66.1583 194.354 66.3536C194.158 66.5488 193.842 66.5488 193.646 66.3536L191 63.7071L191.707 63ZM191.707 63L194.354 60.3536C194.549 60.1583 194.549 59.8417 194.354 59.6464C194.158 59.4512 193.842 59.4512 193.646 59.6464L191 62.2929L191.707 63ZM176 54.5C179.59 54.5 182.5 51.5899 182.5 48C182.5 44.4101 179.59 41.5 176 41.5C172.41 41.5 169.5 44.4101 169.5 48C169.5 51.5899 172.41 54.5 176 54.5ZM176 55C179.866 55 183 51.866 183 48C183 44.134 179.866 41 176 41C172.134 41 169 44.134 169 48C169 51.866 172.134 55 176 55ZM172 45C172 44.4477 172.448 44 173 44H179C179.552 44 180 44.4477 180 45V51C180 51.5523 179.552 52 179 52H173C172.448 52 172 51.5523 172 51V45ZM191 39.5C194.59 39.5 197.5 36.5899 197.5 33C197.5 29.4101 194.59 26.5 191 26.5C187.41 26.5 184.5 29.4101 184.5 33C184.5 36.5899 187.41 39.5 191 39.5ZM191 40C194.866 40 198 36.866 198 33C198 29.134 194.866 26 191 26C187.134 26 184 29.134 184 33C184 36.866 187.134 40 191 40ZM191.434 28.7519C191.345 28.5961 191.179 28.5 191 28.5C190.821 28.5 190.655 28.5961 190.566 28.7519L186.566 35.7519C186.477 35.9067 186.478 36.0968 186.568 36.251C186.657 36.4051 186.822 36.5 187 36.5H195C195.178 36.5 195.343 36.4051 195.432 36.251C195.522 36.0968 195.523 35.9067 195.434 35.7519L191.434 28.7519ZM194.138 35.5H187.862L191 30.0078L194.138 35.5ZM206 54.5C209.59 54.5 212.5 51.5899 212.5 48C212.5 44.4101 209.59 41.5 206 41.5C202.41 41.5 199.5 44.4101 199.5 48C199.5 51.5899 202.41 54.5 206 54.5ZM206 55C209.866 55 213 51.866 213 48C213 44.134 209.866 41 206 41C202.134 41 199 44.134 199 48C199 51.866 202.134 55 206 55ZM209 48C209 49.6569 207.657 51 206 51C204.343 51 203 49.6569 203 48C203 46.3431 204.343 45 206 45C207.657 45 209 46.3431 209 48ZM173 45H179V51H173V45ZM210 48C210 50.2091 208.209 52 206 52C203.791 52 202 50.2091 202 48C202 45.7909 203.791 44 206 44C208.209 44 210 45.7909 210 48ZM176.983 28.5371L177.806 24.4206C178.108 22.9097 176.953 21.5 175.412 21.5C174.248 21.5 173.246 22.3215 173.017 23.4629L172.194 27.5794C171.892 29.0903 173.047 30.5 174.588 30.5C175.752 30.5 176.754 29.6785 176.983 28.5371ZM175.412 21C174.009 21 172.802 21.9898 172.527 23.3648L171.704 27.4813C171.34 29.3017 172.732 31 174.588 31C175.991 31 177.198 30.0102 177.473 28.6352L178.296 24.5187C178.66 22.6983 177.268 21 175.412 21ZM174 19.75C173.862 19.75 173.75 19.8619 173.75 20C173.75 20.1381 173.862 20.25 174 20.25H177C177.138 20.25 177.25 20.1381 177.25 20C177.25 19.8619 177.138 19.75 177 19.75H174ZM173.75 18C173.75 17.8619 173.862 17.75 174 17.75H177C177.138 17.75 177.25 17.8619 177.25 18C177.25 18.1381 177.138 18.25 177 18.25H174C173.862 18.25 173.75 18.1381 173.75 18ZM174 18.75C173.862 18.75 173.75 18.8619 173.75 19C173.75 19.1381 173.862 19.25 174 19.25H177C177.138 19.25 177.25 19.1381 177.25 19C177.25 18.8619 177.138 18.75 177 18.75H174Z" fill="black"/>
<path fill-rule="evenodd" clip-rule="evenodd" d="M87.6607 57.6745L85.5 60.5C64.8659 84.2073 58.1092 107.915 51.3525 131.622C50.414 134.915 49.4756 138.207 48.5 141.5C48 143.167 46 147 43 147C39.9586 147 29 140.5 28.5 115.5C28.0091 90.9533 30.4103 57.2481 48.0093 23.3767C48.6409 22.1612 49.684 21.1987 50.9654 20.7143C61.0902 16.8872 73.6835 15.3127 79 15C82.4803 15 85.4684 17.4758 86.1154 20.8954L90.6721 44.981C91.5172 49.4478 90.4222 54.0633 87.6607 57.6745ZM66.4736 31.5H61.5265C59.4226 31.5 57.7942 33.3427 58.053 35.4306L58.5866 39.7348C58.6239 40.0355 58.7513 40.3178 58.9521 40.5446L62.877 44.9774C63.4739 45.6515 64.5261 45.6515 65.1231 44.9774L69.0479 40.5446C69.2487 40.3178 69.3762 40.0355 69.4134 39.7348L69.947 35.4306C70.2058 33.3427 68.5774 31.5 66.4736 31.5ZM61.5265 31C59.1221 31 57.2611 33.106 57.5568 35.4921L58.0904 39.7963C58.1401 40.1972 58.31 40.5736 58.5778 40.8761L62.5026 45.3088C63.2985 46.2077 64.7015 46.2077 65.4974 45.3088L69.4222 40.8761C69.69 40.5736 69.8599 40.1972 69.9096 39.7963L70.4432 35.4921C70.7389 33.106 68.8779 31 66.4736 31H61.5265ZM63.8232 34.1768L62.4268 35.5732C62.2693 35.7307 62.3808 36 62.6036 36H65.3965C65.6192 36 65.7307 35.7307 65.5732 35.5732L64.1768 34.1768C64.0791 34.0791 63.9209 34.0791 63.8232 34.1768ZM66.4736 64.5H61.5265C59.4226 64.5 57.7942 62.6573 58.053 60.5694L58.5866 56.2652C58.6239 55.9645 58.7513 55.6822 58.9521 55.4554L62.877 51.0226C63.4739 50.3485 64.5261 50.3485 65.1231 51.0226L69.0479 55.4554C69.2487 55.6822 69.3762 55.9645 69.4134 56.2652L69.947 60.5694C70.2058 62.6573 68.5774 64.5 66.4736 64.5ZM61.5265 65C59.1221 65 57.2611 62.894 57.5568 60.5079L58.0904 56.2037C58.1401 55.8028 58.31 55.4264 58.5778 55.1239L62.5026 50.6912C63.2985 49.7923 64.7015 49.7923 65.4974 50.6912L69.4222 55.1239C69.69 55.4264 69.8599 55.8028 69.9096 56.2037L70.4432 60.5079C70.7389 62.894 68.8779 65 66.4736 65H61.5265ZM63.8232 61.8232L62.4268 60.4268C62.2693 60.2693 62.3808 60 62.6036 60H65.3965C65.6192 60 65.7307 60.2693 65.5732 60.4268L64.1768 61.8232C64.0791 61.9209 63.9209 61.9209 63.8232 61.8232ZM47.5 45.5264V50.4736C47.5 52.5774 49.3427 54.2058 51.4306 53.947L55.7348 53.4134C56.0355 53.3762 56.3178 53.2487 56.5446 53.0479L60.9774 49.123C61.6516 48.5261 61.6516 47.4739 60.9774 46.877L56.5446 42.9521C56.3178 42.7513 56.0355 42.6238 55.7348 42.5866L51.4306 42.053C49.3427 41.7942 47.5 43.4226 47.5 45.5264ZM47 50.4736C47 52.8779 49.106 54.7389 51.4921 54.4432L55.7963 53.9096C56.1972 53.8599 56.5736 53.69 56.8761 53.4222L61.3088 49.4974C62.2077 48.7015 62.2077 47.2985 61.3088 46.5026L56.8761 42.5778C56.5736 42.31 56.1972 42.1401 55.7963 42.0904L51.4921 41.5568C49.106 41.2611 47 43.1221 47 45.5264V50.4736ZM50.1768 48.1768L51.5732 49.5732C51.7307 49.7307 52 49.6192 52 49.3964V46.6036C52 46.3808 51.7307 46.2693 51.5732 46.4268L50.1768 47.8232C50.0791 47.9209 50.0791 48.0791 50.1768 48.1768ZM80.5 45.5264V50.4736C80.5 52.5774 78.6573 54.2058 76.5694 53.947L72.2652 53.4134C71.9645 53.3762 71.6822 53.2487 71.4554 53.0479L67.0226 49.1231C66.3485 48.5261 66.3485 47.4739 67.0226 46.877L71.4554 42.9521C71.6822 42.7513 71.9645 42.6238 72.2652 42.5866L76.5694 42.053C78.6573 41.7942 80.5 43.4226 80.5 45.5264ZM81 50.4736C81 52.8779 78.894 54.7389 76.5079 54.4432L72.2037 53.9096C71.8028 53.8599 71.4264 53.69 71.1239 53.4222L66.6912 49.4974C65.7923 48.7015 65.7923 47.2985 66.6912 46.5026L71.1239 42.5778C71.4264 42.31 71.8028 42.1401 72.2037 42.0904L76.5079 41.5568C78.894 41.2611 81 43.1221 81 45.5264V50.4736ZM77.8232 48.1768L76.4268 49.5732C76.2693 49.7307 76 49.6192 76 49.3964V46.6036C76 46.3808 76.2693 46.2693 76.4268 46.4268L77.8232 47.8232C77.9209 47.9209 77.9209 48.0791 77.8232 48.1768ZM79.0173 28.5371L78.194 24.4206C77.8918 22.9097 79.0475 21.5 80.5883 21.5C81.7523 21.5 82.7544 22.3215 82.9827 23.4629L83.806 27.5794C84.1082 29.0903 82.9525 30.5 81.4117 30.5C80.2477 30.5 79.2456 29.6785 79.0173 28.5371ZM80.5883 21C81.9906 21 83.198 21.9898 83.473 23.3648L84.2963 27.4813C84.6603 29.3017 83.268 31 81.4117 31C80.0094 31 78.802 30.0102 78.527 28.6352L77.7037 24.5187C77.3397 22.6983 78.732 21 80.5883 21ZM80.25 18C80.25 17.8619 80.1381 17.75 80 17.75C79.8619 17.75 79.75 17.8619 79.75 18V20C79.75 20.1381 79.8619 20.25 80 20.25C80.1381 20.25 80.25 20.1381 80.25 20V18ZM77.8232 18.8232C77.9209 18.7256 78.0791 18.7256 78.1768 18.8232L79.1768 19.8232C79.2744 19.9209 79.2744 20.0791 79.1768 20.1768C79.0791 20.2744 78.9209 20.2744 78.8232 20.1768L77.8232 19.1768C77.7256 19.0791 77.7256 18.9209 77.8232 18.8232ZM82.1768 19.1768C82.2744 19.0791 82.2744 18.9209 82.1768 18.8232C82.0791 18.7256 81.9209 18.7256 81.8232 18.8232L80.8232 19.8232C80.7256 19.9209 80.7256 20.0791 80.8232 20.1768C80.9209 20.2744 81.0791 20.2744 81.1768 20.1768L82.1768 19.1768Z" fill="black"/>
<path d="M172 17.5C170.5 16.5 168.5 16 167 16" stroke="black" stroke-width="0.5"/>
<path d="M84 17.5C85.5 16.5 87.5 16 89 16" stroke="black" stroke-width="0.5"/>
<path d="M203.5 20.5V20.5C203.185 18.9226 202.165 17.5635 200.693 16.9156C194.018 13.9789 187.277 12.7449 179.891 12.9242C178.83 12.95 178 13.8305 178 14.892V15.5" stroke="black" stroke-width="0.5"/>
<path d="M52.5 20.5V20.5C52.8155 18.9226 53.8349 17.5635 55.3073 16.9156C61.9816 13.9789 68.7226 12.7449 76.1091 12.9242C77.1702 12.95 78 13.8305 78 14.892V15.5" stroke="black" stroke-width="0.5"/>
<path d="M168.618 21.261C169.349 17.6957 166.757 14.3037 163.124 14.0939C137.872 12.6354 118.128 12.6354 92.8758 14.0939C89.2426 14.3037 86.6512 17.6957 87.3817 21.261L92.8623 48.0074C93.8156 52.6598 97.9096 56 102.659 56H153.341C158.09 56 162.184 52.6598 163.138 48.0074L168.618 21.261Z" fill="black"/>
</svg>
