<svg width="256" height="160" viewBox="0 0 256 160" fill="none" xmlns="http://www.w3.org/2000/svg">
<g id="DualSense" clip-path="url(#clip0)">
<g id="Group">
<path id="Vector" d="M125.866 70C126.435 70.1016 126.984 70.2642 127.532 70.4065C127.858 70.5081 128.162 70.5894 128.488 70.6911C128.975 70.8537 129.463 71.0163 129.91 71.2805C130.114 71.4024 130.297 71.5447 130.459 71.7073C130.642 71.8902 130.784 72.0935 130.886 72.3171C131.089 72.7236 131.15 73.1707 131.171 73.6179C131.171 73.9024 131.171 74.2073 131.13 74.4919C131.089 74.7358 131.008 74.9797 130.866 75.2033C130.744 75.3862 130.581 75.5691 130.378 75.6707C130.195 75.7724 129.971 75.813 129.748 75.813C129.423 75.813 129.097 75.7114 128.813 75.5691C128.813 74.5935 128.813 73.6179 128.813 72.622C128.813 72.439 128.813 72.2561 128.793 72.0935C128.772 71.9512 128.711 71.8293 128.61 71.7276C128.549 71.6667 128.447 71.626 128.366 71.6057C128.264 71.5854 128.183 71.626 128.122 71.7073C128.02 71.8293 128 71.9919 128 72.1341C128 74.7561 128 77.378 128 80C127.288 79.7764 126.597 79.5528 125.886 79.3293C125.866 76.2398 125.866 73.1301 125.866 70Z" fill="black"/>
<path id="Vector_2" d="M122.695 76.6463C123.61 76.3211 124.545 75.9959 125.459 75.6707C125.459 76.0366 125.459 76.4024 125.459 76.748C125.459 76.7886 125.459 76.8496 125.459 76.8902C124.728 77.1545 123.996 77.4187 123.284 77.6626C123.183 77.7033 123.081 77.7439 123 77.8252C122.959 77.8659 122.939 77.9065 122.959 77.9675C122.98 78.0285 123.041 78.0691 123.102 78.0894C123.264 78.1504 123.427 78.1707 123.61 78.1707C123.793 78.1707 123.996 78.1504 124.179 78.1098C124.301 78.0894 124.423 78.0488 124.545 77.9878C124.849 77.8659 125.175 77.7642 125.48 77.6423C125.48 77.9472 125.48 78.252 125.48 78.5569C125.48 78.6179 125.48 78.6789 125.48 78.7398C125.073 78.8415 124.687 78.8821 124.301 78.8821C123.528 78.9024 122.736 78.7805 121.984 78.5366C121.74 78.4756 121.496 78.374 121.293 78.2114C121.171 78.1301 121.089 78.0081 121.028 77.8862C120.988 77.7642 120.988 77.6423 121.049 77.5406C121.11 77.439 121.191 77.3374 121.293 77.2764C121.516 77.1138 121.78 76.9919 122.024 76.8902C122.248 76.7886 122.471 76.7276 122.695 76.6463Z" fill="black"/>
<path id="Vector_3" d="M130.114 76.2398C130.317 76.2195 130.541 76.2195 130.744 76.1992C131.435 76.1992 132.126 76.2805 132.797 76.5041C132.919 76.5447 133.061 76.5854 133.183 76.626C133.406 76.7073 133.65 76.8089 133.833 76.9715C133.935 77.0732 134.036 77.2154 134.036 77.3577C134.036 77.4797 133.996 77.6016 133.894 77.7032C133.732 77.8862 133.528 78.0081 133.325 78.1098C133.102 78.2317 132.858 78.2927 132.634 78.374C131.232 78.8821 129.809 79.3902 128.406 79.8984C128.406 79.5122 128.406 79.1057 128.406 78.7195C128.406 78.6992 128.406 78.6789 128.427 78.6789C129.504 78.2927 130.581 77.9065 131.638 77.5406C131.78 77.4797 131.943 77.439 132.065 77.3577C132.106 77.3171 132.167 77.2561 132.146 77.1951C132.126 77.1341 132.065 77.0935 132.004 77.0732C131.841 77.0122 131.658 76.9919 131.496 76.9919C131.232 76.9919 130.967 77.0325 130.703 77.1138C129.931 77.378 129.179 77.6626 128.406 77.9268C128.406 77.5 128.406 77.0732 128.406 76.6463C128.955 76.4228 129.524 76.3008 130.114 76.2398Z" fill="black"/>
</g>
<path id="Rectangle 4" d="M170.694 60.3419L168.538 57.5226C165.82 53.9678 164.742 49.4245 165.574 45.0275L170.13 20.9419C170.754 17.6427 173.636 15.2535 176.993 15.25C182.3 15.563 194.859 17.1352 204.946 20.9482C206.167 21.4095 207.164 22.3279 207.769 23.492C225.341 57.3107 227.741 90.9683 227.25 115.495C227.001 127.96 224.145 135.785 220.995 140.486C219.42 142.837 217.772 144.407 216.337 145.387C214.895 146.373 213.689 146.75 213 146.75C211.612 146.75 210.426 145.862 209.507 144.718C208.592 143.58 207.982 142.235 207.74 141.429C206.765 138.139 205.827 134.848 204.889 131.556C198.133 107.851 191.363 84.0916 170.694 60.3419Z" stroke="black" stroke-width="0.5"/>
<path id="Rectangle 8" d="M85.3062 60.3419L87.4621 57.5226C90.1805 53.9678 91.2583 49.4245 90.4264 45.0275L85.8697 20.9419C85.2455 17.6427 82.3643 15.2535 79.0073 15.25C73.6996 15.563 61.1411 17.1352 51.0538 20.9482C49.8332 21.4095 48.836 22.3279 48.2312 23.492C30.6595 57.3107 28.2594 90.9683 28.75 115.495C28.9992 127.96 31.8552 135.785 35.0047 140.486C36.5797 142.837 38.2284 144.407 39.6627 145.387C41.105 146.373 42.3105 146.75 43 146.75C44.388 146.75 45.5739 145.862 46.4926 144.718C47.4076 143.58 48.0185 142.235 48.2604 141.429C49.2351 138.139 50.173 134.848 51.1112 131.556C57.8666 107.851 64.6375 84.0916 85.3062 60.3419Z" stroke="black" stroke-width="0.5"/>
<path id="Vector 17" d="M172 17.5C170.5 16.5 168.5 16 167 16" stroke="black" stroke-width="0.5"/>
<path id="Vector 18" d="M84 17.5C85.5 16.5 87.5 16 89 16" stroke="black" stroke-width="0.5"/>
<path id="Vector 15" d="M203.5 20.5V20.5C203.185 18.9226 202.165 17.5635 200.693 16.9156C194.018 13.9789 187.277 12.7449 179.891 12.9242C178.83 12.95 178 13.8305 178 14.892V15.5" stroke="black" stroke-width="0.5"/>
<path id="Vector 16" d="M52.5 20.5V20.5C52.8155 18.9226 53.8349 17.5635 55.3073 16.9156C61.9816 13.9789 68.7226 12.7449 76.1091 12.9242C77.1702 12.95 78 13.8305 78 14.892V15.5" stroke="black" stroke-width="0.5"/>
<g id="Group 11">
<path id="Vector_4" d="M211.5 146.5L200 149C195.2 148.6 187.5 121 181.5 106.5L181.317 106.133C179.284 102.068 175.129 99.5 170.584 99.5H85.4164C80.8711 99.5 76.716 102.068 74.6833 106.133L74.5 106.5C68.5 121 60.8 148.6 56 149L44.5 146.5" stroke="black" stroke-width="0.5"/>
<path id="Vector 6" d="M200.5 149C199 147.5 190 114 180 104" stroke="black" stroke-width="0.5"/>
<path id="Vector 8" d="M55.5 149C57 147.5 66 114 76 104" stroke="black" stroke-width="0.5"/>
</g>
<path id="Rectangle 9" d="M164.929 48.3534L165.174 48.4024L164.929 48.3534ZM91.0707 48.3534L90.8255 48.4024V48.4024L91.0707 48.3534ZM102.838 57.75H153.162V58.25H102.838V57.75ZM164.684 48.3044L165.255 45.451L165.745 45.549L165.174 48.4024L164.684 48.3044ZM90.7451 45.451L91.3158 48.3044L90.8255 48.4024L90.2549 45.549L90.7451 45.451ZM153.162 57.75C158.763 57.75 163.586 53.7966 164.684 48.3044L165.174 48.4024C164.029 54.1284 159.002 58.25 153.162 58.25V57.75ZM102.838 58.25C96.9983 58.25 91.9707 54.1284 90.8255 48.4024L91.3158 48.3044C92.4143 53.7966 97.2366 57.75 102.838 57.75V58.25Z" fill="black"/>
<g id="Group 5">
<circle id="Ellipse 5" cx="136.5" cy="61.5" r="1.5" fill="black"/>
<circle id="Ellipse 7" cx="128.5" cy="61.5" r="1.5" fill="black"/>
<circle id="Ellipse 8" cx="124.5" cy="61.5" r="1.5" fill="black"/>
<circle id="Ellipse 9" cx="120.5" cy="61.5" r="1.5" fill="black"/>
<circle id="Ellipse 10" cx="126.5" cy="64.5" r="1.5" fill="black"/>
<circle id="Ellipse 13" cx="122.5" cy="64.5" r="1.5" fill="black"/>
<circle id="Ellipse 11" cx="130.5" cy="64.5" r="1.5" fill="black"/>
<circle id="Ellipse 12" cx="134.5" cy="64.5" r="1.5" fill="black"/>
<circle id="Ellipse 6" cx="132.5" cy="61.5" r="1.5" fill="black"/>
</g>
<rect id="Rectangle 12" x="126" y="97" width="4" height="1" rx="0.5" fill="black"/>
<rect id="Rectangle 5" x="123.25" y="86.25" width="10.5" height="3.5" rx="1.75" stroke="black" stroke-width="0.5"/>
<path id="Rectangle 1" d="M168.128 21.1606C168.798 17.892 166.422 14.7852 163.095 14.5931C137.863 13.1356 118.137 13.1356 92.9047 14.5931C89.5777 14.7852 87.2018 17.892 87.8716 21.1606L93.3521 47.907C94.2577 52.3268 98.1471 55.5 102.659 55.5H153.341C157.853 55.5 161.742 52.3268 162.648 47.907L168.128 21.1606Z" stroke="black"/>
<path id="Rectangle 2" d="M172.772 23.4139C173.024 22.1557 174.129 21.25 175.412 21.25C177.11 21.25 178.384 22.804 178.051 24.4696L177.228 28.5862C176.976 29.8443 175.871 30.75 174.588 30.75C172.89 30.75 171.616 29.196 171.949 27.5304L172.772 23.4139Z" stroke="black" stroke-width="0.5"/>
<g id="Group 12">
<path id="Vector 9" d="M174 20H177" stroke="black" stroke-width="0.5" stroke-linecap="round"/>
<path id="Vector 11" d="M174 18H177" stroke="black" stroke-width="0.5" stroke-linecap="round"/>
<path id="Vector 10" d="M174 19H177" stroke="black" stroke-width="0.5" stroke-linecap="round"/>
</g>
<path id="Rectangle 11" d="M83.2278 23.4139C82.9762 22.1557 81.8715 21.25 80.5883 21.25C78.8897 21.25 77.6158 22.804 77.9489 24.4696L78.7722 28.5862C79.0238 29.8443 80.1285 30.75 81.4117 30.75C83.1103 30.75 84.3842 29.196 84.0511 27.5304L83.2278 23.4139Z" stroke="black" stroke-width="0.5"/>
<g id="Group 13">
<path id="Vector 12" d="M80 20V18" stroke="black" stroke-width="0.5" stroke-linecap="round"/>
<path id="Vector 14" d="M79 20L78 19" stroke="black" stroke-width="0.5" stroke-linecap="round"/>
<path id="Vector 13" d="M81 20L82 19" stroke="black" stroke-width="0.5" stroke-linecap="round"/>
</g>
<g id="Group 3">
<circle id="Ellipse 3" cx="191" cy="63" r="6.75" stroke="black" stroke-width="0.5"/>
<path id="Vector 2" d="M188 60L194 66" stroke="black" stroke-linecap="round"/>
<path id="Vector 3" d="M194 60L188 66" stroke="black" stroke-linecap="round"/>
</g>
<g id="Group 2">
<circle id="Ellipse 2" cx="176" cy="48" r="6.75" stroke="black" stroke-width="0.5"/>
<rect id="Rectangle 3" x="172.5" y="44.5" width="7" height="7" rx="0.5" stroke="black"/>
</g>
<g id="Group 1">
<circle id="Ellipse 1" cx="191" cy="33" r="6.75" stroke="black" stroke-width="0.5"/>
<path id="Vector 1" d="M187 36L191 29L195 36H187Z" stroke="black" stroke-linejoin="round"/>
</g>
<g id="Group 4">
<circle id="Ellipse 2_2" cx="206" cy="48" r="6.75" stroke="black" stroke-width="0.5"/>
<circle id="Ellipse 4" cx="206" cy="48" r="3.5" stroke="black"/>
</g>
<g id="Group 10">
<g id="Group 6">
<path id="Rectangle 6" d="M57.8049 35.4613C57.5276 33.2244 59.2724 31.25 61.5264 31.25H66.4736C68.7276 31.25 70.4724 33.2244 70.1951 35.4613L69.6615 39.7655C69.618 40.1163 69.4694 40.4457 69.235 40.7104L65.3102 45.1431C64.6138 45.9296 63.3862 45.9296 62.6898 45.1431L58.765 40.7104C58.5306 40.4457 58.382 40.1163 58.3385 39.7655L57.8049 35.4613Z" stroke="black" stroke-width="0.5"/>
<path id="Vector 4" d="M62.4268 35.5732L63.8232 34.1768C63.9209 34.0791 64.0791 34.0791 64.1768 34.1768L65.5732 35.5732C65.7307 35.7307 65.6192 36 65.3964 36H62.6036C62.3808 36 62.2693 35.7307 62.4268 35.5732Z" fill="black"/>
</g>
<g id="Group 7">
<path id="Rectangle 6_2" d="M57.8049 60.5387C57.5276 62.7756 59.2724 64.75 61.5264 64.75H66.4736C68.7276 64.75 70.4724 62.7756 70.1951 60.5387L69.6615 56.2345C69.618 55.8837 69.4694 55.5543 69.235 55.2896L65.3102 50.8569C64.6138 50.0704 63.3862 50.0704 62.6898 50.8569L58.765 55.2896C58.5306 55.5543 58.382 55.8837 58.3385 56.2345L57.8049 60.5387Z" stroke="black" stroke-width="0.5"/>
<path id="Vector 4_2" d="M62.4268 60.4268L63.8232 61.8232C63.9209 61.9209 64.0791 61.9209 64.1768 61.8232L65.5732 60.4268C65.7307 60.2693 65.6192 60 65.3964 60H62.6036C62.3808 60 62.2693 60.2693 62.4268 60.4268Z" fill="black"/>
</g>
<g id="Group 8">
<path id="Rectangle 6_3" d="M51.4613 54.1951C49.2244 54.4724 47.25 52.7276 47.25 50.4736L47.25 45.5264C47.25 43.2724 49.2244 41.5276 51.4613 41.8049L55.7655 42.3385C56.1163 42.382 56.4457 42.5306 56.7104 42.765L61.1431 46.6898C61.9296 47.3862 61.9296 48.6138 61.1431 49.3102L56.7104 53.235C56.4457 53.4694 56.1163 53.618 55.7655 53.6615L51.4613 54.1951Z" stroke="black" stroke-width="0.5"/>
<path id="Vector 4_3" d="M51.5732 49.5732L50.1768 48.1768C50.0791 48.0791 50.0791 47.9209 50.1768 47.8232L51.5732 46.4268C51.7307 46.2693 52 46.3808 52 46.6036L52 49.3964C52 49.6192 51.7307 49.7307 51.5732 49.5732Z" fill="black"/>
</g>
<g id="Group 9">
<path id="Rectangle 6_4" d="M76.5387 54.1951C78.7756 54.4724 80.75 52.7276 80.75 50.4736L80.75 45.5264C80.75 43.2724 78.7756 41.5276 76.5387 41.8049L72.2345 42.3385C71.8837 42.382 71.5543 42.5306 71.2896 42.765L66.8569 46.6898C66.0704 47.3862 66.0704 48.6138 66.8569 49.3102L71.2896 53.235C71.5543 53.4694 71.8837 53.618 72.2345 53.6615L76.5387 54.1951Z" stroke="black" stroke-width="0.5"/>
<path id="Vector 4_4" d="M76.4268 49.5732L77.8232 48.1768C77.9209 48.0791 77.9209 47.9209 77.8232 47.8232L76.4268 46.4268C76.2693 46.2693 76 46.3808 76 46.6036L76 49.3964C76 49.6192 76.2693 49.7307 76.4268 49.5732Z" fill="black"/>
</g>
</g>
<g id="Group 14">
<circle id="Ellipse 16" cx="161" cy="76" r="15.75" stroke="black" stroke-width="0.5"/>
<circle id="Ellipse 14" cx="161" cy="76" r="12.5" stroke="black"/>
<circle id="Ellipse 15" cx="161" cy="76" r="7.75" stroke="black" stroke-width="0.5"/>
</g>
<g id="Group 15">
<circle id="Ellipse 16_2" r="15.75" transform="matrix(-1 0 0 1 95 76)" stroke="black" stroke-width="0.5"/>
<circle id="Ellipse 14_2" r="12.5" transform="matrix(-1 0 0 1 95 76)" stroke="black"/>
<circle id="Ellipse 15_2" r="7.75" transform="matrix(-1 0 0 1 95 76)" stroke="black" stroke-width="0.5"/>
</g>
<g id="Mic">
<path id="Subtract" fill-rule="evenodd" clip-rule="evenodd" d="M128 91C127.586 91 127.25 91.3358 127.25 91.75V91.8964L128.738 93.3844C128.746 93.3408 128.75 93.2959 128.75 93.25V91.75C128.75 91.3358 128.414 91 128 91ZM128.476 93.8296L127.25 92.6036V93.25C127.25 93.6642 127.586 94 128 94C128.181 94 128.347 93.9361 128.476 93.8296ZM128.688 94.0412L128.823 94.1768C128.838 94.1911 128.853 94.2034 128.87 94.2135C128.714 94.4031 128.498 94.541 128.25 94.5971V94.875H128.5C128.569 94.875 128.625 94.931 128.625 95C128.625 95.069 128.569 95.125 128.5 95.125H127.5C127.431 95.125 127.375 95.069 127.375 95C127.375 94.931 127.431 94.875 127.5 94.875H127.75V94.5971C127.249 94.4834 126.875 94.0354 126.875 93.5V93C126.875 92.931 126.931 92.875 127 92.875C127.069 92.875 127.125 92.931 127.125 93V93.5C127.125 93.9832 127.517 94.375 128 94.375C128.279 94.375 128.527 94.2445 128.688 94.0412ZM129.098 93.7447L128.875 93.5212C128.875 93.5142 128.875 93.5071 128.875 93.5V93C128.875 92.931 128.931 92.875 129 92.875C129.069 92.875 129.125 92.931 129.125 93V93.5C129.125 93.5841 129.116 93.666 129.098 93.7447Z" fill="black"/>
<path id="Vector 22" d="M126.5 91.5L129.5 94.5" stroke="black" stroke-width="0.25" stroke-linecap="round"/>
</g>
</g>
<defs>
<clipPath id="clip0">
<rect width="256" height="160" fill="white"/>
</clipPath>
</defs>
</svg>
