<svg width="256" height="160" viewBox="0 0 256 160" fill="none" xmlns="http://www.w3.org/2000/svg">
<path fill-rule="evenodd" clip-rule="evenodd" d="M134.291 15.1332H134.292C140.814 15.1507 149.589 15.1743 152.119 15.1208C152.335 15.1163 152.545 15.1086 152.75 15.0979V19.5H103.25V15.0979C103.455 15.1086 103.665 15.1163 103.881 15.1208C106.411 15.1743 115.186 15.1507 121.709 15.1332H121.709H121.71C124.377 15.126 126.667 15.1198 128.001 15.1204C129.334 15.1198 131.624 15.126 134.291 15.1332L134.291 15.1332ZM102.75 15.0652C99.5845 14.8143 97.8325 13.8212 95.963 12.7616L95.962 12.761C95.8091 12.6743 95.6554 12.5872 95.5 12.5C91.2696 10.2847 88.0745 10.0107 88.0745 10.0107C75.5 11.5 63.6077 17.9138 61 20C59 22 58 24 58 24L56.3883 27.2233C58.131 26.2716 60.5012 25.0939 63.7871 23.5476L63.8005 23.5413L63.8143 23.5358C68.1969 21.7827 72.9599 20.0277 77.1952 18.7101C81.4095 17.399 85.1645 16.5 87.5 16.5C88.1939 16.5 89.2178 16.7031 90.347 16.9835C91.4914 17.2676 92.7978 17.6454 94.0779 18.0201L94.5054 18.1454L94.5056 18.1454C95.6402 18.4779 96.7381 18.7997 97.6818 19.0477C98.7651 19.3323 99.5761 19.5 100 19.5H102.75V15.0652ZM153.25 19.5V15.0652C156.415 14.8143 158.168 13.8212 160.037 12.7616C160.19 12.6747 160.344 12.5874 160.5 12.5C164.73 10.2847 167.925 10.0107 167.925 10.0107C180.5 11.5 192.392 17.9138 195 20C197 22 198 24 198 24L199.612 27.2233C197.869 26.2716 195.499 25.0939 192.213 23.5476L192.199 23.5413L192.186 23.5358C187.803 21.7827 183.04 20.0277 178.805 18.7101C174.59 17.399 170.836 16.5 168.5 16.5C167.806 16.5 166.782 16.7031 165.653 16.9835C164.509 17.2676 163.202 17.6454 161.922 18.0201L161.494 18.1455L161.494 18.1457C160.359 18.4781 159.262 18.7998 158.318 19.0477C157.235 19.3323 156.424 19.5 156 19.5H153.25ZM198.015 27.5049L167.925 20L160.5 22H95.5L88.0745 20L57.985 27.5049C59.5635 26.6804 61.5842 25.6896 64.1995 24.4587C68.5631 22.7136 73.2945 20.9709 77.4923 19.6649C81.7155 18.351 85.3355 17.5 87.5 17.5C88.0561 17.5 88.9697 17.6719 90.1061 17.954C91.2274 18.2324 92.5147 18.6046 93.7971 18.9799L94.2247 19.1052L94.225 19.1052C95.3569 19.437 96.4694 19.763 97.4276 20.0148C98.4849 20.2927 99.4239 20.5 100 20.5H156C156.576 20.5 157.515 20.2927 158.572 20.0148C159.531 19.763 160.644 19.4368 161.776 19.105L162.203 18.9799C163.485 18.6046 164.773 18.2324 165.894 17.954C167.03 17.6719 167.944 17.5 168.5 17.5C170.664 17.5 174.285 18.351 178.508 19.6649C182.705 20.9709 187.437 22.7136 191.8 24.4587C194.416 25.6895 196.436 26.6803 198.015 27.5049Z" fill="black"/>
<path fill-rule="evenodd" clip-rule="evenodd" d="M223.975 84.0305C219.587 68.951 207.772 37.313 207.772 37.313C207.772 37.313 207.109 35.8878 206.138 34.2087C206.066 34.2562 205.971 34.265 205.888 34.2236C205.55 34.0543 205.183 33.8693 204.789 33.6708L204.776 33.664L204.765 33.6585L204.764 33.658L204.762 33.6573C198.154 30.3245 184.069 23.2204 169.996 22.75C167.54 22.7507 165.577 23.3647 164.228 23.9776C163.554 24.2842 163.034 24.5904 162.683 24.8188C162.508 24.933 162.376 25.0276 162.288 25.0931C162.262 25.1126 162.24 25.1294 162.221 25.1435L162.19 25.1681L162.168 25.1856L162.166 25.1879L162.132 25.2212L162.003 25.3512L161.508 25.8468C161.081 26.2748 160.47 26.8886 159.729 27.6316C158.249 29.1177 156.256 31.1209 154.205 33.1893C150.099 37.3301 145.771 41.7213 144.846 42.7589L144.771 42.8425H144.659H111.341H111.229L111.154 42.7589C110.229 41.7213 105.901 37.3301 101.795 33.1893C99.7436 31.1209 97.7507 29.1177 96.2705 27.6316C95.5305 26.8886 94.9186 26.2748 94.4917 25.8468L93.9973 25.3512L93.8675 25.2212L93.8343 25.1879L93.8321 25.1856L93.8102 25.1681C93.7888 25.1512 93.756 25.1258 93.712 25.0931C93.6241 25.0276 93.4916 24.933 93.3166 24.8188C92.9664 24.5904 92.4461 24.2842 91.7715 23.9776C90.4232 23.3647 88.4599 22.7507 86.0042 22.75C71.9306 23.2204 57.8455 30.3245 51.2377 33.6573L51.2362 33.658C50.833 33.8614 50.4576 34.0507 50.1118 34.2236C50.0291 34.265 49.9344 34.2562 49.8623 34.2087C48.8906 35.8878 48.2284 37.313 48.2284 37.313C48.2284 37.313 36.4133 68.951 32.0248 84.0305C27.6363 99.11 24.2298 116.104 27.0015 130.023C29.5537 142.841 41.4579 148.282 45.7609 148.927C45.7717 148.891 45.7905 148.858 45.8175 148.829L75.2043 117.43C79.7895 112.53 86.1996 109.75 92.9097 109.75H163.09C169.8 109.75 176.211 112.53 180.796 117.43L210.183 148.829C210.193 148.84 210.202 148.852 210.21 148.864C210.223 148.884 210.232 148.905 210.239 148.927C214.542 148.282 226.446 142.841 228.998 130.023C231.77 116.104 228.364 99.11 223.975 84.0305ZM204 31C204.635 31.7934 205.246 32.7189 205.786 33.6129C205.532 33.4856 205.265 33.3506 204.983 33.2085L204.981 33.2075L204.98 33.2069C198.378 29.8763 184.199 22.7232 170.008 22.2501V22.25H170C167.458 22.25 165.422 22.8857 164.022 23.5224C163.321 23.8408 162.779 24.1596 162.41 24.4C162.226 24.5202 162.085 24.6208 161.989 24.6921C161.942 24.7277 161.905 24.756 161.88 24.7757L161.851 24.7987L161.843 24.8051L161.841 24.807L161.84 24.8076L161.84 24.8078C161.84 24.8079 161.84 24.8079 162 25L161.84 24.8079L161.831 24.8153L161.823 24.8234L162 25C161.823 24.8234 161.823 24.8234 161.823 24.8235L161.822 24.8241L161.82 24.8262L161.812 24.8346L161.779 24.8679L161.649 24.998L161.154 25.4937C160.727 25.9218 160.115 26.5356 159.375 27.2788C157.895 28.765 155.902 30.7685 153.85 32.8372C149.852 36.8689 145.623 41.159 144.548 42.3425H111.452C110.377 41.159 106.148 36.8689 102.15 32.8372C100.098 30.7685 98.1051 28.765 96.6248 27.2788C95.8846 26.5356 95.2727 25.9218 94.8457 25.4937L94.3513 24.998L94.2214 24.8679L94.1882 24.8346L94.1797 24.8262L94.1776 24.8241L94.1771 24.8235C94.177 24.8234 94.1769 24.8234 94 25L94.1769 24.8234L94.1688 24.8153L94.16 24.8079L94 25C94.16 24.8079 94.16 24.8079 94.1599 24.8078L94.1596 24.8076L94.1589 24.807L94.1566 24.8051L94.1488 24.7987L94.12 24.7757C94.095 24.756 94.0585 24.7277 94.0106 24.6921C93.915 24.6208 93.774 24.5202 93.5897 24.4C93.2211 24.1596 92.6789 23.8408 91.9785 23.5224C90.5776 22.8857 88.5423 22.25 86 22.25V22.2499L85.9917 22.2501C71.8007 22.7232 57.6219 29.8763 51.0201 33.2069C50.7374 33.3495 50.4686 33.4852 50.2143 33.6129C50.7536 32.7189 51.3653 31.7934 52 31C53.2 29.5 55.5 28 64 24C72.75 20.5 83 17 87.5 17C88.8197 17 91.6718 17.8359 94.3651 18.6253C96.774 19.3313 99.0557 20 100 20H156C156.944 20 159.226 19.3313 161.635 18.6253C164.328 17.8359 167.18 17 168.5 17C173 17 183.25 20.5 192 24C200.5 28 202.8 29.5 204 31ZM209.647 148.988L180.431 117.771C175.94 112.973 169.662 110.25 163.09 110.25H92.9097C86.338 110.25 80.06 112.973 75.5694 117.771L46.3534 148.988C46.4768 148.994 46.5896 148.994 46.6911 148.989C46.6911 148.989 47.579 149.148 48.8132 148.278C50.0474 147.408 56.565 141.971 63.2051 135.069C63.464 134.8 63.7322 134.52 64.0091 134.232C70.8339 127.124 82.9394 114.517 91.1517 114.016C94.3554 113.82 119.146 113.812 126.192 113.81H126.192H126.215C127.188 113.809 127.818 113.809 128 113.808C128.181 113.809 128.812 113.809 129.785 113.81H129.808H129.808C136.854 113.812 161.645 113.82 164.848 114.016C173.061 114.517 185.166 127.124 191.991 134.232L191.991 134.232L192.005 134.247L192.132 134.379C192.359 134.615 192.58 134.846 192.795 135.069C199.435 141.971 205.953 147.408 207.187 148.278C208.421 149.148 209.309 148.989 209.309 148.989C209.41 148.994 209.523 148.994 209.647 148.988ZM113.5 88C113.5 96.5604 106.56 103.5 98 103.5C89.4396 103.5 82.5 96.5604 82.5 88C82.5 79.4396 89.4396 72.5 98 72.5C106.56 72.5 113.5 79.4396 113.5 88ZM114 88C114 96.8366 106.837 104 98 104C89.1634 104 82 96.8366 82 88C82 79.1634 89.1634 72 98 72C106.837 72 114 79.1634 114 88ZM102.5 84C102.224 84 102 83.7761 102 83.5V77C102 76.1716 101.328 75.5 100.5 75.5H95.5C94.6716 75.5 94 76.1716 94 77V83.5C94 83.7761 93.7761 84 93.5 84H87C86.1716 84 85.5 84.6716 85.5 85.5V90.5C85.5 91.3284 86.1716 92 87 92H93.5C93.7761 92 94 92.2239 94 92.5V99C94 99.8284 94.6716 100.5 95.5 100.5H100.5C101.328 100.5 102 99.8284 102 99V92.5C102 92.2239 102.224 92 102.5 92H109C109.828 92 110.5 91.3284 110.5 90.5V85.5C110.5 84.6716 109.828 84 109 84H102.5ZM93.5 83V77C93.5 75.8954 94.3954 75 95.5 75H100.5C101.605 75 102.5 75.8954 102.5 77V83V83.5H103H109C110.105 83.5 111 84.3954 111 85.5V90.5C111 91.6046 110.105 92.5 109 92.5H103H102.5V93V99C102.5 100.105 101.605 101 100.5 101H95.5C94.3954 101 93.5 100.105 93.5 99V93V92.5H93H87C85.8954 92.5 85 91.6046 85 90.5V85.5C85 84.3954 85.8954 83.5 87 83.5H93H93.5V83ZM89.5 52C89.5 60.5604 82.5604 67.5 74 67.5C65.4396 67.5 58.5 60.5604 58.5 52C58.5 43.4396 65.4396 36.5 74 36.5C82.5604 36.5 89.5 43.4396 89.5 52ZM90 52C90 60.8366 82.8366 68 74 68C65.1634 68 58 60.8366 58 52C58 43.1634 65.1634 36 74 36C82.8366 36 90 43.1634 90 52ZM74 63C80.0751 63 85 58.0751 85 52C85 45.9249 80.0751 41 74 41C67.9249 41 63 45.9249 63 52C63 58.0751 67.9249 63 74 63ZM74 64C80.6274 64 86 58.6274 86 52C86 45.3726 80.6274 40 74 40C67.3726 40 62 45.3726 62 52C62 58.6274 67.3726 64 74 64ZM82.5 52C82.5 56.6944 78.6944 60.5 74 60.5C69.3056 60.5 65.5 56.6944 65.5 52C65.5 47.3056 69.3056 43.5 74 43.5C78.6944 43.5 82.5 47.3056 82.5 52ZM83 52C83 56.9706 78.9706 61 74 61C69.0294 61 65 56.9706 65 52C65 47.0294 69.0294 43 74 43C78.9706 43 83 47.0294 83 52ZM156 103.5C164.56 103.5 171.5 96.5604 171.5 88C171.5 79.4396 164.56 72.5 156 72.5C147.44 72.5 140.5 79.4396 140.5 88C140.5 96.5604 147.44 103.5 156 103.5ZM156 104C164.837 104 172 96.8366 172 88C172 79.1634 164.837 72 156 72C147.163 72 140 79.1634 140 88C140 96.8366 147.163 104 156 104ZM167 88C167 94.0751 162.075 99 156 99C149.925 99 145 94.0751 145 88C145 81.9249 149.925 77 156 77C162.075 77 167 81.9249 167 88ZM168 88C168 94.6274 162.627 100 156 100C149.373 100 144 94.6274 144 88C144 81.3726 149.373 76 156 76C162.627 76 168 81.3726 168 88ZM156 96.5C160.694 96.5 164.5 92.6944 164.5 88C164.5 83.3056 160.694 79.5 156 79.5C151.306 79.5 147.5 83.3056 147.5 88C147.5 92.6944 151.306 96.5 156 96.5ZM156 97C160.971 97 165 92.9706 165 88C165 83.0294 160.971 79 156 79C151.029 79 147 83.0294 147 88C147 92.9706 151.029 97 156 97ZM117.5 52C117.5 54.4853 115.485 56.5 113 56.5C110.515 56.5 108.5 54.4853 108.5 52C108.5 49.5147 110.515 47.5 113 47.5C115.485 47.5 117.5 49.5147 117.5 52ZM118 52C118 54.7614 115.761 57 113 57C110.239 57 108 54.7614 108 52C108 49.2386 110.239 47 113 47C115.761 47 118 49.2386 118 52ZM115.5 54H116V53.5V51.5V51H115.5H112.5H112V51.5V53.5V54H112.5H115.5ZM110.5 50H113.5V50.5H114V49.5H110V52.5H111.5V52H110.5V50ZM143 56.5C145.485 56.5 147.5 54.4853 147.5 52C147.5 49.5147 145.485 47.5 143 47.5C140.515 47.5 138.5 49.5147 138.5 52C138.5 54.4853 140.515 56.5 143 56.5ZM143 57C145.761 57 148 54.7614 148 52C148 49.2386 145.761 47 143 47C140.239 47 138 49.2386 138 52C138 54.7614 140.239 57 143 57ZM134.199 36.2234C135.02 35.0205 135.5 33.5663 135.5 32C135.5 29.7408 134.501 27.7149 132.921 26.3399C132.359 26.5582 131.251 27.1367 130.124 28.5643C130.124 28.5643 134.116 33.3914 134.199 36.2234ZM133.436 37.1673C133.284 36.179 132.372 33.9997 128 30.3929C123.628 34.0001 122.716 36.1795 122.564 37.1677C123.931 38.6044 125.861 39.5 128 39.5C130.139 39.5 132.07 38.6042 133.436 37.1673ZM121.801 36.2234C120.98 35.0205 120.5 33.5663 120.5 32C120.5 29.7408 121.499 27.7148 123.079 26.3398C123.641 26.5581 124.749 27.1366 125.877 28.5643C125.877 28.5643 121.884 33.3916 121.801 36.2234ZM124.425 25.4052C125.898 25.4831 127.783 26.4986 128 26.6184C128.217 26.4986 130.102 25.4831 131.575 25.4052C130.512 24.8279 129.294 24.5 128 24.5C126.706 24.5 125.488 24.8279 124.425 25.4052ZM128 40C132.418 40 136 36.4183 136 32C136 27.5817 132.418 24 128 24C123.582 24 120 27.5817 120 32C120 36.4183 123.582 40 128 40ZM182 73.5C185.59 73.5 188.5 70.5899 188.5 67C188.5 63.4101 185.59 60.5 182 60.5C178.41 60.5 175.5 63.4101 175.5 67C175.5 70.5899 178.41 73.5 182 73.5ZM182 74C185.866 74 189 70.866 189 67C189 63.134 185.866 60 182 60C178.134 60 175 63.134 175 67C175 70.866 178.134 74 182 74ZM181.945 65.1331L182.906 67.7307H181.003L181.945 65.1331ZM183.967 70.5H185.5L182.706 63.5H181.217L178.5 70.5H179.995L180.57 68.91H183.359L183.967 70.5ZM197 58.5C200.59 58.5 203.5 55.5899 203.5 52C203.5 48.4101 200.59 45.5 197 45.5C193.41 45.5 190.5 48.4101 190.5 52C190.5 55.5899 193.41 58.5 197 58.5ZM197 59C200.866 59 204 55.866 204 52C204 48.134 200.866 45 197 45C193.134 45 190 48.134 190 52C190 55.866 193.134 59 197 59ZM196.304 54.3207V52.4491H196.304V52.4489H196.793C197.273 52.4489 197.585 52.4822 197.728 52.5492C197.872 52.6161 197.982 52.7227 198.058 52.8693C198.134 53.0154 198.172 53.1934 198.172 53.4039C198.172 53.6522 198.123 53.85 198.024 53.9981C197.926 54.1464 197.798 54.2397 197.641 54.2776C197.539 54.3063 197.298 54.3207 196.918 54.3207H196.304ZM141 53.75H145V53.25H141V53.75ZM112.5 53.5H115.5V51.5H112.5V53.5ZM196.304 51.284V49.6655H196.91C197.266 49.6655 197.273 49.6694 197.286 49.6775C197.292 49.6807 197.298 49.6845 197.328 49.689C197.504 49.7176 197.636 49.7996 197.725 49.935C197.814 50.0703 197.858 50.2462 197.858 50.4627C197.858 50.6887 197.807 50.8707 197.704 51.0093C197.6 51.1477 197.458 51.2315 197.278 51.26C197.243 51.2655 197.248 51.2701 197.252 51.2738C197.26 51.2806 197.264 51.284 196.996 51.284H196.304ZM145 50.75H141V50.25H145V50.75ZM197.338 48.5H195.25V55.5H197.028C197.7 55.4936 198.124 55.4776 198.3 55.4524C198.58 55.4104 198.816 55.3001 199.007 55.1203C199.198 54.9402 199.349 54.6998 199.46 54.3991C199.57 54.0982 199.625 53.7892 199.625 53.4708C199.625 53.0665 199.539 52.7147 199.369 52.4156C199.198 52.1163 198.735 51.9047 198.417 51.7807C198.642 51.6437 198.821 51.4383 198.953 51.1647C199.085 50.8906 199.151 50.5899 199.151 50.2623C199.151 49.9601 199.097 49.687 198.991 49.4433C198.884 49.1996 198.75 49.0046 198.59 48.8582C198.43 48.712 198.248 48.6157 198.044 48.5697L198.028 48.5659C197.836 48.5221 197.74 48.5 197.338 48.5ZM167 58.5C170.59 58.5 173.5 55.5899 173.5 52C173.5 48.4101 170.59 45.5 167 45.5C163.41 45.5 160.5 48.4101 160.5 52C160.5 55.5899 163.41 58.5 167 58.5ZM167 59C170.866 59 174 55.866 174 52C174 48.134 170.866 45 167 45C163.134 45 160 48.134 160 52C160 55.866 163.134 59 167 59ZM166.073 51.8471L163.5 55.5H165.323L166.997 53.079L168.666 55.5H170.5L167.927 51.8998L170.269 48.5H168.507L167.028 50.7492L165.518 48.5H163.742L166.073 51.8471ZM182 43.5C185.59 43.5 188.5 40.5899 188.5 37C188.5 33.4101 185.59 30.5 182 30.5C178.41 30.5 175.5 33.4101 175.5 37C175.5 40.5899 178.41 43.5 182 43.5ZM182 44C185.866 44 189 40.866 189 37C189 33.134 185.866 30 182 30C178.134 30 175 33.134 175 37C175 40.866 178.134 44 182 44ZM181.242 37.5541V40.4998L182.748 40.5V37.5631L185.5 33.5H183.759L182.033 36.2692L180.272 33.5H178.5L181.242 37.5541ZM141 52.25H145V51.75H141V52.25Z" fill="black"/>
</svg>
