<svg width="256" height="160" viewBox="0 0 256 160" fill="none" xmlns="http://www.w3.org/2000/svg">
<path d="M207.772 37.313C207.772 37.313 219.587 68.951 223.975 84.0305C228.364 99.11 231.77 116.104 228.998 130.023C226.227 143.943 212.427 149.162 209.309 148.989C209.309 148.989 208.421 149.148 207.187 148.278C205.953 147.408 199.435 141.971 192.795 135.069C186.155 128.167 173.394 114.538 164.848 114.016C161.196 113.792 129.489 113.813 128 113.808C126.511 113.813 94.8039 113.792 91.1517 114.016C82.6062 114.538 69.8451 128.167 63.2051 135.069C56.565 141.971 50.0474 147.408 48.8132 148.278C47.579 149.148 46.6911 148.989 46.6911 148.989C43.5731 149.162 29.773 143.943 27.0015 130.023C24.2298 116.104 27.6363 99.11 32.0248 84.0305C36.4133 68.951 48.2284 37.313 48.2284 37.313C48.2284 37.313 50 33.5 52 31C53.2 29.5 55.5 28 64 24C72.75 20.5 83 17 87.5 17C90 17 98 20 100 20H156C158 20 166 17 168.5 17C173 17 183.25 20.5 192 24C200.5 28 202.8 29.5 204 31C206 33.5 207.772 37.313 207.772 37.313Z" stroke="black" stroke-width="0.5"/>
<path d="M210 149L180.613 117.6C176.075 112.752 169.731 110 163.09 110H92.9097C86.2688 110 79.9247 112.752 75.3868 117.6L46 149" stroke="black" stroke-width="0.5"/>
<path d="M206 34C200 31 185 23 170 22.5C165 22.5 162 25 162 25C162 25 146.521 40.5044 144.659 42.5925H111.341C109.479 40.5044 94 25 94 25C94 25 91 22.5 86 22.5C71 23 56 31 50 34" stroke="black" stroke-width="0.5"/>
<path d="M128.001 15.1204C132.595 15.1185 148.554 15.1962 152.119 15.1208C156.308 15.0321 158.23 13.774 160.5 12.5C164.73 10.2847 167.925 10.0107 167.925 10.0107C180.5 11.5 192.392 17.9138 195 20C197 22 198 24 198 24L200 28M127.999 15.1204C123.405 15.1185 107.446 15.1962 103.881 15.1208C99.6922 15.0321 97.7696 13.774 95.5 12.5C91.2696 10.2847 88.0745 10.0107 88.0745 10.0107C75.5 11.5 63.6077 17.9138 61 20C59 22 58 24 58 24L56 28" stroke="black" stroke-width="0.5"/>
<path d="M153 15L153 20" stroke="black" stroke-width="0.5"/>
<path d="M103 15L103 20" stroke="black" stroke-width="0.5"/>
<circle cx="98" cy="88" r="15.75" stroke="black" stroke-width="0.5"/>
<path d="M102.25 83.5C102.25 83.6381 102.362 83.75 102.5 83.75H109C109.966 83.75 110.75 84.5335 110.75 85.5V90.5C110.75 91.4665 109.966 92.25 109 92.25H102.5C102.362 92.25 102.25 92.3619 102.25 92.5V99C102.25 99.9665 101.466 100.75 100.5 100.75H95.5C94.5335 100.75 93.75 99.9665 93.75 99V92.5C93.75 92.3619 93.6381 92.25 93.5 92.25H87C86.0335 92.25 85.25 91.4665 85.25 90.5V85.5C85.25 84.5335 86.0335 83.75 87 83.75H93.5C93.6381 83.75 93.75 83.6381 93.75 83.5V77C93.75 76.0335 94.5335 75.25 95.5 75.25H100.5C101.466 75.25 102.25 76.0335 102.25 77V83.5Z" stroke="black" stroke-width="0.5" stroke-linejoin="round"/>
<circle cx="182" cy="67" r="6.75" stroke="black" stroke-width="0.5"/>
<path d="M182.906 67.7307L181.945 65.1331L181.003 67.7307H182.906ZM185.5 70.5H183.967L183.359 68.91H180.57L179.995 70.5H178.5L181.217 63.5H182.706L185.5 70.5Z" fill="black"/>
<circle cx="197" cy="52" r="6.75" stroke="black" stroke-width="0.5"/>
<path d="M196.304 52.4491V54.3207H196.918C197.298 54.3207 197.539 54.3063 197.641 54.2776C197.798 54.2397 197.926 54.1464 198.024 53.9981C198.123 53.85 198.172 53.6522 198.172 53.4039C198.172 53.1934 198.134 53.0154 198.058 52.8693C197.982 52.7227 197.872 52.6161 197.728 52.5492C197.585 52.4822 197.273 52.4489 196.793 52.4489H196.304V52.4491H196.304ZM196.304 49.6655V51.284H196.996C197.407 51.284 197.178 51.2759 197.278 51.26C197.458 51.2315 197.6 51.1477 197.704 51.0093C197.807 50.8707 197.858 50.6887 197.858 50.4627C197.858 50.2462 197.814 50.0703 197.725 49.935C197.636 49.7996 197.504 49.7176 197.328 49.689C197.223 49.6732 197.407 49.6655 196.91 49.6655H196.304ZM195.25 48.5H197.338C197.751 48.5 197.842 48.5234 198.044 48.5697C198.248 48.6157 198.43 48.712 198.59 48.8582C198.75 49.0046 198.884 49.1996 198.991 49.4433C199.097 49.687 199.151 49.9601 199.151 50.2623C199.151 50.5899 199.085 50.8906 198.953 51.1647C198.821 51.4383 198.642 51.6437 198.417 51.7807C198.735 51.9047 199.198 52.1163 199.369 52.4156C199.539 52.7147 199.625 53.0665 199.625 53.4708C199.625 53.7892 199.57 54.0982 199.46 54.3991C199.349 54.6998 199.198 54.9402 199.007 55.1203C198.816 55.3001 198.58 55.4104 198.3 55.4524C198.124 55.4776 197.7 55.4936 197.028 55.5H195.25V48.5Z" fill="black"/>
<circle cx="167" cy="52" r="6.75" stroke="black" stroke-width="0.5"/>
<path d="M163.5 55.5L166.073 51.8471L163.742 48.5H165.518L167.028 50.7492L168.507 48.5H170.269L167.927 51.8998L170.5 55.5H168.666L166.998 53.079L165.323 55.5H163.5Z" fill="black"/>
<circle cx="182" cy="37" r="6.75" stroke="black" stroke-width="0.5"/>
<path d="M181.242 40.4998V37.5541L178.5 33.5H180.272L182.033 36.2692L183.759 33.5H185.5L182.748 37.5631V40.5L181.242 40.4998Z" fill="black"/>
<circle cx="128" cy="32" r="7.75" stroke="black" stroke-width="0.5"/>
<path d="M130.124 28.5643C131.733 26.5277 133.301 26.2191 133.301 26.2191C133.032 25.9105 132.289 25.4579 132.289 25.4579C130.801 25.1064 128.255 26.4779 128 26.6184C127.745 26.4779 125.199 25.1064 123.711 25.4579C123.711 25.4579 122.968 25.9105 122.7 26.2191C122.7 26.2191 124.268 26.5277 125.877 28.5643C125.877 28.5643 120.925 34.5503 121.936 37.1011C121.936 37.1011 122.184 37.4714 122.576 37.8005C122.576 37.8005 121.732 35.5636 128 30.3929C134.268 35.5636 133.425 37.8005 133.425 37.8005C133.816 37.4714 134.064 37.1011 134.064 37.1011C135.075 34.5502 130.124 28.5643 130.124 28.5643Z" fill="black"/>
<circle cx="143" cy="52" r="4.75" stroke="black" stroke-width="0.5"/>
<path d="M141 52H145" stroke="black" stroke-width="0.5"/>
<path d="M141 50.5H145" stroke="black" stroke-width="0.5"/>
<path d="M141 53.5H145" stroke="black" stroke-width="0.5"/>
<circle cx="113" cy="52" r="4.75" stroke="black" stroke-width="0.5"/>
<path d="M115.75 53.75H112.25V51.25H115.75V53.75Z" stroke="black" stroke-width="0.5"/>
<path d="M113.5 50H110.5V52H111.5V52.5H110V49.5H114V50.5H113.5V50Z" fill="black"/>
<circle cx="74" cy="52" r="15.75" stroke="black" stroke-width="0.5"/>
<circle cx="74" cy="52" r="11.5" stroke="black"/>
<circle cx="74" cy="52" r="8.75" stroke="black" stroke-width="0.5"/>
<circle cx="156" cy="88" r="15.75" stroke="black" stroke-width="0.5"/>
<circle cx="156" cy="88" r="11.5" stroke="black"/>
<circle cx="156" cy="88" r="8.75" stroke="black" stroke-width="0.5"/>
</svg>
