<svg width="256" height="160" viewBox="0 0 256 160" fill="none" xmlns="http://www.w3.org/2000/svg">
<path d="M155 17C157.555 17 173.5 18.625 179 20C193 23 202 29.0226 204.5 31.5C206.014 33 208 37.5 208 37.5C208 37.5 219.587 68.9713 223.975 84.0508C228.364 99.1303 231.77 116.124 228.998 130.043C226.227 143.963 212.427 149.183 209.309 149.009C209.309 149.009 208.421 149.168 207.187 148.298C205.953 147.428 199.435 141.991 192.795 135.089C186.155 128.188 173.394 114.558 164.848 114.036C161.196 113.812 129.489 113.834 128 113.829C126.511 113.834 94.8039 113.812 91.1517 114.036C82.6062 114.558 69.8451 128.188 63.2051 135.089C56.565 141.991 50.0474 147.428 48.8132 148.298C47.579 149.168 46.6911 149.009 46.6911 149.009C43.5731 149.183 29.773 143.963 27.0015 130.043C24.2298 116.124 27.6364 99.1303 32.0248 84.0508C36.4133 68.9713 48 37.5 48 37.5C48 37.5 49.9863 33 51.5 31.5C54 29.0226 63 23 77 20C82.5 18.625 98.4451 17 101 17" stroke="black" stroke-width="0.5"/>
<path d="M210 149L180.613 117.6C176.075 112.752 169.731 110 163.09 110H92.9097C86.2688 110 79.9247 112.752 75.3868 117.6L46 149" stroke="black" stroke-width="0.5"/>
<path d="M208 37.5C206 33 193 25 179 22C173.5 20.625 157.555 19 155 19H101C98.4451 19 82.5 20.625 77 22C63 25 50 33 48 37.5" stroke="black" stroke-width="0.5"/>
<path d="M204.5 31.5L202.863 25.77C202.623 24.929 202.264 24.1238 201.685 23.4684C196.562 17.6704 181.897 11.1057 170.727 10.1251C168.961 9.97015 167.244 10.5927 165.806 11.6287C164.228 12.7662 162.068 14.25 160.27 15.226C157 17 155 17 155 17C155 17 132.594 16.9982 128 17C123.406 16.9982 101 17 101 17C101 17 99 17 95.7304 15.226C93.9317 14.25 91.7724 12.7662 90.1937 11.6287C88.7558 10.5927 87.0386 9.97015 85.2731 10.1251C74.1032 11.1057 59.4384 17.6704 54.3147 23.4684C53.7356 24.1238 53.3774 24.929 53.1372 25.77L51.5 31.5" stroke="black" stroke-width="0.5"/>
<circle cx="98" cy="88" r="15.5" stroke="black"/>
<rect x="93" y="83" width="10" height="10" stroke="black" stroke-width="0.5"/>
<path d="M103 75V83H111" stroke="black" stroke-width="0.5" stroke-linecap="round"/>
<path d="M93 75V83H85" stroke="black" stroke-width="0.5" stroke-linecap="round"/>
<path d="M103 101V93H111" stroke="black" stroke-width="0.5" stroke-linecap="round"/>
<path d="M93 101V93H85" stroke="black" stroke-width="0.5" stroke-linecap="round"/>
<circle cx="182" cy="67" r="6.75" stroke="black" stroke-width="0.5"/>
<path d="M182.906 67.7307L181.945 65.1331L181.003 67.7307H182.906ZM185.5 70.5H183.967L183.359 68.91H180.57L179.995 70.5H178.5L181.217 63.5H182.706L185.5 70.5Z" fill="black"/>
<circle cx="197" cy="52" r="6.75" stroke="black" stroke-width="0.5"/>
<path d="M196.304 52.4491V54.3207H196.918C197.298 54.3207 197.539 54.3063 197.641 54.2776C197.798 54.2397 197.926 54.1464 198.024 53.9981C198.123 53.85 198.172 53.6522 198.172 53.4039C198.172 53.1934 198.134 53.0154 198.058 52.8693C197.982 52.7227 197.872 52.6161 197.728 52.5492C197.585 52.4822 197.273 52.4489 196.793 52.4489H196.304V52.4491H196.304ZM196.304 49.6655V51.284H196.996C197.407 51.284 197.178 51.2759 197.278 51.26C197.458 51.2315 197.6 51.1477 197.704 51.0093C197.807 50.8707 197.858 50.6887 197.858 50.4627C197.858 50.2462 197.814 50.0703 197.725 49.935C197.636 49.7996 197.504 49.7176 197.328 49.689C197.223 49.6732 197.407 49.6655 196.91 49.6655H196.304ZM195.25 48.5H197.338C197.751 48.5 197.842 48.5234 198.044 48.5697C198.248 48.6157 198.43 48.712 198.59 48.8582C198.75 49.0046 198.884 49.1996 198.991 49.4433C199.097 49.687 199.151 49.9601 199.151 50.2623C199.151 50.5899 199.085 50.8906 198.953 51.1647C198.821 51.4383 198.642 51.6437 198.417 51.7807C198.735 51.9047 199.198 52.1163 199.369 52.4156C199.539 52.7147 199.625 53.0665 199.625 53.4708C199.625 53.7892 199.57 54.0982 199.46 54.3991C199.349 54.6998 199.198 54.9402 199.007 55.1203C198.816 55.3001 198.58 55.4104 198.3 55.4524C198.124 55.4776 197.7 55.4936 197.028 55.5H195.25V48.5Z" fill="black"/>
<circle cx="167" cy="52" r="6.75" stroke="black" stroke-width="0.5"/>
<path d="M163.5 55.5L166.073 51.8471L163.742 48.5H165.518L167.028 50.7492L168.507 48.5H170.269L167.927 51.8998L170.5 55.5H168.666L166.998 53.079L165.323 55.5H163.5Z" fill="black"/>
<circle cx="182" cy="37" r="6.75" stroke="black" stroke-width="0.5"/>
<path d="M181.242 40.4998V37.5541L178.5 33.5H180.272L182.033 36.2692L183.759 33.5H185.5L182.748 37.5631V40.5L181.242 40.4998Z" fill="black"/>
<circle cx="128" cy="32" r="7.75" stroke="black" stroke-width="0.5"/>
<path d="M130.124 28.5643C131.733 26.5277 133.301 26.2191 133.301 26.2191C133.032 25.9105 132.289 25.4579 132.289 25.4579C130.801 25.1065 128.255 26.4779 128 26.6184C127.745 26.4779 125.199 25.1065 123.711 25.4579C123.711 25.4579 122.968 25.9105 122.7 26.2191C122.7 26.2191 124.268 26.5277 125.877 28.5643C125.877 28.5643 120.925 34.5504 121.936 37.1011C121.936 37.1011 122.184 37.4714 122.576 37.8005C122.576 37.8005 121.732 35.5636 128 30.3929C134.268 35.5636 133.425 37.8005 133.425 37.8005C133.816 37.4714 134.064 37.1011 134.064 37.1011C135.075 34.5502 130.124 28.5643 130.124 28.5643Z" fill="black"/>
<rect x="121.25" y="61.25" width="13.5" height="7.5" rx="3.75" stroke="black" stroke-width="0.5"/>
<path d="M125.5 65V66.5H130.5V65" stroke="black" stroke-width="0.5"/>
<path d="M128 65.5V63" stroke="black" stroke-width="0.5"/>
<path d="M127 64L128 63L129 64" stroke="black" stroke-width="0.5"/>
<circle cx="143" cy="52" r="4.75" stroke="black" stroke-width="0.5"/>
<path d="M141 52H145" stroke="black" stroke-width="0.5"/>
<path d="M141 50.5H145" stroke="black" stroke-width="0.5"/>
<path d="M141 53.5H145" stroke="black" stroke-width="0.5"/>
<circle cx="113" cy="52" r="4.75" stroke="black" stroke-width="0.5"/>
<path d="M115.75 53.75H112.25V51.25H115.75V53.75Z" stroke="black" stroke-width="0.5"/>
<path d="M113.5 50H110.5V52H111.5V52.5H110V49.5H114V50.5H113.5V50Z" fill="black"/>
<circle cx="74" cy="52" r="15.75" stroke="black" stroke-width="0.5"/>
<circle cx="74" cy="52" r="11.5" stroke="black"/>
<circle cx="74" cy="52" r="8.75" stroke="black" stroke-width="0.5"/>
<circle cx="156" cy="88" r="15.75" stroke="black" stroke-width="0.5"/>
<circle cx="156" cy="88" r="11.5" stroke="black"/>
<circle cx="156" cy="88" r="8.75" stroke="black" stroke-width="0.5"/>
</svg>
