<svg width="256" height="160" viewBox="0 0 256 160" fill="none" xmlns="http://www.w3.org/2000/svg">
<path fill-rule="evenodd" clip-rule="evenodd" d="M223.975 84.0508C219.808 69.7329 209.152 40.6371 208.086 37.7347C207.964 37.7799 207.825 37.7226 207.772 37.6015C207.296 36.5306 206.145 35.2171 204.434 33.7938C202.73 32.3761 200.493 30.8689 197.878 29.4057C192.647 26.4791 185.921 23.7387 178.948 22.2445L178.939 22.2425C176.208 21.5596 170.862 20.8111 165.867 20.2327C160.87 19.6541 156.26 19.25 155 19.25H101C99.7398 19.25 95.1302 19.6541 90.1332 20.2327C85.1378 20.8111 79.7924 21.5596 77.0606 22.2425L77.0524 22.2445C70.0793 23.7387 63.3526 26.4791 58.1221 29.4057C55.5069 30.8689 53.2703 32.3761 51.5661 33.7938C49.855 35.2171 48.7044 36.5306 48.2284 37.6015C48.1746 37.7226 48.0363 37.7799 47.9137 37.7347C46.848 40.6371 36.1917 69.7329 32.0248 84.0508C27.6363 99.1303 24.2298 116.124 27.0015 130.043C29.773 143.963 43.5731 149.183 46.6911 149.009C46.6911 149.009 47.579 149.168 48.8132 148.298C50.0474 147.428 56.565 141.991 63.2051 135.089C63.464 134.82 63.7322 134.541 64.0091 134.252C70.8339 127.145 82.9394 114.538 91.1517 114.036C94.3554 113.84 119.147 113.832 126.193 113.83H126.215C127.188 113.83 127.819 113.829 128 113.829C128.106 113.829 128.364 113.829 128.754 113.829L129.785 113.83H129.807C136.853 113.832 161.645 113.84 164.848 114.036C173.061 114.538 185.166 127.145 191.991 134.252L191.994 134.255C192.27 134.543 192.537 134.821 192.795 135.089C199.435 141.991 205.953 147.428 207.187 148.298C208.421 149.168 209.309 149.009 209.309 149.009C212.427 149.183 226.227 143.963 228.998 130.043C231.77 116.124 228.364 99.1303 223.975 84.0508ZM204.754 33.4094C205.743 34.2326 206.568 35.0355 207.19 35.7929C206.473 34.3553 205.403 32.3944 204.5 31.5C202 29.0226 193 23 179 20C173.5 18.625 157.555 17 155 17H101C98.4451 17 82.5 18.625 77 20C63 23 54 29.0226 51.5 31.5C50.5975 32.3944 49.5269 34.3552 48.8096 35.7929C49.4319 35.0355 50.2566 34.2326 51.2464 33.4094C52.9796 31.9676 55.2431 30.4436 57.8779 28.9693C63.1463 26.0215 69.9181 23.2624 76.9435 21.7564C79.7129 21.0647 85.0872 20.3136 90.0757 19.736C95.0649 19.1584 99.7053 18.75 101 18.75H155C156.295 18.75 160.935 19.1584 165.924 19.736C170.913 20.3136 176.287 21.0647 179.057 21.7564C186.082 23.2624 192.854 26.0215 198.122 28.9693C200.757 30.4436 203.02 31.9676 204.754 33.4094ZM92.9097 109.75C86.1996 109.75 79.7894 112.53 75.2043 117.43L46.3174 148.329C46.2231 148.43 46.2284 148.588 46.3293 148.683C46.4301 148.777 46.5883 148.772 46.6826 148.671L75.5695 117.771C80.0601 112.973 86.338 110.25 92.9097 110.25H163.09C169.662 110.25 175.94 112.973 180.431 117.771L209.317 148.671C209.412 148.772 209.57 148.777 209.671 148.683C209.772 148.588 209.777 148.43 209.683 148.329L180.796 117.43C176.211 112.53 169.8 109.75 163.09 109.75H92.9097ZM188.5 67C188.5 70.5899 185.59 73.5 182 73.5C178.41 73.5 175.5 70.5899 175.5 67C175.5 63.4101 178.41 60.5 182 60.5C185.59 60.5 188.5 63.4101 188.5 67ZM189 67C189 70.866 185.866 74 182 74C178.134 74 175 70.866 175 67C175 63.134 178.134 60 182 60C185.866 60 189 63.134 189 67ZM182.906 67.7307L181.945 65.1331L181.003 67.7307H182.906ZM185.5 70.5H183.967L183.359 68.91H180.57L179.995 70.5H178.5L181.217 63.5H182.706L185.5 70.5ZM203.5 52C203.5 55.5899 200.59 58.5 197 58.5C193.41 58.5 190.5 55.5899 190.5 52C190.5 48.4101 193.41 45.5 197 45.5C200.59 45.5 203.5 48.4101 203.5 52ZM204 52C204 55.866 200.866 59 197 59C193.134 59 190 55.866 190 52C190 48.134 193.134 45 197 45C200.866 45 204 48.134 204 52ZM196.304 52.4491V54.3207H196.918C197.298 54.3207 197.539 54.3063 197.641 54.2776C197.798 54.2397 197.926 54.1464 198.024 53.9981C198.123 53.85 198.172 53.6522 198.172 53.4039C198.172 53.1934 198.134 53.0154 198.058 52.8693C197.982 52.7227 197.872 52.6161 197.728 52.5492C197.585 52.4822 197.273 52.4489 196.793 52.4489H196.304V52.4491H196.304ZM196.304 49.6655V51.284H196.996C197.264 51.284 197.26 51.2806 197.252 51.2738C197.248 51.2701 197.243 51.2655 197.278 51.26C197.458 51.2315 197.6 51.1477 197.704 51.0093C197.807 50.8707 197.858 50.6887 197.858 50.4627C197.858 50.2462 197.814 50.0703 197.725 49.935C197.636 49.7996 197.504 49.7176 197.328 49.689C197.298 49.6845 197.292 49.6807 197.286 49.6775C197.273 49.6694 197.266 49.6655 196.91 49.6655H196.304ZM195.25 48.5H197.338C197.74 48.5 197.836 48.5221 198.028 48.5659L198.044 48.5697C198.248 48.6157 198.43 48.712 198.59 48.8582C198.75 49.0046 198.884 49.1996 198.991 49.4433C199.097 49.687 199.151 49.9601 199.151 50.2623C199.151 50.5899 199.085 50.8906 198.953 51.1647C198.821 51.4383 198.642 51.6437 198.417 51.7807C198.735 51.9047 199.198 52.1163 199.369 52.4156C199.539 52.7147 199.625 53.0665 199.625 53.4708C199.625 53.7892 199.57 54.0982 199.46 54.3991C199.349 54.6998 199.198 54.9402 199.007 55.1203C198.816 55.3001 198.58 55.4104 198.299 55.4524C198.124 55.4776 197.7 55.4936 197.028 55.5H195.25V48.5ZM173.5 52C173.5 55.5899 170.59 58.5 167 58.5C163.41 58.5 160.5 55.5899 160.5 52C160.5 48.4101 163.41 45.5 167 45.5C170.59 45.5 173.5 48.4101 173.5 52ZM174 52C174 55.866 170.866 59 167 59C163.134 59 160 55.866 160 52C160 48.134 163.134 45 167 45C170.866 45 174 48.134 174 52ZM163.5 55.5L166.073 51.8471L163.742 48.5H165.518L167.028 50.7492L168.507 48.5H170.269L167.927 51.8998L170.5 55.5H168.666L166.997 53.079L165.323 55.5H163.5ZM188.5 37C188.5 40.5899 185.59 43.5 182 43.5C178.41 43.5 175.5 40.5899 175.5 37C175.5 33.4101 178.41 30.5 182 30.5C185.59 30.5 188.5 33.4101 188.5 37ZM189 37C189 40.866 185.866 44 182 44C178.134 44 175 40.866 175 37C175 33.134 178.134 30 182 30C185.866 30 189 33.134 189 37ZM181.242 40.4998V37.5541L178.5 33.5H180.272L182.033 36.2692L183.759 33.5H185.5L182.748 37.5631V40.5L181.242 40.4998ZM147.5 52C147.5 54.4853 145.485 56.5 143 56.5C140.515 56.5 138.5 54.4853 138.5 52C138.5 49.5147 140.515 47.5 143 47.5C145.485 47.5 147.5 49.5147 147.5 52ZM148 52C148 54.7614 145.761 57 143 57C140.239 57 138 54.7614 138 52C138 49.2386 140.239 47 143 47C145.761 47 148 49.2386 148 52ZM141 50.75H145V50.25H141V50.75ZM145 53.75H141V53.25H145V53.75ZM117.5 52C117.5 54.4853 115.485 56.5 113 56.5C110.515 56.5 108.5 54.4853 108.5 52C108.5 49.5147 110.515 47.5 113 47.5C115.485 47.5 117.5 49.5147 117.5 52ZM118 52C118 54.7614 115.761 57 113 57C110.239 57 108 54.7614 108 52C108 49.2386 110.239 47 113 47C115.761 47 118 49.2386 118 52ZM112.5 53.5H115.5V51.5H112.5V53.5ZM115.5 54H116V53.5V51.5V51H115.5H112.5H112V51.5V53.5V54H112.5H115.5ZM110.5 50H113.5V50.5H114V49.5H110V52.5H111.5V52H110.5V50ZM134.199 36.2234C135.02 35.0205 135.5 33.5663 135.5 32C135.5 29.7408 134.501 27.7149 132.921 26.3399C132.359 26.5582 131.251 27.1367 130.124 28.5643C130.124 28.5643 134.116 33.3914 134.199 36.2234ZM133.436 37.1673C132.07 38.6042 130.139 39.5 128 39.5C125.861 39.5 123.931 38.6044 122.564 37.1677C122.716 36.1795 123.628 34.0001 128 30.3929C132.372 33.9997 133.284 36.179 133.436 37.1673ZM121.801 36.2234C120.98 35.0205 120.5 33.5663 120.5 32C120.5 29.7408 121.499 27.7148 123.079 26.3398C123.641 26.5581 124.749 27.1366 125.877 28.5643C125.877 28.5643 121.884 33.3916 121.801 36.2234ZM124.425 25.4052C125.898 25.4831 127.783 26.4986 128 26.6184C128.217 26.4986 130.102 25.4831 131.575 25.4052C130.512 24.8279 129.294 24.5 128 24.5C126.706 24.5 125.488 24.8279 124.425 25.4052ZM128 40C132.418 40 136 36.4183 136 32C136 27.5817 132.418 24 128 24C123.582 24 120 27.5817 120 32C120 36.4183 123.582 40 128 40ZM131 61.5H125C123.067 61.5 121.5 63.067 121.5 65C121.5 66.933 123.067 68.5 125 68.5H131C132.933 68.5 134.5 66.933 134.5 65C134.5 63.067 132.933 61.5 131 61.5ZM125 61C122.791 61 121 62.7909 121 65C121 67.2091 122.791 69 125 69H131C133.209 69 135 67.2091 135 65C135 62.7909 133.209 61 131 61H125ZM125.25 65V66.5V66.75H125.5H130.5H130.75V66.5V65H130.25V66.25H125.75V65H125.25ZM128.25 63.6036V65.5H127.75V63.6036L127.177 64.1768L126.823 63.8232L127.823 62.8232L128 62.6464L128.177 62.8232L129.177 63.8232L128.823 64.1768L128.25 63.6036ZM74 67.5C82.5604 67.5 89.5 60.5604 89.5 52C89.5 43.4396 82.5604 36.5 74 36.5C65.4396 36.5 58.5 43.4396 58.5 52C58.5 60.5604 65.4396 67.5 74 67.5ZM74 68C82.8365 68 90 60.8366 90 52C90 43.1634 82.8365 36 74 36C65.1634 36 58 43.1634 58 52C58 60.8366 65.1634 68 74 68ZM85 52C85 58.0751 80.0751 63 74 63C67.9249 63 63 58.0751 63 52C63 45.9249 67.9249 41 74 41C80.0751 41 85 45.9249 85 52ZM86 52C86 58.6274 80.6274 64 74 64C67.3726 64 62 58.6274 62 52C62 45.3726 67.3726 40 74 40C80.6274 40 86 45.3726 86 52ZM74 60.5C78.6944 60.5 82.5 56.6944 82.5 52C82.5 47.3056 78.6944 43.5 74 43.5C69.3056 43.5 65.5 47.3056 65.5 52C65.5 56.6944 69.3056 60.5 74 60.5ZM74 61C78.9706 61 83 56.9706 83 52C83 47.0294 78.9706 43 74 43C69.0294 43 65 47.0294 65 52C65 56.9706 69.0294 61 74 61ZM171.5 88C171.5 96.5604 164.56 103.5 156 103.5C147.44 103.5 140.5 96.5604 140.5 88C140.5 79.4396 147.44 72.5 156 72.5C164.56 72.5 171.5 79.4396 171.5 88ZM172 88C172 96.8366 164.837 104 156 104C147.163 104 140 96.8366 140 88C140 79.1634 147.163 72 156 72C164.837 72 172 79.1634 172 88ZM156 99C162.075 99 167 94.0751 167 88C167 81.9249 162.075 77 156 77C149.925 77 145 81.9249 145 88C145 94.0751 149.925 99 156 99ZM156 100C162.627 100 168 94.6274 168 88C168 81.3726 162.627 76 156 76C149.373 76 144 81.3726 144 88C144 94.6274 149.373 100 156 100ZM164.5 88C164.5 92.6944 160.694 96.5 156 96.5C151.306 96.5 147.5 92.6944 147.5 88C147.5 83.3056 151.306 79.5 156 79.5C160.694 79.5 164.5 83.3056 164.5 88ZM165 88C165 92.9706 160.971 97 156 97C151.029 97 147 92.9706 147 88C147 83.0294 151.029 79 156 79C160.971 79 165 83.0294 165 88ZM98 103C106.284 103 113 96.2843 113 88C113 79.7157 106.284 73 98 73C89.7157 73 83 79.7157 83 88C83 96.2843 89.7157 103 98 103ZM98 104C106.837 104 114 96.8366 114 88C114 79.1634 106.837 72 98 72C89.1634 72 82 79.1634 82 88C82 96.8366 89.1634 104 98 104ZM93.25 75C93.25 74.8619 93.1381 74.75 93 74.75C92.8619 74.75 92.75 74.8619 92.75 75V82.75H85C84.8619 82.75 84.75 82.8619 84.75 83C84.75 83.1381 84.8619 83.25 85 83.25H92.75V92.75H85C84.8619 92.75 84.75 92.8619 84.75 93C84.75 93.1381 84.8619 93.25 85 93.25H92.75V101C92.75 101.138 92.8619 101.25 93 101.25C93.1381 101.25 93.25 101.138 93.25 101V93.25H102.75V101C102.75 101.138 102.862 101.25 103 101.25C103.138 101.25 103.25 101.138 103.25 101V93.25H111C111.138 93.25 111.25 93.1381 111.25 93C111.25 92.8619 111.138 92.75 111 92.75H103.25V83.25H111C111.138 83.25 111.25 83.1381 111.25 83C111.25 82.8619 111.138 82.75 111 82.75H103.25V75C103.25 74.8619 103.138 74.75 103 74.75C102.862 74.75 102.75 74.8619 102.75 75V82.75H93.25V75ZM145 52.25H141V51.75H145V52.25ZM93.25 92.75V83.25H102.75V92.75H93.25Z" fill="black"/>
<path fill-rule="evenodd" clip-rule="evenodd" d="M155 17C155 17 132.594 16.9982 128 17H155ZM101 17H128C123.406 16.9982 101 17 101 17ZM51.5 31.5L53.1372 25.77C53.3774 24.929 53.7356 24.1238 54.3147 23.4684C59.4384 17.6704 74.1032 11.1057 85.2731 10.1251C87.0386 9.97015 88.7558 10.5927 90.1937 11.6287C91.7724 12.7662 93.9317 14.25 95.7304 15.226C99 17 101 17 101 17C98.4451 17 82.5 18.625 77 20C63 23 54 29.0226 51.5 31.5ZM204.5 31.5L202.863 25.77C202.623 24.929 202.264 24.1238 201.685 23.4684C196.562 17.6704 181.897 11.1057 170.727 10.1251C168.961 9.97015 167.244 10.5927 165.806 11.6287C164.228 12.7662 162.068 14.25 160.27 15.226C157 17 155 17 155 17C157.555 17 173.5 18.625 179 20C193 23 202 29.0226 204.5 31.5Z" fill="black"/>
</svg>
