<svg width="32" height="32" viewBox="0 0 32 32" fill="none" xmlns="http://www.w3.org/2000/svg">
<path fill-rule="evenodd" clip-rule="evenodd" d="M3 9C1.34315 9 0 10.3431 0 12C0 13.6569 1.34315 15 3 15H6V28H26V15H29C30.6569 15 32 13.6569 32 12C32 10.3431 30.6569 9 29 9H3ZM10.7699 24H8.66051V15.2727H12.2656C14.2259 15.2727 15.4489 16.3849 15.4489 18.179C15.4489 19.3849 14.8949 20.2415 13.9361 20.6761L15.7472 24H13.446L11.8523 21.0128H10.7699V24ZM10.7699 16.973V19.3509H11.8097C12.7557 19.3509 13.2628 18.9886 13.2628 18.179C13.2628 17.3693 12.7557 16.973 11.8097 16.973H10.7699ZM23.4027 21.5199C23.407 23.0369 21.9538 24.1193 19.9084 24.1193C17.9141 24.1193 16.495 23.0114 16.478 21.4347H18.6001C18.6214 22.0099 19.1712 22.4062 19.9169 22.4062C20.6669 22.4062 21.1953 21.9759 21.1868 21.358C21.1953 20.7443 20.62 20.3097 19.7379 20.3097H18.8899V18.8097H19.7379C20.5135 18.8097 21.0504 18.392 21.0462 17.7869C21.0504 17.2031 20.5945 16.7983 19.9254 16.7983C19.2223 16.7983 18.6854 17.1989 18.6683 17.7955H16.6527C16.6697 16.2443 18.0419 15.1534 19.9254 15.1534C21.7962 15.1534 23.0831 16.2273 23.0788 17.6506C23.0831 18.6307 22.3672 19.3082 21.3572 19.4531V19.5213C22.7038 19.679 23.407 20.446 23.4027 21.5199Z" fill="black"/>
<path d="M16.7071 7.29289C16.3166 7.68342 15.6834 7.68342 15.2929 7.29289L11.7071 3.70711C11.0771 3.07714 11.5233 2 12.4142 2L19.5858 2C20.4767 2 20.9229 3.07714 20.2929 3.70711L16.7071 7.29289Z" fill="black"/>
</svg>
