<svg width="32" height="32" viewBox="0 0 32 32" fill="none" xmlns="http://www.w3.org/2000/svg">
<path fill-rule="evenodd" clip-rule="evenodd" d="M16 32C24.8366 32 32 24.8366 32 16C32 7.16344 24.8366 0 16 0C7.16344 0 0 7.16344 0 16C0 24.8366 7.16344 32 16 32ZM16 10.2251L21.9262 21H10.0738L16 10.2251ZM6.63011 21.0362L14.2476 7.18624C15.0074 5.80469 16.9926 5.80469 17.7524 7.18624L25.3699 21.0362C26.103 22.3691 25.1387 24 23.6175 24H8.38254C6.86134 24 5.89701 22.3691 6.63011 21.0362Z" fill="black"/>
</svg>
