<svg width="32" height="32" viewBox="0 0 32 32" fill="none" xmlns="http://www.w3.org/2000/svg">
<path fill-rule="evenodd" clip-rule="evenodd" d="M28.5539 23.7034L31.337 12.1637C31.7344 10.5161 31.0502 8.79687 29.6294 7.87277L29 7.46342C26 5.51219 6 5.51219 3 7.46342L2.37062 7.87277C0.949818 8.79687 0.26565 10.5161 0.663023 12.1637L3.44611 23.7034C3.77104 25.0506 4.97657 26 6.36249 26H25.6375C27.0234 26 28.229 25.0507 28.5539 23.7034ZM8.29289 13.2929C7.90237 13.6834 7.90237 14.3166 8.29289 14.7071L11.2929 17.7071C11.6834 18.0976 12.3166 18.0976 12.7071 17.7071C13.0976 17.3166 13.0976 16.6834 12.7071 16.2929L11.4142 15L15 15C15.5523 15 16 14.5523 16 14C16 13.4477 15.5523 13 15 13L11.4142 13L12.7071 11.7071C13.0976 11.3166 13.0976 10.6834 12.7071 10.2929C12.3166 9.90237 11.6834 9.90237 11.2929 10.2929L8.29289 13.2929ZM16.2929 18.7071C15.9024 18.3166 15.9024 17.6834 16.2929 17.2929L19.2929 14.2929C19.6834 13.9024 20.3166 13.9024 20.7071 14.2929C21.0976 14.6834 21.0976 15.3166 20.7071 15.7071L19.4142 17H23C23.5523 17 24 17.4477 24 18C24 18.5523 23.5523 19 23 19L19.4142 19L20.7071 20.2929C21.0976 20.6834 21.0976 21.3166 20.7071 21.7071C20.3166 22.0976 19.6834 22.0976 19.2929 21.7071L16.2929 18.7071Z" fill="black"/>
</svg>
