<svg width="32" height="32" viewBox="0 0 32 32" fill="none" xmlns="http://www.w3.org/2000/svg">
<path fill-rule="evenodd" clip-rule="evenodd" d="M14 0C7.37258 0 2 5.37258 2 12V32H30V16C30 7.16344 22.8366 0 14 0ZM10.2315 23H7.7706V12.8182H11.9766C14.2635 12.8182 15.6903 14.1158 15.6903 16.2088C15.6903 17.6158 15.044 18.6151 13.9254 19.1222L16.0384 23H13.3537L11.4943 19.5149H10.2315V23ZM10.2315 14.8018V17.576H11.4446C12.5483 17.576 13.1399 17.1534 13.1399 16.2088C13.1399 15.2642 12.5483 14.8018 11.4446 14.8018H10.2315ZM24.5572 23H17.0202V21.2301L20.734 17.9787C21.5692 17.228 22.0465 16.7109 22.0465 15.9503C22.0465 15.1101 21.445 14.598 20.6147 14.598C19.7695 14.598 19.2028 15.13 19.2028 16.0497H16.8711C16.8661 13.9766 18.3725 12.679 20.6246 12.679C22.9364 12.679 24.4329 13.9219 24.4329 15.7564C24.4329 16.9247 23.8562 17.9041 21.6488 19.8281L20.4308 20.9517V21.0163H24.5572V23Z" fill="black"/>
</svg>
