<svg width="32" height="32" viewBox="0 0 32 32" fill="none" xmlns="http://www.w3.org/2000/svg">
<path fill-rule="evenodd" clip-rule="evenodd" d="M18 0C9.16344 0 2 7.16344 2 16V32H30V12C30 5.37258 24.6274 0 18 0ZM15.4673 23H8.7706V12.8182H11.2315V21.0014H15.4673V23ZM24.2583 23H16.7214V21.2301L20.4352 17.9787C21.2704 17.228 21.7477 16.7109 21.7477 15.9503C21.7477 15.1101 21.1461 14.598 20.3159 14.598C19.4707 14.598 18.9039 15.13 18.9039 16.0497H16.5723C16.5673 13.9766 18.0737 12.679 20.3258 12.679C22.6376 12.679 24.1341 13.9219 24.1341 15.7564C24.1341 16.9247 23.5574 17.9041 21.35 19.8281L20.1319 20.9517V21.0163H24.2583V23Z" fill="black"/>
</svg>
