<svg width="32" height="32" viewBox="0 0 32 32" fill="none" xmlns="http://www.w3.org/2000/svg">
<path fill-rule="evenodd" clip-rule="evenodd" d="M28.5539 23.7034L31.337 12.1637C31.7344 10.5161 31.0502 8.79687 29.6294 7.87277L29 7.46342C26 5.51219 6 5.51219 3 7.46342L2.37061 7.87277C0.949811 8.79687 0.265642 10.5161 0.663016 12.1637L3.4461 23.7034C3.77104 25.0506 4.97657 26 6.36248 26H25.6375C27.0234 26 28.229 25.0507 28.5539 23.7034ZM15.7071 18.7071C16.0976 18.3166 16.0976 17.6834 15.7071 17.2929L12.7071 14.2929C12.3166 13.9024 11.6834 13.9024 11.2929 14.2929C10.9024 14.6834 10.9024 15.3166 11.2929 15.7071L12.5858 17H9C8.44771 17 8 17.4477 8 18C8 18.5523 8.44771 19 9 19H12.5858L11.2929 20.2929C10.9024 20.6834 10.9024 21.3166 11.2929 21.7071C11.6834 22.0976 12.3166 22.0976 12.7071 21.7071L15.7071 18.7071ZM23.7071 13.2929C24.0976 13.6834 24.0976 14.3166 23.7071 14.7071L20.7071 17.7071C20.3166 18.0976 19.6834 18.0976 19.2929 17.7071C18.9024 17.3166 18.9024 16.6834 19.2929 16.2929L20.5858 15H17C16.4477 15 16 14.5523 16 14C16 13.4477 16.4477 13 17 13H20.5858L19.2929 11.7071C18.9024 11.3166 18.9024 10.6834 19.2929 10.2929C19.6834 9.90237 20.3166 9.90237 20.7071 10.2929L23.7071 13.2929Z" fill="black"/>
</svg>
