<svg width="32" height="32" viewBox="0 0 32 32" fill="none" xmlns="http://www.w3.org/2000/svg">
<path fill-rule="evenodd" clip-rule="evenodd" d="M28.5539 23.7034L31.337 12.1637C31.7344 10.5161 31.0502 8.79687 29.6294 7.87277L29 7.46342C26 5.51219 6 5.51219 3 7.46342L2.37062 7.87277C0.949814 8.79687 0.265646 10.5161 0.66302 12.1637L3.44611 23.7034C3.77104 25.0506 4.97657 26 6.36249 26H25.6375C27.0234 26 28.229 25.0507 28.5539 23.7034ZM12.7071 10.2929C12.3166 9.90237 11.6834 9.90237 11.2929 10.2929L8.29289 13.2929C7.90237 13.6834 7.90237 14.3166 8.29289 14.7071C8.68342 15.0976 9.31658 15.0976 9.70711 14.7071L11 13.4142V17C11 17.5523 11.4477 18 12 18C12.5523 18 13 17.5523 13 17V13.4142L14.2929 14.7071C14.6834 15.0976 15.3166 15.0976 15.7071 14.7071C16.0976 14.3166 16.0976 13.6834 15.7071 13.2929L12.7071 10.2929ZM19.2929 14.2929C19.6834 13.9024 20.3166 13.9024 20.7071 14.2929L23.7071 17.2929C24.0976 17.6834 24.0976 18.3166 23.7071 18.7071C23.3166 19.0976 22.6834 19.0976 22.2929 18.7071L21 17.4142V21C21 21.5523 20.5523 22 20 22C19.4477 22 19 21.5523 19 21V17.4142L17.7071 18.7071C17.3166 19.0976 16.6834 19.0976 16.2929 18.7071C15.9024 18.3166 15.9024 17.6834 16.2929 17.2929L19.2929 14.2929Z" fill="black"/>
</svg>
