<svg width="32" height="32" viewBox="0 0 32 32" fill="none" xmlns="http://www.w3.org/2000/svg">
<path fill-rule="evenodd" clip-rule="evenodd" d="M32 5H0V19C0 23.4183 3.58172 27 8 27H20C26.6274 27 32 21.6274 32 15V5ZM11.2315 20H8.7706V9.81818H12.9766C15.2635 9.81818 16.6903 11.1158 16.6903 13.2088C16.6903 14.6158 16.044 15.6151 14.9254 16.1222L17.0384 20H14.3537L12.4943 16.5149H11.2315V20ZM11.2315 11.8018V14.576H12.4446C13.5483 14.576 14.1399 14.1534 14.1399 13.2088C14.1399 12.2642 13.5483 11.8018 12.4446 11.8018H11.2315ZM20.4464 9.81818H22.7283V20H20.2724V12.1151H20.2127L17.9357 13.5071V11.3793L20.4464 9.81818Z" fill="black"/>
</svg>
