<svg width="32" height="32" viewBox="0 0 32 32" fill="none" xmlns="http://www.w3.org/2000/svg">
<path d="M9.66051 24H15.4006V22.2869H11.7699V15.2727H9.66051V24ZM19.7951 24.1193C21.8406 24.1193 23.2937 23.0369 23.2894 21.5199C23.2937 20.446 22.5906 19.679 21.244 19.5213V19.4531C22.2539 19.3082 22.9698 18.6307 22.9656 17.6506C22.9698 16.2273 21.6829 15.1534 19.8121 15.1534C17.9286 15.1534 16.5565 16.2443 16.5394 17.7955H18.555C18.5721 17.1989 19.109 16.7983 19.8121 16.7983C20.4812 16.7983 20.9371 17.2031 20.9329 17.7869C20.9371 18.392 20.4002 18.8097 19.6246 18.8097H18.7766V20.3097H19.6246C20.5067 20.3097 21.082 20.7443 21.0735 21.358C21.082 21.9759 20.5536 22.4062 19.8036 22.4062C19.0579 22.4062 18.5082 22.0099 18.4869 21.4347H16.3647C16.3817 23.0114 17.8008 24.1193 19.7951 24.1193Z" fill="black"/>
<path d="M26 14H25V15V27H7V15V14H6H3C1.89543 14 1 13.1046 1 12C1 10.8954 1.89543 10 3 10H29C30.1046 10 31 10.8954 31 12C31 13.1046 30.1046 14 29 14H26Z" stroke="black" stroke-width="2"/>
<path d="M16.7071 7.29289C16.3166 7.68342 15.6834 7.68342 15.2929 7.29289L11.7071 3.70711C11.0771 3.07714 11.5233 2 12.4142 2L19.5858 2C20.4767 2 20.9229 3.07714 20.2929 3.70711L16.7071 7.29289Z" fill="black"/>
</svg>
