<svg width="32" height="32" viewBox="0 0 32 32" fill="none" xmlns="http://www.w3.org/2000/svg">
<path d="M11.9437 4C13.3406 4.24946 14.6877 4.64859 16.0348 4.99783C16.833 5.24728 17.5814 5.44685 18.3797 5.69631C19.5771 6.09544 20.7744 6.49457 21.8721 7.14315C22.371 7.4425 22.82 7.79174 23.2191 8.19087C23.6681 8.63989 24.0174 9.13881 24.2668 9.68761C24.7658 10.6854 24.9154 11.783 24.9653 12.8807C24.9653 13.5791 24.9653 14.3275 24.8655 15.026C24.7658 15.6247 24.5662 16.2234 24.2169 16.7722C23.9176 17.2212 23.5185 17.6702 23.0196 17.9197C22.5705 18.1691 22.0217 18.2689 21.4729 18.2689C20.6747 18.2689 19.8764 18.0195 19.1779 17.6702C19.1779 15.2754 19.1779 12.8807 19.1779 10.436C19.1779 9.98696 19.1779 9.53794 19.128 9.13881C19.0781 8.78957 18.9285 8.49022 18.679 8.24076C18.5293 8.09109 18.2799 7.99131 18.0803 7.94142C17.8309 7.89152 17.6313 7.99131 17.4816 8.19087C17.2322 8.49022 17.1823 8.88935 17.1823 9.23859C17.1823 15.6746 17.1823 22.1106 17.1823 28.5465C15.4361 27.9977 13.7398 27.4489 11.9936 26.9001C11.9437 19.3166 11.9437 11.6833 11.9437 4Z" fill="black"/>
<path d="M4.16063 20.3145C6.40574 19.5162 8.70074 18.7179 10.9459 17.9197C10.9459 18.8177 10.9459 19.7158 10.9459 20.5639C10.9459 20.6637 10.9459 20.8134 10.9459 20.9132C9.14977 21.5617 7.35368 22.2103 5.60748 22.809C5.35802 22.9088 5.10857 23.0086 4.909 23.2082C4.80922 23.3079 4.75933 23.4077 4.80922 23.5574C4.85911 23.7071 5.00878 23.8069 5.15846 23.8568C5.55759 24.0064 5.95672 24.0563 6.40574 24.0563C6.85476 24.0563 7.35368 24.0064 7.8027 23.9066C8.10205 23.8568 8.40139 23.757 8.70074 23.6073C9.44911 23.3079 10.2474 23.0585 10.9957 22.7591C10.9957 23.5075 10.9957 24.2559 10.9957 25.0043C10.9957 25.1539 10.9957 25.3036 10.9957 25.4533C9.99792 25.7027 9.04998 25.8025 8.10205 25.8025C6.20618 25.8524 4.26042 25.5531 2.41444 24.9544C1.81574 24.8047 1.21704 24.5552 0.71813 24.1561C0.418782 23.9565 0.219216 23.6572 0.0695424 23.3578C-0.0302403 23.0585 -0.0302403 22.7591 0.119434 22.5097C0.269108 22.2602 0.468673 22.0108 0.71813 21.8611C1.26693 21.462 1.91552 21.1626 2.51422 20.9132C3.06302 20.6637 3.61183 20.514 4.16063 20.3145Z" fill="black"/>
<path d="M22.371 19.3166C22.8699 19.2667 23.4187 19.2667 23.9176 19.2169C25.6139 19.2169 27.3102 19.4164 28.9566 19.9652C29.256 20.065 29.6052 20.1648 29.9046 20.2646C30.4534 20.4641 31.0521 20.7136 31.5011 21.1127C31.7506 21.3622 32 21.7114 32 22.0607C32 22.36 31.9002 22.6594 31.6508 22.9088C31.2516 23.3578 30.7527 23.6572 30.2538 23.9066C29.705 24.206 29.1063 24.3557 28.5575 24.5552C25.115 25.8025 21.6226 27.0498 18.1801 28.2971C18.1801 27.3491 18.1801 26.3513 18.1801 25.4034C18.1801 25.3535 18.1801 25.3036 18.23 25.3036C20.8742 24.3557 23.5185 23.4077 26.1128 22.5097C26.4621 22.36 26.8612 22.2602 27.1606 22.0607C27.2603 21.9609 27.41 21.8112 27.3601 21.6615C27.3102 21.5119 27.1606 21.4121 27.0109 21.3622C26.6117 21.2125 26.1627 21.1626 25.7636 21.1626C25.115 21.1626 24.4664 21.2624 23.8178 21.462C21.922 22.1106 20.076 22.809 18.1801 23.4576C18.1801 22.4099 18.1801 21.3622 18.1801 20.3145C19.5272 19.7657 20.9241 19.4663 22.371 19.3166Z" fill="black"/>
</svg>
