<svg width="32" height="32" viewBox="0 0 32 32" fill="none" xmlns="http://www.w3.org/2000/svg">
<path d="M16.6121 12.783L17.3513 13.4564L16.6121 12.783C16.5843 12.8135 16.5652 12.8321 16.5521 12.8436C16.5459 12.849 16.5421 12.852 16.5406 12.8531C16.2119 13.049 15.7881 13.049 15.4594 12.8531C15.4579 12.852 15.4541 12.849 15.4479 12.8436C15.4348 12.8321 15.4157 12.8135 15.3879 12.783L12.6866 9.81767L11.9474 10.4911L12.6866 9.81767C12.5414 9.65825 12.4516 9.45616 12.4306 9.24153L12.0002 4.83912C12.0076 4.1249 12.1881 3.80526 12.5436 3.57505C13.0335 3.25775 14.0273 3 16 3C17.9727 3 18.9665 3.25775 19.4564 3.57505C19.8119 3.80526 19.9924 4.12489 19.9998 4.83912L19.5694 9.24153C19.5484 9.45616 19.4586 9.65825 19.3134 9.81767L16.6121 12.783Z" stroke="black" stroke-width="2"/>
<path d="M16.6121 19.217L17.3513 18.5436L16.6121 19.217C16.5843 19.1865 16.5652 19.1679 16.5521 19.1564C16.5459 19.151 16.5421 19.148 16.5406 19.1469C16.2119 18.951 15.7881 18.951 15.4594 19.1469C15.4579 19.148 15.4541 19.151 15.4479 19.1564C15.4348 19.1679 15.4157 19.1865 15.3879 19.217L12.6866 22.1823L11.9474 21.5089L12.6866 22.1823C12.5414 22.3418 12.4516 22.5438 12.4306 22.7585L12.0002 27.1609C12.0076 27.8751 12.1881 28.1947 12.5436 28.4249C13.0335 28.7422 14.0273 29 16 29C17.9727 29 18.9665 28.7422 19.4564 28.4249C19.8119 28.1947 19.9924 27.8751 19.9998 27.1609L19.5694 22.7585C19.5484 22.5438 19.4586 22.3417 19.3134 22.1823L16.6121 19.217Z" stroke="black" stroke-width="2"/>
<path d="M22.6612 11.4354L27.1145 11C29 11 30 12 30 16C30 20 29 21 27.1145 21L22.6612 20.5646C22.2319 20.5227 21.8277 20.3431 21.5089 20.0526L18.5436 17.3513C18.4475 17.2638 18.3575 17.1687 18.2907 17.0573C17.9031 16.4109 17.9031 15.5891 18.2907 14.9427C18.3575 14.8313 18.4475 14.7362 18.5436 14.6487L21.5089 11.9474C21.8277 11.6569 22.2319 11.4773 22.6612 11.4354Z" fill="black"/>
<path d="M9.33883 11.4354L4.88546 11C3 11 2 12 2 16C2 20 3 21 4.88546 21L9.33883 20.5646C9.76808 20.5227 10.1723 20.3431 10.4911 20.0526L13.4564 17.3513C13.5525 17.2638 13.6425 17.1687 13.7093 17.0573C14.0969 16.4109 14.0969 15.5891 13.7093 14.9427C13.6425 14.8313 13.5525 14.7362 13.4564 14.6487L10.4911 11.9474C10.1723 11.6569 9.76808 11.4773 9.33883 11.4354Z" fill="black"/>
</svg>
