<svg width="32" height="32" viewBox="0 0 32 32" fill="none" xmlns="http://www.w3.org/2000/svg">
<g clip-path="url(#clip0)">
<path d="M11.7706 21H14.2315V17.5149H15.4943L17.3537 21H20.0384L17.9254 17.1222C19.044 16.6151 19.6903 15.6158 19.6903 14.2088C19.6903 12.1158 18.2635 10.8182 15.9766 10.8182H11.7706V21ZM14.2315 15.576V12.8018H15.4446C16.5483 12.8018 17.1399 13.2642 17.1399 14.2088C17.1399 15.1534 16.5483 15.576 15.4446 15.576H14.2315Z" fill="black"/>
<circle cx="16" cy="16" r="9" stroke="black" stroke-width="2"/>
<path d="M9.5 27.2583C7.52375 26.1173 5.88266 24.4762 4.74167 22.5C3.60068 20.5237 3 18.282 3 16C3 13.718 3.60068 11.4762 4.74167 9.5C5.88266 7.52375 7.52375 5.88266 9.5 4.74167" stroke="black" stroke-width="2" stroke-linecap="round"/>
<path d="M22.5 27.2583C24.4762 26.1173 26.1173 24.4763 27.2583 22.5C28.3993 20.5238 29 18.282 29 16C29 13.718 28.3993 11.4763 27.2583 9.5C26.1173 7.52375 24.4763 5.88266 22.5 4.74167" stroke="black" stroke-width="2" stroke-linecap="round"/>
<path d="M16.5547 0.3698C16.2188 0.145867 15.7812 0.145868 15.4453 0.3698L12.7481 2.16795C11.9248 2.71678 12.3134 4 13.3028 4L18.6972 4C19.6866 4 20.0752 2.71677 19.2519 2.16795L16.5547 0.3698Z" fill="black"/>
<path d="M16.5547 31.6302C16.2188 31.8541 15.7812 31.8541 15.4453 31.6302L12.7481 29.832C11.9248 29.2832 12.3134 28 13.3028 28L18.6972 28C19.6866 28 20.0752 29.2832 19.2519 29.8321L16.5547 31.6302Z" fill="black"/>
</g>
<defs>
<clipPath id="clip0">
<rect width="32" height="32" fill="white"/>
</clipPath>
</defs>
</svg>
