<svg width="256" height="160" viewBox="0 0 256 160" fill="none" xmlns="http://www.w3.org/2000/svg">
<path fill-rule="evenodd" clip-rule="evenodd" d="M179.376 12H162.064C161.782 12 161.511 12.1097 161.312 12.3048C161.112 12.5 161 12.7647 161 13.0408V147.558C161 147.676 161.048 147.788 161.132 147.871C161.217 147.953 161.332 148 161.452 148H179.376C186.437 148 193.209 145.257 198.202 140.374C203.195 135.491 206 128.868 206 121.963V38.0372C206 31.1317 203.195 24.5091 198.202 19.6261C193.209 14.7432 186.437 12 179.376 12ZM176.254 87.75H174.253C174.384 82.5638 178.564 78.3837 183.75 78.2531V80.254C179.669 80.3833 176.383 83.6685 176.254 87.75ZM184.25 80.254C188.331 80.3833 191.617 83.6685 191.746 87.75H193.747C193.616 82.5638 189.436 78.3837 184.25 78.2531V80.254ZM174.253 88.25H176.254C176.383 92.3315 179.669 95.6167 183.75 95.746V97.7469C178.564 97.6163 174.384 93.4362 174.253 88.25ZM184.25 97.7469V95.746C188.331 95.6167 191.617 92.3315 191.746 88.25H193.747C193.616 93.4362 189.436 97.6163 184.25 97.7469ZM184 77.75C178.339 77.75 173.75 82.3391 173.75 88C173.75 93.6609 178.339 98.25 184 98.25C189.661 98.25 194.25 93.6609 194.25 88C194.25 82.3391 189.661 77.75 184 77.75ZM184 80.75C179.996 80.75 176.75 83.9959 176.75 88C176.75 92.0041 179.996 95.25 184 95.25C188.004 95.25 191.25 92.0041 191.25 88C191.25 83.9959 188.004 80.75 184 80.75ZM195.278 47.1648L195.027 48H193.749L195.189 43.6364H196.808L198.249 48H196.97L196.719 47.1648H195.278ZM195.982 44.8381L195.547 46.2784H196.45L196.016 44.8381H195.982ZM196 51.5C199.038 51.5 201.5 49.0376 201.5 46C201.5 42.9624 199.038 40.5 196 40.5C192.962 40.5 190.5 42.9624 190.5 46C190.5 49.0376 192.962 51.5 196 51.5ZM202 46C202 49.3137 199.314 52 196 52C192.686 52 190 49.3137 190 46C190 42.6863 192.686 40 196 40C199.314 40 202 42.6863 202 46ZM184.331 60H182.277V55.6364H184.169C185.167 55.6364 185.695 56.0625 185.695 56.7273C185.695 57.2088 185.356 57.5817 184.851 57.6818V57.7244C185.412 57.7457 185.865 58.1484 185.865 58.7642C185.865 59.4822 185.279 60 184.331 60ZM183.462 58.1335V59.054H184.016C184.414 59.054 184.613 58.9027 184.613 58.6108C184.613 58.304 184.393 58.1335 184.033 58.1335H183.462ZM183.462 56.5653V57.4006H183.948C184.259 57.4006 184.476 57.2514 184.476 56.983C184.476 56.7145 184.259 56.5653 183.965 56.5653H183.462ZM184 63.5C187.038 63.5 189.5 61.0376 189.5 58C189.5 54.9624 187.038 52.5 184 52.5C180.962 52.5 178.5 54.9624 178.5 58C178.5 61.0376 180.962 63.5 184 63.5ZM190 58C190 61.3137 187.314 64 184 64C180.686 64 178 61.3137 178 58C178 54.6863 180.686 52 184 52C187.314 52 190 54.6863 190 58ZM181.934 31.6364H183.263L183.979 32.9062H184.013L184.737 31.6364H186.059L184.755 33.8182L186.11 36H184.755L184.013 34.7045H183.979L183.237 36H181.891L183.229 33.8182L181.934 31.6364ZM184 39.5C187.038 39.5 189.5 37.0376 189.5 34C189.5 30.9624 187.038 28.5 184 28.5C180.962 28.5 178.5 30.9624 178.5 34C178.5 37.0376 180.962 39.5 184 39.5ZM190 34C190 37.3137 187.314 40 184 40C180.686 40 178 37.3137 178 34C178 30.6863 180.686 28 184 28C187.314 28 190 30.6863 190 34ZM171.411 46.6278L169.808 43.6364H171.129L171.982 45.4091H172.016L172.868 43.6364H174.189L172.587 46.6278V48H171.411V46.6278ZM172 51.5C175.038 51.5 177.5 49.0376 177.5 46C177.5 42.9624 175.038 40.5 172 40.5C168.962 40.5 166.5 42.9624 166.5 46C166.5 49.0376 168.962 51.5 172 51.5ZM178 46C178 49.3137 175.314 52 172 52C168.686 52 166 49.3137 166 46C166 42.6863 168.686 40 172 40C175.314 40 178 42.6863 178 46ZM172.5 23C172.776 23 173 23.2239 173 23.5V24.5C173 24.7761 172.776 25 172.5 25H170.5C170.224 25 170 25.2239 170 25.5V27.5C170 27.7761 169.776 28 169.5 28H168.5C168.224 28 168 27.7761 168 27.5V25.5C168 25.2239 167.776 25 167.5 25H165.5C165.224 25 165 24.7761 165 24.5V23.5C165 23.2239 165.224 23 165.5 23H167.5C167.776 23 168 22.7761 168 22.5V20.5C168 20.2239 168.224 20 168.5 20H169.5C169.776 20 170 20.2239 170 20.5V22.5C170 22.7761 170.224 23 170.5 23H172.5ZM175 124.5C177.485 124.5 179.5 122.485 179.5 120C179.5 117.515 177.485 115.5 175 115.5C172.515 115.5 170.5 117.515 170.5 120C170.5 122.485 172.515 124.5 175 124.5ZM175 125C177.761 125 180 122.761 180 120C180 117.239 177.761 115 175 115C172.239 115 170 117.239 170 120C170 122.761 172.239 125 175 125ZM172.21 119.674L175.011 117.021L177.811 119.674L177.074 120.319V122.033C177.074 122.111 177.043 122.186 176.988 122.241C176.933 122.297 176.858 122.328 176.78 122.328H173.094C173.016 122.328 172.941 122.297 172.886 122.241C172.831 122.186 172.8 122.111 172.8 122.033V120.19L172.21 119.674ZM175.875 121.13C175.888 121.097 175.895 121.062 175.895 121.027V120.091C175.895 120.056 175.888 120.021 175.875 119.988C175.861 119.955 175.841 119.926 175.816 119.901C175.791 119.876 175.762 119.856 175.729 119.842C175.696 119.829 175.661 119.822 175.626 119.822H174.248C174.213 119.822 174.178 119.829 174.145 119.842C174.112 119.856 174.083 119.876 174.058 119.901C174.033 119.926 174.013 119.955 173.999 119.988C173.986 120.021 173.979 120.056 173.979 120.091V121.027C173.979 121.062 173.986 121.097 173.999 121.13C174.013 121.162 174.033 121.192 174.058 121.217C174.083 121.242 174.112 121.262 174.145 121.275C174.178 121.289 174.213 121.296 174.248 121.296H175.626C175.661 121.296 175.696 121.289 175.729 121.275C175.762 121.262 175.791 121.242 175.816 121.217C175.841 121.192 175.861 121.162 175.875 121.13Z" fill="black"/>
<path fill-rule="evenodd" clip-rule="evenodd" d="M76.6237 148H94.5485C94.6682 148 94.7831 147.953 94.8678 147.871C94.9524 147.788 95 147.676 95 147.558V13.0408C95 12.7647 94.8879 12.5 94.6883 12.3048C94.4887 12.1097 94.218 12 93.9358 12H76.6237C69.5627 12 62.7908 14.7432 57.7979 19.6261C52.805 24.5091 50 31.1317 50 38.0372V121.963C50 128.868 52.805 135.491 57.7979 140.374C62.7908 145.257 69.5627 148 76.6237 148ZM64.254 45.75H62.2531C62.3837 40.5638 66.5638 36.3837 71.75 36.2531V38.254C67.6685 38.3833 64.3833 41.6685 64.254 45.75ZM72.25 38.254C76.3315 38.3833 79.6167 41.6685 79.746 45.75H81.7469C81.6163 40.5638 77.4362 36.3837 72.25 36.2531V38.254ZM62.2531 46.25H64.254C64.3833 50.3315 67.6685 53.6167 71.75 53.746V55.7469C66.5638 55.6163 62.3837 51.4362 62.2531 46.25ZM72.25 55.7469V53.746C76.3315 53.6167 79.6167 50.3315 79.746 46.25H81.7469C81.6163 51.4362 77.4362 55.6163 72.25 55.7469ZM72 35.75C66.3391 35.75 61.75 40.3391 61.75 46C61.75 51.6609 66.3391 56.25 72 56.25C77.6609 56.25 82.25 51.6609 82.25 46C82.25 40.3391 77.6609 35.75 72 35.75ZM72 38.75C67.9959 38.75 64.75 41.9959 64.75 46C64.75 50.0041 67.9959 53.25 72 53.25C76.0041 53.25 79.25 50.0041 79.25 46C79.25 41.9959 76.0041 38.75 72 38.75ZM57.5 88C57.5 90.4853 59.5147 92.5 62 92.5C64.4853 92.5 66.5 90.4853 66.5 88C66.5 85.5147 64.4853 83.5 62 83.5C59.5147 83.5 57.5 85.5147 57.5 88ZM62 93C59.2386 93 57 90.7614 57 88C57 85.2386 59.2386 83 62 83C64.7614 83 67 85.2386 67 88C67 90.7614 64.7614 93 62 93ZM82 92.5C79.5147 92.5 77.5 90.4853 77.5 88C77.5 85.5147 79.5147 83.5 82 83.5C84.4853 83.5 86.5 85.5147 86.5 88C86.5 90.4853 84.4853 92.5 82 92.5ZM77 88C77 90.7614 79.2386 93 82 93C84.7614 93 87 90.7614 87 88C87 85.2386 84.7614 83 82 83C79.2386 83 77 85.2386 77 88ZM67.5 98C67.5 100.485 69.5147 102.5 72 102.5C74.4853 102.5 76.5 100.485 76.5 98C76.5 95.5147 74.4853 93.5 72 93.5C69.5147 93.5 67.5 95.5147 67.5 98ZM72 103C69.2386 103 67 100.761 67 98C67 95.2386 69.2386 93 72 93C74.7614 93 77 95.2386 77 98C77 100.761 74.7614 103 72 103ZM72 82.5C69.5147 82.5 67.5 80.4853 67.5 78C67.5 75.5147 69.5147 73.5 72 73.5C74.4853 73.5 76.5 75.5147 76.5 78C76.5 80.4853 74.4853 82.5 72 82.5ZM67 78C67 80.7614 69.2386 83 72 83C74.7614 83 77 80.7614 77 78C77 75.2386 74.7614 73 72 73C69.2386 73 67 75.2386 67 78ZM71.6464 76.3536L69.8536 78.1464C69.5386 78.4614 69.7617 79 70.2071 79H73.7929C74.2383 79 74.4614 78.4614 74.1464 78.1464L72.3536 76.3536C72.1583 76.1583 71.8417 76.1583 71.6464 76.3536ZM69.8536 97.8536L71.6464 99.6464C71.8417 99.8417 72.1583 99.8417 72.3536 99.6464L74.1464 97.8536C74.4614 97.5386 74.2383 97 73.7929 97H70.2071C69.7617 97 69.5386 97.5386 69.8536 97.8536ZM83.6464 88.3536L81.8536 90.1464C81.5386 90.4614 81 90.2383 81 89.7929V86.2071C81 85.7617 81.5386 85.5386 81.8536 85.8536L83.6464 87.6464C83.8417 87.8417 83.8417 88.1583 83.6464 88.3536ZM62.1464 90.1464L60.3536 88.3536C60.1583 88.1583 60.1583 87.8417 60.3536 87.6464L62.1464 85.8536C62.4614 85.5386 63 85.7617 63 86.2071V89.7929C63 90.2383 62.4614 90.4614 62.1464 90.1464ZM83.5 23C83.2239 23 83 23.2239 83 23.5V24.5C83 24.7761 83.2239 25 83.5 25H90.5C90.7761 25 91 24.7761 91 24.5V23.5C91 23.2239 90.7761 23 90.5 23H83.5ZM88 115.5H82C81.1716 115.5 80.5 116.172 80.5 117V123C80.5 123.828 81.1716 124.5 82 124.5H88C88.8284 124.5 89.5 123.828 89.5 123V117C89.5 116.172 88.8284 115.5 88 115.5ZM82 115C80.8954 115 80 115.895 80 117V123C80 124.105 80.8954 125 82 125H88C89.1046 125 90 124.105 90 123V117C90 115.895 89.1046 115 88 115H82ZM85 123C86.6569 123 88 121.657 88 120C88 118.343 86.6569 117 85 117C83.3431 117 82 118.343 82 120C82 121.657 83.3431 123 85 123Z" fill="black"/>
<path fill-rule="evenodd" clip-rule="evenodd" d="M96 18C98.2091 18 100 16.2091 100 14V12.8571C100 12.3838 100.384 12 100.857 12H155.143C155.616 12 156 12.3838 156 12.8571V14C156 16.2091 157.791 18 160 18V148H96V18ZM99 75H103V79H99V75ZM103 69H99V73H103V69ZM99 63H103V67H99V63ZM103 57H99V61H103V57ZM157 75H153V79H157V75ZM153 69H157V73H153V69ZM157 63H153V67H157V63ZM153 57H157V61H153V57Z" fill="black"/>
<path fill-rule="evenodd" clip-rule="evenodd" d="M177 9.5C189 9.5 193.5 12 197.5 15C200.5 17.5 203 21.5 203.5 23V25.906C202.224 23.4775 200.562 21.2345 198.552 19.2687C193.464 14.2932 186.566 11.5 179.376 11.5H169.018C169.136 10.611 169.84 9.89496 170.752 9.78101L173 9.5H177ZM202.732 26.5967L183.5 16.5H169V12.5H179.376C186.308 12.5 192.954 15.1932 197.852 19.9836C199.85 21.9369 201.49 24.1736 202.732 26.5967Z" fill="black"/>
<path fill-rule="evenodd" clip-rule="evenodd" d="M79 9.5C67 9.5 62.5 12 58.5 15C55.5 17.5 53 21.5 52.5 23V25.906C53.7757 23.4775 55.4382 21.2345 57.4483 19.2687C62.5358 14.2932 69.4336 11.5 76.6237 11.5H86.9825C86.8641 10.611 86.1597 9.89496 85.2481 9.78101L83 9.5H79ZM53.2681 26.5967L72.5 16.5H87V12.5H76.6237C69.6917 12.5 63.0459 15.1932 58.1475 19.9836C56.1502 21.9369 54.5102 24.1736 53.2681 26.5967Z" fill="black"/>
<path fill-rule="evenodd" clip-rule="evenodd" d="M203.5 29.5967V127.043L200.903 135.543C203.558 131.525 205 126.815 205 121.963V38.0372C205 35.1333 204.484 32.2806 203.5 29.5967ZM206.85 35.2225C206.95 36.1533 207 37.0927 207 38.0372V121.963C207 128.273 204.746 134.353 200.68 139.174C202.278 140.753 206.21 144.61 207.187 145.298C208.421 146.168 209.309 146.009 209.309 146.009C212.427 146.183 226.227 140.963 228.998 127.043C231.77 113.124 228.364 96.1303 223.975 81.0508C220.853 70.322 211.809 47.4991 206.85 35.2225Z" fill="black"/>
<path fill-rule="evenodd" clip-rule="evenodd" d="M52.5 29.5967V127.043L55.0966 135.543C52.4419 131.525 51 126.815 51 121.963V38.0372C51 35.1333 51.5164 32.2806 52.5 29.5967ZM49.15 35.2225C49.0505 36.1533 49 37.0927 49 38.0372V121.963C49 128.273 51.2536 134.353 55.3198 139.174C53.722 140.753 49.79 144.61 48.8132 145.298C47.579 146.168 46.6911 146.009 46.6911 146.009C43.5731 146.183 29.773 140.963 27.0015 127.043C24.2298 113.124 27.6363 96.1303 32.0248 81.0508C35.1472 70.322 44.1912 47.4991 49.15 35.2225Z" fill="black"/>
</svg>
