<svg width="256" height="160" viewBox="0 0 256 160" fill="none" xmlns="http://www.w3.org/2000/svg">
<path d="M162.064 12H179.376C186.437 12 193.209 14.7432 198.202 19.6261C203.195 24.5091 206 31.1317 206 38.0372V121.963C206 128.868 203.195 135.491 198.202 140.374C193.209 145.257 186.437 148 179.376 148H161.452C161.332 148 161.217 147.953 161.132 147.871C161.048 147.788 161 147.676 161 147.558V13.0408C161 12.7647 161.112 12.5 161.312 12.3048C161.511 12.1097 161.782 12 162.064 12V12Z" stroke="black" stroke-width="0.5" stroke-miterlimit="10"/>
<path d="M169 12V11.7656C169 10.7569 169.751 9.90612 170.752 9.78101L173 9.5H177C189 9.5 193.5 12 197.5 15C200.5 17.5 203 21.5 203.5 23V27" stroke="black" stroke-width="0.5" stroke-miterlimit="10"/>
<path d="M87 12V11.7656C87 10.7569 86.2489 9.90612 85.2481 9.78101L83 9.5H79C67 9.5 62.5 12 58.5 15C55.5 17.5 53 21.5 52.5 23V27" stroke="black" stroke-width="0.5" stroke-miterlimit="10"/>
<path d="M94.5485 148H76.6237C69.5627 148 62.7908 145.257 57.7979 140.374C52.805 135.491 50 128.868 50 121.963L50 38.0372C50 31.1317 52.805 24.5091 57.7979 19.6261C62.7908 14.7432 69.5627 12 76.6237 12H93.9358C94.218 12 94.4887 12.1097 94.6883 12.3048C94.8879 12.5 95 12.7647 95 13.0408L95 147.558C95 147.676 94.9524 147.788 94.8678 147.871C94.7831 147.953 94.6682 148 94.5485 148V148Z" stroke="black" stroke-width="0.5" stroke-miterlimit="10"/>
<path d="M173 23.5C173 23.2239 172.776 23 172.5 23H170.5C170.224 23 170 22.7761 170 22.5V20.5C170 20.2239 169.776 20 169.5 20H168.5C168.224 20 168 20.2239 168 20.5V22.5C168 22.7761 167.776 23 167.5 23H165.5C165.224 23 165 23.2239 165 23.5V24.5C165 24.7761 165.224 25 165.5 25H167.5C167.776 25 168 25.2239 168 25.5V27.5C168 27.7761 168.224 28 168.5 28H169.5C169.776 28 170 27.7761 170 27.5V25.5C170 25.2239 170.224 25 170.5 25H172.5C172.776 25 173 24.7761 173 24.5V23.5Z" fill="black"/>
<rect x="83" y="23" width="8" height="2" rx="0.5" fill="black"/>
<circle cx="175" cy="120" r="4.75" stroke="black" stroke-width="0.5"/>
<path d="M175.011 117.021L172.21 119.674L172.8 120.19V122.033C172.8 122.111 172.831 122.186 172.886 122.241C172.941 122.297 173.016 122.328 173.094 122.328H176.78C176.858 122.328 176.933 122.297 176.988 122.241C177.043 122.186 177.074 122.111 177.074 122.033V120.319L177.811 119.674L175.011 117.021ZM175.895 121.027C175.895 121.062 175.888 121.097 175.875 121.13C175.861 121.162 175.841 121.192 175.816 121.217C175.791 121.242 175.762 121.262 175.729 121.275C175.696 121.289 175.661 121.296 175.626 121.296H174.248C174.213 121.296 174.178 121.289 174.145 121.275C174.112 121.262 174.083 121.242 174.058 121.217C174.033 121.192 174.013 121.162 173.999 121.13C173.986 121.097 173.979 121.062 173.979 121.027V120.091C173.979 120.056 173.986 120.021 173.999 119.988C174.013 119.955 174.033 119.926 174.058 119.901C174.083 119.876 174.112 119.856 174.145 119.842C174.178 119.829 174.213 119.822 174.248 119.822H175.626C175.661 119.822 175.696 119.829 175.729 119.842C175.762 119.856 175.791 119.876 175.816 119.901C175.841 119.926 175.861 119.955 175.875 119.988C175.888 120.021 175.895 120.056 175.895 120.091V121.027Z" fill="black"/>
<rect x="80.25" y="115.25" width="9.5" height="9.5" rx="1.75" stroke="black" stroke-width="0.5"/>
<circle cx="85" cy="120" r="3" fill="black"/>
<path d="M184 98C189.523 98 194 93.5228 194 88C194 82.4772 189.523 78 184 78C178.477 78 174 82.4772 174 88C174 93.5228 178.477 98 184 98Z" stroke="black" stroke-width="0.5" stroke-miterlimit="10"/>
<path d="M184 95.5C188.142 95.5 191.5 92.1421 191.5 88C191.5 83.8579 188.142 80.5 184 80.5C179.858 80.5 176.5 83.8579 176.5 88C176.5 92.1421 179.858 95.5 184 95.5Z" stroke="black" stroke-width="0.5" stroke-miterlimit="10"/>
<path d="M191.5 88H194" stroke="black" stroke-width="0.5"/>
<path d="M174 88H176.5" stroke="black" stroke-width="0.5"/>
<path d="M184 78V80.5" stroke="black" stroke-width="0.5"/>
<path d="M184 95.5V98" stroke="black" stroke-width="0.5"/>
<path d="M72 56C77.5228 56 82 51.5228 82 46C82 40.4772 77.5228 36 72 36C66.4772 36 62 40.4772 62 46C62 51.5228 66.4772 56 72 56Z" stroke="black" stroke-width="0.5" stroke-miterlimit="10"/>
<path d="M72 53.5C76.1421 53.5 79.5 50.1421 79.5 46C79.5 41.8579 76.1421 38.5 72 38.5C67.8579 38.5 64.5 41.8579 64.5 46C64.5 50.1421 67.8579 53.5 72 53.5Z" stroke="black" stroke-width="0.5" stroke-miterlimit="10"/>
<path d="M79.5 46H82" stroke="black" stroke-width="0.5"/>
<path d="M62 46H64.5" stroke="black" stroke-width="0.5"/>
<path d="M72 36V38.5" stroke="black" stroke-width="0.5"/>
<path d="M72 53.5V56" stroke="black" stroke-width="0.5"/>
<path d="M195.027 48L195.278 47.1648H196.719L196.97 48H198.249L196.808 43.6364H195.189L193.749 48H195.027ZM195.547 46.2784L195.982 44.8381H196.016L196.45 46.2784H195.547Z" fill="black"/>
<path d="M201.75 46C201.75 49.1756 199.176 51.75 196 51.75C192.824 51.75 190.25 49.1756 190.25 46C190.25 42.8244 192.824 40.25 196 40.25C199.176 40.25 201.75 42.8244 201.75 46Z" stroke="black" stroke-width="0.5" stroke-linecap="round" stroke-linejoin="round"/>
<path d="M182.277 60H184.331C185.279 60 185.865 59.4822 185.865 58.7642C185.865 58.1484 185.412 57.7457 184.851 57.7244V57.6818C185.356 57.5817 185.695 57.2088 185.695 56.7273C185.695 56.0625 185.167 55.6364 184.169 55.6364H182.277V60ZM183.462 59.054V58.1335H184.033C184.393 58.1335 184.613 58.304 184.613 58.6108C184.613 58.9027 184.414 59.054 184.016 59.054H183.462ZM183.462 57.4006V56.5653H183.965C184.259 56.5653 184.476 56.7145 184.476 56.983C184.476 57.2514 184.259 57.4006 183.948 57.4006H183.462Z" fill="black"/>
<path d="M189.75 58C189.75 61.1756 187.176 63.75 184 63.75C180.824 63.75 178.25 61.1756 178.25 58C178.25 54.8244 180.824 52.25 184 52.25C187.176 52.25 189.75 54.8244 189.75 58Z" stroke="black" stroke-width="0.5" stroke-linecap="round" stroke-linejoin="round"/>
<path d="M183.263 31.6364H181.934L183.229 33.8182L181.891 36H183.237L183.979 34.7045H184.013L184.755 36H186.11L184.755 33.8182L186.059 31.6364H184.737L184.013 32.9062H183.979L183.263 31.6364Z" fill="black"/>
<path d="M189.75 34C189.75 37.1756 187.176 39.75 184 39.75C180.824 39.75 178.25 37.1756 178.25 34C178.25 30.8244 180.824 28.25 184 28.25C187.176 28.25 189.75 30.8244 189.75 34Z" stroke="black" stroke-width="0.5" stroke-linecap="round" stroke-linejoin="round"/>
<path d="M169.808 43.6364L171.411 46.6278V48H172.587V46.6278L174.189 43.6364H172.868L172.016 45.4091H171.982L171.129 43.6364H169.808Z" fill="black"/>
<path d="M177.75 46C177.75 49.1756 175.176 51.75 172 51.75C168.824 51.75 166.25 49.1756 166.25 46C166.25 42.8244 168.824 40.25 172 40.25C175.176 40.25 177.75 42.8244 177.75 46Z" stroke="black" stroke-width="0.5" stroke-linecap="round" stroke-linejoin="round"/>
<path d="M57.25 88C57.25 90.6234 59.3766 92.75 62 92.75C64.6234 92.75 66.75 90.6234 66.75 88C66.75 85.3766 64.6234 83.25 62 83.25C59.3766 83.25 57.25 85.3766 57.25 88Z" stroke="black" stroke-width="0.5" stroke-linecap="round" stroke-linejoin="round"/>
<path d="M77.25 88C77.25 90.6234 79.3766 92.75 82 92.75C84.6234 92.75 86.75 90.6234 86.75 88C86.75 85.3766 84.6234 83.25 82 83.25C79.3766 83.25 77.25 85.3766 77.25 88Z" stroke="black" stroke-width="0.5" stroke-linecap="round" stroke-linejoin="round"/>
<path d="M67.25 98C67.25 100.623 69.3766 102.75 72 102.75C74.6234 102.75 76.75 100.623 76.75 98C76.75 95.3766 74.6234 93.25 72 93.25C69.3766 93.25 67.25 95.3766 67.25 98Z" stroke="black" stroke-width="0.5" stroke-linecap="round" stroke-linejoin="round"/>
<path d="M67.25 78C67.25 80.6234 69.3766 82.75 72 82.75C74.6234 82.75 76.75 80.6234 76.75 78C76.75 75.3766 74.6234 73.25 72 73.25C69.3766 73.25 67.25 75.3766 67.25 78Z" stroke="black" stroke-width="0.5" stroke-linecap="round" stroke-linejoin="round"/>
<path d="M69.8536 78.1464L71.6464 76.3536C71.8417 76.1583 72.1583 76.1583 72.3536 76.3536L74.1464 78.1464C74.4614 78.4614 74.2383 79 73.7929 79H70.2071C69.7617 79 69.5386 78.4614 69.8536 78.1464Z" fill="black"/>
<path d="M69.8536 97.8536L71.6464 99.6464C71.8417 99.8417 72.1583 99.8417 72.3536 99.6464L74.1464 97.8536C74.4614 97.5386 74.2383 97 73.7929 97H70.2071C69.7617 97 69.5386 97.5386 69.8536 97.8536Z" fill="black"/>
<path d="M81.8536 90.1464L83.6464 88.3536C83.8417 88.1583 83.8417 87.8417 83.6464 87.6464L81.8536 85.8536C81.5386 85.5386 81 85.7617 81 86.2071L81 89.7929C81 90.2383 81.5386 90.4614 81.8536 90.1464Z" fill="black"/>
<path d="M62.1464 90.1464L60.3536 88.3536C60.1583 88.1583 60.1583 87.8417 60.3536 87.6464L62.1464 85.8536C62.4614 85.5386 63 85.7617 63 86.2071L63 89.7929C63 90.2383 62.4614 90.4614 62.1464 90.1464Z" fill="black"/>
<path d="M95.25 18.2442C98.0334 18.1137 100.25 15.8157 100.25 13V12.8571C100.25 12.5218 100.522 12.25 100.857 12.25H155.143C155.478 12.25 155.75 12.5218 155.75 12.8571V13C155.75 15.8157 157.967 18.1137 160.75 18.2442V147.75H95.25V18.2442Z" stroke="black" stroke-width="0.5"/>
<rect x="99.25" y="75.25" width="3.5" height="3.5" stroke="black" stroke-width="0.5"/>
<rect x="99.25" y="69.25" width="3.5" height="3.5" stroke="black" stroke-width="0.5"/>
<rect x="99.25" y="63.25" width="3.5" height="3.5" stroke="black" stroke-width="0.5"/>
<rect x="99.25" y="57.25" width="3.5" height="3.5" stroke="black" stroke-width="0.5"/>
<rect x="-0.25" y="0.25" width="3.5" height="3.5" transform="matrix(-1 0 0 1 156.5 75)" stroke="black" stroke-width="0.5"/>
<rect x="-0.25" y="0.25" width="3.5" height="3.5" transform="matrix(-1 0 0 1 156.5 69)" stroke="black" stroke-width="0.5"/>
<rect x="-0.25" y="0.25" width="3.5" height="3.5" transform="matrix(-1 0 0 1 156.5 63)" stroke="black" stroke-width="0.5"/>
<rect x="-0.25" y="0.25" width="3.5" height="3.5" transform="matrix(-1 0 0 1 156.5 57)" stroke="black" stroke-width="0.5"/>
<path d="M203.5 27C203.5 27 219.587 65.9713 223.975 81.0508C228.364 96.1303 231.77 113.124 228.998 127.043C226.227 140.963 212.427 146.183 209.309 146.009C209.309 146.009 208.421 146.168 207.187 145.298C205.953 144.428 200 138.5 200 138.5" stroke="black" stroke-width="0.5"/>
<path d="M52.5 27C52.5 27 36.4133 65.9713 32.0248 81.0508C27.6364 96.1303 24.2298 113.124 27.0015 127.043C29.773 140.963 43.5731 146.183 46.6911 146.009C46.6911 146.009 47.579 146.168 48.8132 145.298C50.0474 144.428 56 138.5 56 138.5" stroke="black" stroke-width="0.5"/>
</svg>
