<svg width="32" height="32" viewBox="0 0 32 32" fill="none" xmlns="http://www.w3.org/2000/svg">
<g clip-path="url(#clip0)">
<path d="M11.7706 21H14.2315V17.5149H15.4943L17.3537 21H20.0384L17.9254 17.1222C19.044 16.6151 19.6903 15.6158 19.6903 14.2088C19.6903 12.1158 18.2635 10.8182 15.9766 10.8182H11.7706V21ZM14.2315 15.576V12.8018H15.4446C16.5483 12.8018 17.1399 13.2642 17.1399 14.2088C17.1399 15.1534 16.5483 15.576 15.4446 15.576H14.2315Z" fill="black"/>
<circle cx="16" cy="16" r="9" stroke="black" stroke-width="2"/>
<path d="M22.5 4.74167C24.9783 6.17254 26.9153 8.38121 28.0104 11.0251C29.1056 13.669 29.2977 16.6004 28.557 19.3646C27.8164 22.1289 26.1843 24.5715 23.9139 26.3136C21.6435 28.0557 18.8617 29 16 29C13.1383 29 10.3565 28.0557 8.0861 26.3136C5.81573 24.5715 4.18364 22.1289 3.44296 19.3646C2.70229 16.6004 2.89442 13.669 3.98957 11.0251C5.08471 8.38121 7.02165 6.17254 9.5 4.74167" stroke="black" stroke-width="2" stroke-linecap="round"/>
<path d="M16.5547 0.3698C16.2188 0.145867 15.7812 0.145868 15.4453 0.3698L12.7481 2.16795C11.9248 2.71678 12.3134 4 13.3028 4L18.6972 4C19.6866 4 20.0752 2.71677 19.2519 2.16795L16.5547 0.3698Z" fill="black"/>
</g>
<defs>
<clipPath id="clip0">
<rect width="32" height="32" fill="white"/>
</clipPath>
</defs>
</svg>
