<svg width="32" height="32" viewBox="0 0 32 32" fill="none" xmlns="http://www.w3.org/2000/svg">
<path fill-rule="evenodd" clip-rule="evenodd" d="M12.2929 1.70711C12.0069 1.42111 11.9213 0.990991 12.0761 0.617317C12.2309 0.243642 12.5955 0 13 0H19C19.4045 0 19.7691 0.243643 19.9239 0.617317C20.0787 0.990991 19.9931 1.42111 19.7071 1.70711L16.7071 4.70711C16.3166 5.09763 15.6834 5.09763 15.2929 4.70711L12.2929 1.70711ZM16 21.016H20V23H14.016V13.016H16V21.016ZM30.016 7C30.24 7 30.496 7.064 30.72 7.192C30.976 7.288 31.2 7.448 31.36 7.64C31.552 7.832 31.712 8.056 31.84 8.28C31.936 8.536 32 8.76 32 9.016V13.016C32 13.272 31.936 13.496 31.84 13.752C31.712 13.976 31.552 14.2 31.36 14.392C31.2 14.584 30.976 14.744 30.72 14.84C30.496 14.968 30.24 15 30.016 15H24V25.016H22.016V13.016H29.92L30.016 12.952V9.08L29.92 9.016H2.08L2.016 9.08V12.952L2.08 13.016H10.016V25.016H8V15H2.016C1.76 15 1.504 14.968 1.28 14.84C1.024 14.744 0.8 14.584 0.64 14.392C0.448 14.2 0.288 13.976 0.16 13.752C0.064 13.496 0 13.272 0 13.016V9.016C0 8.76 0.064 8.536 0.16 8.28C0.288 8.056 0.448 7.832 0.64 7.64C0.8 7.448 1.024 7.288 1.28 7.192C1.504 7.064 1.76 7 2.016 7H30.016Z" fill="black"/>
</svg>
