<svg width="32" height="32" viewBox="0 0 32 32" fill="none" xmlns="http://www.w3.org/2000/svg">
<path fill-rule="evenodd" clip-rule="evenodd" d="M30 9V19C30 20.1046 29.1046 21 28 21H21.8329C20.0873 21 18.4282 21.7602 17.2884 23.0824L16.2337 24.3059C15.8537 24.7466 15.3007 25 14.7188 25H4C2.89543 25 2 24.1046 2 23V9C2 7.89543 2.89543 7 4 7H28C29.1046 7 30 7.89543 30 9ZM0 23V9C0 6.79086 1.79086 5 4 5H28C30.2091 5 32 6.79086 32 9V19C32 21.2091 30.2091 23 28 23H21.8329C20.6691 23 19.5631 23.5068 18.8032 24.3882L17.7485 25.6118C16.9886 26.4932 15.8826 27 14.7188 27H4C1.79086 27 0 25.2091 0 23Z" fill="black"/>
<path d="M4.75853 19H6.6037V16.1705H8.15484C10.1619 16.1705 11.3296 14.973 11.3296 13.2301C11.3296 11.4957 10.1832 10.2727 8.20171 10.2727H4.75853V19ZM6.6037 14.6918V11.7813H7.84802C8.91336 11.7813 9.42898 12.3608 9.42898 13.2301C9.42898 14.0952 8.91336 14.6918 7.85654 14.6918H6.6037Z" fill="black"/>
<path d="M12.3448 17.4659H16.5337V19H18.2979V17.4659H19.3803V15.9872H18.2979V10.2727H15.9883L12.3448 16.0128V17.4659ZM16.5678 15.9872H14.2028V15.919L16.4997 12.2841H16.5678V15.9872Z" fill="black"/>
</svg>
