<svg width="32" height="32" viewBox="0 0 32 32" fill="none" xmlns="http://www.w3.org/2000/svg">
<path fill-rule="evenodd" clip-rule="evenodd" d="M30 23V13C30 11.8954 29.1046 11 28 11H21.8329C20.0873 11 18.4282 10.2398 17.2884 8.91764L16.2337 7.69412C15.8537 7.25341 15.3007 7 14.7188 7H4C2.89543 7 2 7.89543 2 9V23C2 24.1046 2.89543 25 4 25H28C29.1046 25 30 24.1046 30 23ZM0 9V23C0 25.2091 1.79086 27 4 27H28C30.2091 27 32 25.2091 32 23V13C32 10.7909 30.2091 9 28 9H21.8329C20.6691 9 19.5631 8.49319 18.8032 7.61176L17.7485 6.38824C16.9886 5.50681 15.8826 5 14.7188 5H4C1.79086 5 0 6.79086 0 9Z" fill="black"/>
<path d="M4.75852 21H6.60369V18.1705H8.15483C10.1619 18.1705 11.3295 16.973 11.3295 15.2301C11.3295 13.4957 10.1832 12.2727 8.2017 12.2727H4.75852V21ZM6.60369 16.6918V13.7813H7.84801C8.91335 13.7813 9.42898 14.3608 9.42898 15.2301C9.42898 16.0952 8.91335 16.6918 7.85653 16.6918H6.60369Z" fill="black"/>
<path d="M15.7028 21.1193C17.663 21.1193 19.065 20.0412 19.0607 18.5497C19.065 17.4631 18.3746 16.6875 17.092 16.5256V16.4574C18.0678 16.2827 18.7411 15.5923 18.7369 14.6122C18.7411 13.2358 17.5352 12.1534 15.7283 12.1534C13.9386 12.1534 12.592 13.2017 12.5664 14.7102H14.3349C14.3562 14.0455 14.9656 13.6151 15.7198 13.6151C16.4656 13.6151 16.9641 14.0668 16.9599 14.723C16.9641 15.4091 16.3803 15.8736 15.5408 15.8736H14.7269V17.2287H15.5408C16.5295 17.2287 17.1474 17.723 17.1431 18.4261C17.1474 19.1207 16.5508 19.598 15.707 19.598C14.8931 19.598 14.2837 19.1719 14.2496 18.5327H12.3917C12.4215 20.0582 13.7852 21.1193 15.7028 21.1193Z" fill="black"/>
</svg>
