<svg width="32" height="32" viewBox="0 0 32 32" fill="none" xmlns="http://www.w3.org/2000/svg">
<path d="M21 20H20V21V28C20 28.5523 19.5523 29 19 29H13C12.4477 29 12 28.5523 12 28V21V20H11H4C3.44771 20 3 19.5523 3 19V13C3 12.4477 3.44772 12 4 12H11H12V11V4C12 3.44772 12.4477 3 13 3H19C19.5523 3 20 3.44772 20 4V11V12H21H28C28.5523 12 29 12.4477 29 13V19C29 19.5523 28.5523 20 28 20H21Z" stroke="black" stroke-width="2"/>
<path d="M13 19L4 19L4 13L13 13L15.2929 15.2929C15.6834 15.6834 15.6834 16.3166 15.2929 16.7071L13 19Z" fill="black"/>
<path d="M19 13L28 13L28 19L19 19L16.7071 16.7071C16.3166 16.3166 16.3166 15.6834 16.7071 15.2929L19 13Z" fill="black"/>
</svg>
