<svg width="32" height="32" viewBox="0 0 32 32" fill="none" xmlns="http://www.w3.org/2000/svg">
<path d="M12.7706 21H19.4673V19.0014H15.2315V10.8182H12.7706V21Z" fill="black"/>
<circle cx="16" cy="16" r="9" stroke="black" stroke-width="2"/>
<path d="M29 16C29 19.4478 27.6304 22.7544 25.1924 25.1924C22.7544 27.6304 19.4478 29 16 29C12.5522 29 9.24559 27.6304 6.80761 25.1924C4.36964 22.7544 3 19.4478 3 16C3 12.5522 4.36964 9.24559 6.80761 6.80761C9.24558 4.36964 12.5522 3 16 3C19.4478 3 22.7544 4.36964 25.1924 6.80761C27.6304 9.24558 29 12.5522 29 16L29 16Z" stroke="black" stroke-width="2" stroke-linecap="round"/>
</svg>
