<svg width="32" height="32" viewBox="0 0 32 32" fill="none" xmlns="http://www.w3.org/2000/svg">
<path fill-rule="evenodd" clip-rule="evenodd" d="M30 9V19C30 20.1046 29.1046 21 28 21H21.8329C20.0873 21 18.4282 21.7602 17.2884 23.0824L16.2337 24.3059C15.8537 24.7466 15.3007 25 14.7188 25H4C2.89543 25 2 24.1046 2 23V9C2 7.89543 2.89543 7 4 7H28C29.1046 7 30 7.89543 30 9ZM0 23V9C0 6.79086 1.79086 5 4 5H28C30.2091 5 32 6.79086 32 9V19C32 21.2091 30.2091 23 28 23H21.8329C20.6691 23 19.5631 23.5068 18.8032 24.3882L17.7485 25.6118C16.9886 26.4932 15.8826 27 14.7188 27H4C1.79086 27 0 25.2091 0 23Z" fill="black"/>
<path d="M4.75852 19H6.60369V16.1705H8.15483C10.1619 16.1705 11.3295 14.973 11.3295 13.2301C11.3295 11.4957 10.1832 10.2727 8.2017 10.2727H4.75852V19ZM6.60369 14.6918V11.7813H7.84801C8.91335 11.7813 9.42898 12.3608 9.42898 13.2301C9.42898 14.0952 8.91335 14.6918 7.85653 14.6918H6.60369Z" fill="black"/>
<path d="M12.4769 19H18.6985V17.4915H15.0337V17.4318L16.3079 16.1832C18.1019 14.5469 18.5835 13.7287 18.5835 12.7358C18.5835 11.223 17.3477 10.1534 15.4769 10.1534C13.6445 10.1534 12.3874 11.2486 12.3917 12.9617H14.1431C14.1388 12.1264 14.6673 11.6151 15.4641 11.6151C16.2312 11.6151 16.8022 12.0923 16.8022 12.8594C16.8022 13.554 16.3761 14.0313 15.5835 14.794L12.4769 17.6705V19Z" fill="black"/>
</svg>
