<svg width="32" height="32" viewBox="0 0 32 32" fill="none" xmlns="http://www.w3.org/2000/svg">
<path d="M11.7706 21H14.2315V17.5149H15.4943L17.3537 21H20.0384L17.9254 17.1222C19.044 16.6151 19.6903 15.6158 19.6903 14.2088C19.6903 12.1158 18.2635 10.8182 15.9766 10.8182H11.7706V21ZM14.2315 15.576V12.8018H15.4446C16.5483 12.8018 17.1399 13.2642 17.1399 14.2088C17.1399 15.1534 16.5483 15.576 15.4446 15.576H14.2315Z" fill="black"/>
<path d="M21.5 5.47372C23.5971 6.68446 25.236 8.55333 26.1627 10.7905C27.0893 13.0276 27.2519 15.508 26.6252 17.847C25.9985 20.186 24.6175 22.2528 22.6964 23.7269C20.7753 25.201 18.4215 26 16 26C13.5785 26 11.2247 25.201 9.30363 23.7269C7.38254 22.2528 6.00154 20.186 5.37482 17.847C4.74809 15.508 4.91067 13.0276 5.83732 10.7905C6.76398 8.55333 8.40294 6.68446 10.5 5.47372" stroke="black" stroke-width="2" stroke-linecap="round"/>
<path d="M26.3843 11.2359C27.4419 13.1381 28 15.2987 28 17.5C28 19.7013 27.4419 21.8619 26.3843 23.7641C25.3269 25.6661 23.8086 27.2408 21.9858 28.3337C20.1633 29.4264 18.099 30 16 30C13.901 30 11.8367 29.4264 10.0142 28.3337C8.1914 27.2408 6.67312 25.6661 5.61568 23.7641C4.55811 21.8619 4 19.7013 4 17.5C4 15.2987 4.55811 13.1381 5.61567 11.2359" stroke="black" stroke-width="2" stroke-linecap="round"/>
<path d="M16.6 6.55C16.2444 6.81667 15.7556 6.81667 15.4 6.55L10.4 2.8C9.63119 2.22339 10.039 1 11 1L21 1C21.961 1 22.3688 2.22339 21.6 2.8L16.6 6.55Z" fill="black"/>
</svg>
