<svg width="32" height="32" viewBox="0 0 32 32" fill="none" xmlns="http://www.w3.org/2000/svg">
<path d="M12.7706 21H19.4673V19.0014H15.2315V10.8182H12.7706V21Z" fill="black"/>
<circle cx="16" cy="16" r="9" stroke="black" stroke-width="2"/>
<path d="M28.557 19.3646C27.9664 21.5689 26.806 23.5788 25.1924 25.1924C23.5788 26.806 21.5689 27.9664 19.3646 28.557" stroke="black" stroke-width="2" stroke-linecap="round"/>
<path d="M3.44296 19.3646C4.03358 21.5689 5.19401 23.5788 6.80761 25.1924C8.42121 26.806 10.4311 27.9664 12.6354 28.557" stroke="black" stroke-width="2" stroke-linecap="round"/>
<path d="M3.44296 12.6354C4.03358 10.4311 5.19401 8.42121 6.80761 6.80761C8.42121 5.19401 10.4311 4.03358 12.6354 3.44296" stroke="black" stroke-width="2" stroke-linecap="round"/>
<path d="M28.557 12.6354C27.9664 10.4311 26.806 8.42121 25.1924 6.80761C23.5788 5.19401 21.5689 4.03358 19.3646 3.44296" stroke="black" stroke-width="2" stroke-linecap="round"/>
</svg>
