<svg width="32" height="32" viewBox="0 0 32 32" fill="none" xmlns="http://www.w3.org/2000/svg">
<path fill-rule="evenodd" clip-rule="evenodd" d="M8 0C4.68629 0 2 2.68629 2 6V26C2 29.3137 4.68629 32 8 32H13C13.5523 32 14 31.5523 14 31V1C14 0.447715 13.5523 0 13 0H8ZM8 22C8.55228 22 9 21.5523 9 21C9 20.4477 8.55228 20 8 20C7.44772 20 7 20.4477 7 21C7 21.5523 7.44772 22 8 22ZM7 19C7 19.5523 6.55228 20 6 20C5.44772 20 5 19.5523 5 19C5 18.4477 5.44772 18 6 18C6.55228 18 7 18.4477 7 19ZM10 20C10.5523 20 11 19.5523 11 19C11 18.4477 10.5523 18 10 18C9.44772 18 9 18.4477 9 19C9 19.5523 9.44772 20 10 20ZM9 17C9 17.5523 8.55228 18 8 18C7.44772 18 7 17.5523 7 17C7 16.4477 7.44772 16 8 16C8.55228 16 9 16.4477 9 17ZM8 11C9.65685 11 11 9.65685 11 8C11 6.34315 9.65685 5 8 5C6.34315 5 5 6.34315 5 8C5 9.65685 6.34315 11 8 11Z" fill="black"/>
<path fill-rule="evenodd" clip-rule="evenodd" d="M19 0C18.4477 0 18 0.447715 18 1V31C18 31.5523 18.4477 32 19 32H24C27.3137 32 30 29.3137 30 26V6C30 2.68629 27.3137 0 24 0H19ZM24 11C24.5523 11 25 10.5523 25 10C25 9.44771 24.5523 9 24 9C23.4477 9 23 9.44771 23 10C23 10.5523 23.4477 11 24 11ZM23 8C23 8.55228 22.5523 9 22 9C21.4477 9 21 8.55228 21 8C21 7.44772 21.4477 7 22 7C22.5523 7 23 7.44772 23 8ZM26 9C26.5523 9 27 8.55228 27 8C27 7.44772 26.5523 7 26 7C25.4477 7 25 7.44772 25 8C25 8.55228 25.4477 9 26 9ZM27 19C27 20.6569 25.6569 22 24 22C22.3431 22 21 20.6569 21 19C21 17.3431 22.3431 16 24 16C25.6569 16 27 17.3431 27 19ZM24 7C24.5523 7 25 6.55228 25 6C25 5.44772 24.5523 5 24 5C23.4477 5 23 5.44772 23 6C23 6.55228 23.4477 7 24 7Z" fill="black"/>
</svg>
