<svg width="32" height="32" viewBox="0 0 32 32" fill="none" xmlns="http://www.w3.org/2000/svg">
<path d="M3 8C3 4.13401 6.13401 1 10 1H18C24.0751 1 29 5.92487 29 12V31H3V8Z" stroke="black" stroke-width="2"/>
<path d="M7.7358 21H15.7898V19.0014H10.848L15.7947 12.2202V10.8182H7.74077V12.8168H12.6825L7.7358 19.598V21ZM17.2999 21H19.7608V17.5149H21.0236L22.883 21H25.5676L23.4547 17.1222C24.5733 16.6151 25.2196 15.6158 25.2196 14.2088C25.2196 12.1158 23.7928 10.8182 21.5059 10.8182H17.2999V21ZM19.7608 15.576V12.8018H20.9739C22.0776 12.8018 22.6692 13.2642 22.6692 14.2088C22.6692 15.1534 22.0776 15.576 20.9739 15.576H19.7608Z" fill="black"/>
</svg>
