<svg width="32" height="32" viewBox="0 0 32 32" fill="none" xmlns="http://www.w3.org/2000/svg">
<g clip-path="url(#clip0)">
<path fill-rule="evenodd" clip-rule="evenodd" d="M1 22L1 17L31 17L31 22C31 24.7614 28.7614 27 26 27L6 27C3.23858 27 1 24.7614 1 22ZM6 28C2.68629 28 -1.17422e-07 25.3137 -2.62268e-07 22L-4.80825e-07 17C-5.04966e-07 16.4477 0.447715 16 0.999999 16L31 16C31.5523 16 32 16.4477 32 17L32 22C32 25.3137 29.3137 28 26 28L6 28ZM22 22C22 21.4477 21.5523 21 21 21C20.4477 21 20 21.4477 20 22C20 22.5523 20.4477 23 21 23C21.5523 23 22 22.5523 22 22ZM19 23C19.5523 23 20 23.4477 20 24C20 24.5523 19.5523 25 19 25C18.4477 25 18 24.5523 18 24C18 23.4477 18.4477 23 19 23ZM20 20C20 19.4477 19.5523 19 19 19C18.4477 19 18 19.4477 18 20C18 20.5523 18.4477 21 19 21C19.5523 21 20 20.5523 20 20ZM17 21C17.5523 21 18 21.4477 18 22C18 22.5523 17.5523 23 17 23C16.4477 23 16 22.5523 16 22C16 21.4477 16.4477 21 17 21ZM11 22C11 20.3431 9.65685 19 8 19C6.34315 19 5 20.3431 5 22C5 23.6569 6.34315 25 8 25C9.65685 25 11 23.6569 11 22Z" fill="black"/>
<path d="M11 9V3" stroke="black" stroke-width="2" stroke-linecap="round"/>
<path d="M8 6L11 3L14 6" stroke="black" stroke-width="2" stroke-linecap="round" stroke-linejoin="round"/>
<path d="M21 13V7" stroke="black" stroke-width="2" stroke-linecap="round"/>
<path d="M18 10L21 7L24 10" stroke="black" stroke-width="2" stroke-linecap="round" stroke-linejoin="round"/>
</g>
<defs>
<clipPath id="clip0">
<rect width="32" height="32" fill="white"/>
</clipPath>
</defs>
</svg>
