<svg width="32" height="32" viewBox="0 0 32 32" fill="none" xmlns="http://www.w3.org/2000/svg">
<g clip-path="url(#clip0)">
<path d="M12.7706 21H19.4673V19.0014H15.2315V10.8182H12.7706V21Z" fill="black"/>
<circle cx="16" cy="16" r="9" stroke="black" stroke-width="2"/>
<path d="M0.3698 15.4453C0.145867 15.7812 0.145867 16.2188 0.3698 16.5547L2.16795 19.2519C2.71678 20.0752 4 19.6866 4 18.6972L4 13.3028C4 12.3134 2.71677 11.9248 2.16795 12.7481L0.3698 15.4453Z" fill="black"/>
<path d="M31.6302 15.4453C31.8541 15.7812 31.8541 16.2188 31.6302 16.5547L29.832 19.2519C29.2832 20.0752 28 19.6866 28 18.6972L28 13.3028C28 12.3134 29.2832 11.9248 29.8321 12.7481L31.6302 15.4453Z" fill="black"/>
<path d="M27.2583 22.5C25.5344 25.4859 22.695 27.6647 19.3646 28.557" stroke="black" stroke-width="2" stroke-linecap="round"/>
<path d="M4.74167 22.5C6.46558 25.4859 9.30502 27.6647 12.6354 28.557" stroke="black" stroke-width="2" stroke-linecap="round"/>
<path d="M4.74167 9.5C6.46558 6.51411 9.30502 4.33532 12.6354 3.44296" stroke="black" stroke-width="2" stroke-linecap="round"/>
<path d="M27.2583 9.5C25.5344 6.51411 22.695 4.33532 19.3646 3.44296" stroke="black" stroke-width="2" stroke-linecap="round"/>
</g>
<defs>
<clipPath id="clip0">
<rect width="32" height="32" fill="white"/>
</clipPath>
</defs>
</svg>
