<svg width="32" height="32" viewBox="0 0 32 32" fill="none" xmlns="http://www.w3.org/2000/svg">
<path d="M11.7706 21H14.2315V17.5149H15.4943L17.3537 21H20.0384L17.9254 17.1222C19.044 16.6151 19.6903 15.6158 19.6903 14.2088C19.6903 12.1158 18.2635 10.8182 15.9766 10.8182H11.7706V21ZM14.2315 15.576V12.8018H15.4446C16.5483 12.8018 17.1399 13.2642 17.1399 14.2088C17.1399 15.1534 16.5483 15.576 15.4446 15.576H14.2315Z" fill="black"/>
<circle cx="16" cy="16" r="9" stroke="black" stroke-width="2"/>
<path d="M31.6302 16.5547C31.8541 16.2188 31.8541 15.7812 31.6302 15.4453L29.832 12.7481C29.2832 11.9248 28 12.3134 28 13.3028V18.6972C28 19.6866 29.2832 20.0752 29.8321 19.2519L31.6302 16.5547Z" fill="black"/>
<path d="M27.2583 22.5C25.5344 25.4859 22.695 27.6647 19.3646 28.557" stroke="black" stroke-width="2" stroke-linecap="round"/>
<path d="M3.44296 19.3646C4.03358 21.5689 5.19401 23.5788 6.80761 25.1924C8.42121 26.806 10.4311 27.9664 12.6354 28.557" stroke="black" stroke-width="2" stroke-linecap="round"/>
<path d="M3.44296 12.6354C4.03358 10.4311 5.19401 8.42121 6.80761 6.80761C8.42121 5.19401 10.4311 4.03358 12.6354 3.44296" stroke="black" stroke-width="2" stroke-linecap="round"/>
<path d="M27.2583 9.5C25.5344 6.51411 22.695 4.33532 19.3646 3.44296" stroke="black" stroke-width="2" stroke-linecap="round"/>
</svg>
