<svg width="32" height="32" viewBox="0 0 32 32" fill="none" xmlns="http://www.w3.org/2000/svg">
<g clip-path="url(#clip0)">
<path d="M11.7706 21H14.2315V17.5149H15.4943L17.3537 21H20.0384L17.9254 17.1222C19.044 16.6151 19.6903 15.6158 19.6903 14.2088C19.6903 12.1158 18.2635 10.8182 15.9766 10.8182H11.7706V21ZM14.2315 15.576V12.8018H15.4446C16.5483 12.8018 17.1399 13.2642 17.1399 14.2088C17.1399 15.1534 16.5483 15.576 15.4446 15.576H14.2315Z" fill="black"/>
<circle cx="16" cy="16" r="9" stroke="black" stroke-width="2"/>
<path d="M16.5547 31.6302C16.2188 31.8541 15.7812 31.8541 15.4453 31.6302L12.7481 29.832C11.9248 29.2832 12.3134 28 13.3028 28L18.6972 28C19.6866 28 20.0752 29.2832 19.2519 29.8321L16.5547 31.6302Z" fill="black"/>
<path d="M28.557 19.3646C28.1152 21.0137 27.3529 22.5595 26.3136 23.9139C25.2743 25.2683 23.9785 26.4047 22.5 27.2583" stroke="black" stroke-width="2" stroke-linecap="round"/>
<path d="M3.44296 19.3646C3.88482 21.0137 4.64714 22.5595 5.68641 23.9139C6.72567 25.2683 8.02154 26.4047 9.5 27.2583" stroke="black" stroke-width="2" stroke-linecap="round"/>
<path d="M3.44296 12.6354C4.03358 10.4311 5.19401 8.42121 6.80761 6.80761C8.42121 5.19401 10.4311 4.03358 12.6354 3.44296" stroke="black" stroke-width="2" stroke-linecap="round"/>
<path d="M28.557 12.6354C27.9664 10.4311 26.806 8.42121 25.1924 6.80761C23.5788 5.19401 21.5689 4.03358 19.3646 3.44296" stroke="black" stroke-width="2" stroke-linecap="round"/>
</g>
<defs>
<clipPath id="clip0">
<rect width="32" height="32" fill="white"/>
</clipPath>
</defs>
</svg>
