<svg width="32" height="32" viewBox="0 0 32 32" fill="none" xmlns="http://www.w3.org/2000/svg">
<circle cx="16" cy="26" r="5" stroke="black" stroke-width="2"/>
<circle cx="16" cy="6" r="5" stroke="black" stroke-width="2"/>
<circle cx="26" cy="16" r="5" stroke="black" stroke-width="2"/>
<circle cx="6" cy="16" r="5" stroke="black" stroke-width="2"/>
<path d="M13.2998 6.3753L15.2191 3.97609C15.6195 3.47568 16.3805 3.47568 16.7809 3.97609L18.7002 6.37531C19.2241 7.03007 18.7579 8 17.9194 8H14.0806C13.2421 8 12.7759 7.03007 13.2998 6.3753Z" fill="black"/>
<path d="M13.2998 25.6247L15.2191 28.0239C15.6195 28.5243 16.3805 28.5243 16.7809 28.0239L18.7002 25.6247C19.2241 24.9699 18.7579 24 17.9194 24H14.0806C13.2421 24 12.7759 24.9699 13.2998 25.6247Z" fill="black"/>
<path d="M6.3753 18.7002L3.97609 16.7809C3.47568 16.3805 3.47568 15.6195 3.97609 15.2191L6.37531 13.2998C7.03007 12.7759 8 13.2421 8 14.0806L8 17.9194C8 18.7579 7.03007 19.2241 6.3753 18.7002Z" fill="black"/>
<path d="M25.6247 18.7002L28.0239 16.7809C28.5243 16.3805 28.5243 15.6195 28.0239 15.2191L25.6247 13.2998C24.9699 12.7759 24 13.2421 24 14.0806L24 17.9194C24 18.7579 24.9699 19.2241 25.6247 18.7002Z" fill="black"/>
</svg>
