<svg width="32" height="32" viewBox="0 0 32 32" fill="none" xmlns="http://www.w3.org/2000/svg">
<g clip-path="url(#clip0)">
<path d="M12.7706 21H19.4673V19.0014H15.2315V10.8182H12.7706V21Z" fill="black"/>
<circle cx="16" cy="16" r="9" stroke="black" stroke-width="2"/>
<path d="M16.5547 31.6302C16.2188 31.8541 15.7812 31.8541 15.4453 31.6302L12.7481 29.832C11.9248 29.2832 12.3134 28 13.3028 28L18.6972 28C19.6866 28 20.0752 29.2832 19.2519 29.8321L16.5547 31.6302Z" fill="black"/>
<path d="M28.557 19.3646C28.1152 21.0137 27.3529 22.5595 26.3136 23.9139C25.2743 25.2683 23.9785 26.4047 22.5 27.2583" stroke="black" stroke-width="2" stroke-linecap="round"/>
<path d="M3.44296 19.3646C3.88482 21.0137 4.64714 22.5595 5.68641 23.9139C6.72567 25.2683 8.02154 26.4047 9.5 27.2583" stroke="black" stroke-width="2" stroke-linecap="round"/>
<path d="M3.44296 12.6354C4.03358 10.4311 5.19401 8.42121 6.80761 6.80761C8.42121 5.19401 10.4311 4.03358 12.6354 3.44296" stroke="black" stroke-width="2" stroke-linecap="round"/>
<path d="M28.557 12.6354C27.9664 10.4311 26.806 8.42121 25.1924 6.80761C23.5788 5.19401 21.5689 4.03358 19.3646 3.44296" stroke="black" stroke-width="2" stroke-linecap="round"/>
</g>
<defs>
<clipPath id="clip0">
<rect width="32" height="32" fill="white"/>
</clipPath>
</defs>
</svg>
