<svg width="256" height="160" viewBox="0 0 256 160" fill="none" xmlns="http://www.w3.org/2000/svg">
<path fill-rule="evenodd" clip-rule="evenodd" d="M147.998 98C143.141 94.3511 140 88.5424 140 82C140 70.9543 148.954 62 160 62C165.132 62 169.812 63.9326 173.352 67.1096C170.005 62.9841 168 57.7263 168 52C168 38.7452 178.745 28 192 28C205.255 28 216 38.7452 216 52C216 65.2548 205.255 76 192 76C185.717 76 179.998 73.5859 175.72 69.6347C178.401 73.0376 180 77.3321 180 82C180 88.0056 177.353 93.393 173.162 97.059C174.641 97.6419 176.529 99.5598 177.322 101.18L186.653 127.974L186.78 127.759C194.281 132.203 203.445 130.929 210.772 128.966C223.949 125.435 230.014 119.423 229.956 112.409L230.329 112.406C229.104 95.7523 227.053 71.9264 219 45C217.804 41 211.5 29 205.627 22.896C201.421 20.5795 195.711 19.4539 189.872 19.4706C184.032 19.4873 177.721 20.7499 173 23H162.732C162.903 23.2942 163 23.6357 163 24V56C163 58.2091 161.209 60 159 60H97C94.7909 60 93 58.2091 93 56V24C93 23.6357 93.0974 23.2942 93.2676 23H83C78.2791 20.7499 71.9676 19.4873 66.1283 19.4706C60.289 19.4539 54.5789 20.5795 50.3728 22.896C44.5 29 38.1963 41 37 45C28.9469 71.9264 26.8957 95.7523 25.6711 112.406L26.0439 112.409C25.9859 119.423 32.0505 125.435 45.2278 128.966C52.5546 130.929 61.7186 132.203 69.2201 127.759L69.3475 127.974L78.6778 101.18C79.4707 99.5598 81.3591 97.6419 82.838 97.059C78.647 93.393 76 88.0056 76 82C76 77.3321 77.5992 73.0376 80.2796 69.6347C76.0016 73.5859 70.2827 76 64 76C50.7452 76 40 65.2548 40 52C40 38.7452 50.7452 28 64 28C77.2548 28 88 38.7452 88 52C88 57.7263 85.9946 62.9841 82.6477 67.1096C86.1884 63.9326 90.8685 62 96 62C107.046 62 116 70.9543 116 82C116 88.5424 112.859 94.3511 108.002 98H147.998ZM25.4727 115.129L25.4725 115.132L25.4721 115.137L25.4721 115.138C25.3089 117.389 25.1564 119.492 25 121.433C24.9996 124.427 25.5891 127.392 26.7347 130.159C27.8803 132.925 29.5597 135.439 31.6768 137.557C33.794 139.674 36.3076 141.354 39.074 142.5C41.8404 143.646 44.8055 144.236 47.7999 144.236C57.8564 144.236 65.9651 138.447 69.2353 128.329C61.5925 132.716 52.3667 131.396 45.0984 129.449C32.5662 126.091 26.1697 120.42 25.5873 113.552C25.5484 114.086 25.5103 114.611 25.4727 115.129ZM210.902 129.449C223.434 126.091 229.83 120.42 230.413 113.552C230.449 114.051 230.485 114.543 230.52 115.028L230.528 115.138L230.528 115.138L230.528 115.139L230.528 115.141C230.691 117.392 230.844 119.493 231 121.433C231 124.427 230.411 127.392 229.265 130.159C228.12 132.925 226.44 135.439 224.323 137.557C222.206 139.674 219.692 141.354 216.926 142.5C214.16 143.646 211.195 144.236 208.2 144.236C198.144 144.236 190.035 138.447 186.765 128.329C194.408 132.716 203.633 131.396 210.902 129.449ZM128.537 79.9483L128.532 84.574L127.358 84.1709L127.35 78.7576L128.848 79.176C129.807 79.4481 130.394 79.9771 130.385 80.9043C130.375 81.9828 129.874 82.4011 129.025 82.0067V80.0074C129.025 79.7124 128.536 79.497 128.536 79.9483H128.537ZM127.111 82.0472L127.111 82.047L127.111 82.0462V82.0472ZM126.934 82.1039L127.111 82.0472V82.7567L125.819 83.2455C125.579 83.3281 125.691 83.4826 125.932 83.4839L126.256 83.4857C126.539 83.4061 126.818 83.3112 127.091 83.2017V83.8436C126.697 83.9411 126.287 83.9579 125.886 83.893C125.106 83.7626 124.573 83.5972 124.564 83.2571C124.566 83.0138 124.812 82.9033 125.125 82.7623C125.158 82.7475 125.192 82.7324 125.226 82.7167L126.934 82.1039ZM130.147 82.3364C129.676 82.3406 129.209 82.4301 128.769 82.6005V83.331L129.581 83.034L130.224 82.8296C130.894 82.7192 131.161 82.9532 130.508 83.1487L128.769 83.785L128.767 84.4933L131.308 83.5792C131.588 83.4816 131.982 83.2843 131.983 83.0416C131.915 82.6658 131.35 82.4467 130.473 82.3538C130.394 82.3457 130.315 82.3406 130.236 82.3381C130.228 82.3381 130.219 82.338 130.21 82.3378L130.188 82.3373C130.174 82.3369 130.161 82.3365 130.147 82.3364ZM132.882 81.6361C132.882 84.2269 130.782 86.3273 128.191 86.3273C125.6 86.3273 123.5 84.2269 123.5 81.6361C123.5 79.0452 125.6 76.9448 128.191 76.9448C130.782 76.9448 132.882 79.0452 132.882 81.6361ZM133.382 81.6361C133.382 84.5031 131.058 86.8273 128.191 86.8273C125.324 86.8273 123 84.5031 123 81.6361C123 78.769 125.324 76.4448 128.191 76.4448C131.058 76.4448 133.382 78.769 133.382 81.6361ZM64 75.5C51.0213 75.5 40.5 64.9787 40.5 52C40.5 39.0213 51.0213 28.5 64 28.5C76.9787 28.5 87.5 39.0213 87.5 52C87.5 64.9787 76.9787 75.5 64 75.5ZM59.1148 36.1533C59.5176 35.7679 60.0445 35.5002 60.7116 35.3803C62.8986 35.2066 65.0965 35.2066 67.2834 35.3803C67.9507 35.4999 68.4789 35.7675 68.883 36.153C69.2812 36.533 69.5702 37.0383 69.7471 37.6571L69.1966 44.1493C69.0812 44.4692 68.8865 44.7579 68.6285 44.9898L68.6285 44.9897L68.6249 44.9931L64.8983 48.4776C64.6356 48.6555 64.3216 48.751 63.9993 48.75L63.9979 48.75C63.677 48.7507 63.3646 48.655 63.1037 48.4772L59.3757 44.9933L59.3758 44.9932L59.3722 44.99C59.1143 44.7581 58.9196 44.4694 58.8041 44.1495L58.2529 37.6571C58.4298 37.0383 58.7177 36.5331 59.1148 36.1533ZM67.3351 34.8829C65.1138 34.7057 62.8812 34.7057 60.6598 34.8829L60.6479 34.8838L60.6362 34.8859C59.877 35.0201 59.2532 35.3289 58.7691 35.792C58.286 36.2541 57.954 36.8585 57.759 37.5668L57.7471 37.6098L57.7509 37.6543L58.3086 44.2236L58.3112 44.2545L58.3213 44.2838C58.4631 44.6958 58.7092 45.0657 59.036 45.3602L62.7758 48.8552L62.7889 48.8673L62.8035 48.8776C63.1523 49.1209 63.5704 49.2508 63.9984 49.25L63.9977 49.25L63.9985 49L63.999 49.25L63.9984 49.25C64.4277 49.2512 64.8472 49.1216 65.1977 48.8786L65.2127 48.8682L65.226 48.8558L68.9646 45.36C69.2916 45.0656 69.5376 44.6956 69.6794 44.2835L69.6895 44.2542L69.6921 44.2233L70.2491 37.6542L70.2529 37.6098L70.241 37.5667C70.0458 36.8579 69.7125 36.2533 69.2281 35.7913C68.7429 35.3283 68.1179 35.0197 67.3587 34.8859L67.347 34.8838L67.3351 34.8829ZM64.3536 30.3536L66.1464 32.1464C66.4614 32.4614 66.2383 33 65.7929 33H62.2071C61.7617 33 61.5386 32.4614 61.8536 32.1464L63.6464 30.3536C63.8417 30.1583 64.1583 30.1583 64.3536 30.3536ZM59.1148 67.8467C59.5176 68.2321 60.0445 68.4998 60.7116 68.6197C62.8986 68.7934 65.0965 68.7934 67.2834 68.6197C67.9507 68.5001 68.4789 68.2325 68.883 67.847C69.2812 67.467 69.5702 66.9617 69.7471 66.3429L69.1966 59.8507C69.0812 59.5308 68.8865 59.2421 68.6285 59.0102L68.6285 59.0103L68.6249 59.0069L64.8983 55.5224C64.6356 55.3445 64.3216 55.249 63.9993 55.25H63.9979C63.677 55.2493 63.3646 55.345 63.1037 55.5228L59.3757 59.0067L59.3758 59.0068L59.3722 59.01C59.1143 59.2419 58.9196 59.5306 58.8041 59.8505L58.2529 66.3429C58.4298 66.9617 58.7177 67.4669 59.1148 67.8467ZM67.3351 69.1171C65.1138 69.2943 62.8812 69.2943 60.6598 69.1171L60.6479 69.1162L60.6362 69.1141C59.877 68.9799 59.2532 68.6711 58.7691 68.208C58.286 67.7459 57.954 67.1415 57.759 66.4332L57.7471 66.3902L57.7509 66.3457L58.3086 59.7764L58.3112 59.7455L58.3213 59.7162C58.4631 59.3042 58.7092 58.9343 59.036 58.6398L62.7758 55.1448L62.7889 55.1327L62.8035 55.1224C63.1523 54.8791 63.5704 54.7492 63.9984 54.75L63.9977 54.75L63.9985 55L63.999 54.75L63.9984 54.75C64.4277 54.7488 64.8472 54.8784 65.1977 55.1214L65.2127 55.1318L65.226 55.1442L68.9646 58.64C69.2916 58.9344 69.5376 59.3044 69.6794 59.7165L69.6895 59.7458L69.6921 59.7767L70.2491 66.3458L70.2529 66.3902L70.241 66.4333C70.0458 67.1421 69.7125 67.7467 69.2281 68.2087C68.7429 68.6717 68.1179 68.9803 67.3587 69.1141L67.347 69.1162L67.3351 69.1171ZM64.3536 73.6464L66.1464 71.8536C66.4614 71.5386 66.2383 71 65.7929 71H62.2071C61.7617 71 61.5386 71.5386 61.8536 71.8536L63.6464 73.6464C63.8417 73.8417 64.1583 73.8417 64.3536 73.6464ZM79.8467 56.8852C80.2321 56.4824 80.4998 55.9555 80.6197 55.2884C80.7934 53.1014 80.7934 50.9035 80.6197 48.7166C80.5001 48.0493 80.2325 47.5211 79.847 47.117C79.467 46.7188 78.9617 46.4298 78.3429 46.2529L71.8507 46.8034C71.5308 46.9188 71.2421 47.1135 71.0102 47.3715L71.0103 47.3715L71.0069 47.3751L67.5224 51.1017C67.3445 51.3644 67.249 51.6784 67.25 52.0007V52.0021C67.2493 52.323 67.345 52.6354 67.5228 52.8963L71.0067 56.6243L71.0068 56.6242L71.01 56.6278C71.2419 56.8857 71.5306 57.0805 71.8505 57.1959L78.3429 57.7471C78.9617 57.5702 79.4669 57.2823 79.8467 56.8852ZM81.1171 48.6649C81.2943 50.8862 81.2943 53.1188 81.1171 55.3402L81.1162 55.3521L81.1141 55.3638C80.9799 56.123 80.6711 56.7468 80.208 57.2309C79.7459 57.714 79.1415 58.046 78.4332 58.241L78.3902 58.2529L78.3457 58.2491L71.7764 57.6914L71.7455 57.6888L71.7162 57.6787C71.3042 57.5369 70.9343 57.2908 70.6398 56.964L67.1448 53.2242L67.1327 53.2111L67.1224 53.1965C66.8791 52.8477 66.7492 52.4296 66.75 52.0016L66.75 52.0023L67 52.0015L66.75 52.001L66.75 52.0016C66.7488 51.5723 66.8784 51.1528 67.1214 50.8023L67.1318 50.7873L67.1442 50.774L70.64 47.0354C70.9344 46.7084 71.3044 46.4624 71.7165 46.3206L71.7458 46.3105L71.7767 46.3079L78.3458 45.7509L78.3902 45.7471L78.4333 45.759C79.1421 45.9542 79.7467 46.2875 80.2087 46.7719C80.6717 47.2571 80.9803 47.8821 81.1141 48.6413L81.1162 48.653L81.1171 48.6649ZM85.6464 51.6464L83.8536 49.8536C83.5386 49.5386 83 49.7617 83 50.2071V53.7929C83 54.2383 83.5386 54.4614 83.8536 54.1464L85.6464 52.3536C85.8417 52.1583 85.8417 51.8417 85.6464 51.6464ZM48.1533 56.8852C47.7679 56.4824 47.5002 55.9555 47.3803 55.2884C47.2066 53.1014 47.2066 50.9035 47.3803 48.7166C47.4999 48.0493 47.7675 47.5211 48.153 47.117C48.533 46.7188 49.0383 46.4298 49.6571 46.2529L56.1493 46.8034C56.4692 46.9188 56.7579 47.1135 56.9898 47.3715L56.9897 47.3715L56.9931 47.3751L60.4776 51.1017C60.6555 51.3644 60.751 51.6784 60.75 52.0007V52.0021C60.7507 52.323 60.655 52.6354 60.4772 52.8963L56.9933 56.6243L56.9932 56.6242L56.99 56.6278C56.7581 56.8857 56.4694 57.0805 56.1495 57.1959L49.6571 57.7471C49.0383 57.5702 48.5331 57.2823 48.1533 56.8852ZM46.8829 48.6649C46.7057 50.8862 46.7057 53.1188 46.8829 55.3402L46.8838 55.3521L46.8859 55.3638C47.0201 56.123 47.3289 56.7468 47.792 57.2309C48.2541 57.714 48.8585 58.046 49.5668 58.241L49.6098 58.2529L49.6543 58.2491L56.2236 57.6914L56.2545 57.6888L56.2838 57.6787C56.6958 57.5369 57.0657 57.2908 57.3602 56.964L60.8552 53.2242L60.8673 53.2111L60.8776 53.1965C61.1209 52.8477 61.2508 52.4296 61.25 52.0016C61.2512 51.5723 61.1216 51.1528 60.8786 50.8023L60.8682 50.7873L60.8558 50.774L57.36 47.0354C57.0656 46.7084 56.6956 46.4624 56.2835 46.3206L56.2542 46.3105L56.2233 46.3079L49.6542 45.7509L49.6098 45.7471L49.5667 45.759C48.8579 45.9542 48.2533 46.2875 47.7913 46.7719C47.3283 47.2571 47.0197 47.8821 46.8859 48.6413L46.8838 48.653L46.8829 48.6649ZM61.25 52.0016L61.25 52.0023L61 52.0015L61.25 52.001L61.25 52.0016ZM42.3536 51.6464L44.1464 49.8536C44.4614 49.5386 45 49.7617 45 50.2071V53.7929C45 54.2383 44.4614 54.4614 44.1464 54.1464L42.3536 52.3536C42.1583 52.1583 42.1583 51.8417 42.3536 51.6464ZM215.5 52C215.5 64.9787 204.979 75.5 192 75.5C179.021 75.5 168.5 64.9787 168.5 52C168.5 39.0213 179.021 28.5 192 28.5C204.979 28.5 215.5 39.0213 215.5 52ZM192 73.5C195.59 73.5 198.5 70.5899 198.5 67C198.5 63.4101 195.59 60.5 192 60.5C188.41 60.5 185.5 63.4101 185.5 67C185.5 70.5899 188.41 73.5 192 73.5ZM192 74C195.866 74 199 70.866 199 67C199 63.134 195.866 60 192 60C188.134 60 185 63.134 185 67C185 70.866 188.134 74 192 74ZM189.354 63.6464C189.158 63.4512 188.842 63.4512 188.646 63.6464C188.451 63.8417 188.451 64.1583 188.646 64.3536L191.293 67L188.646 69.6464C188.451 69.8417 188.451 70.1583 188.646 70.3536C188.842 70.5488 189.158 70.5488 189.354 70.3536L192 67.7071L194.646 70.3536C194.842 70.5488 195.158 70.5488 195.354 70.3536C195.549 70.1583 195.549 69.8417 195.354 69.6464L192.707 67L195.354 64.3536C195.549 64.1583 195.549 63.8417 195.354 63.6464C195.158 63.4512 194.842 63.4512 194.646 63.6464L192 66.2929L189.354 63.6464ZM183.5 52C183.5 55.5899 180.59 58.5 177 58.5C173.41 58.5 170.5 55.5899 170.5 52C170.5 48.4101 173.41 45.5 177 45.5C180.59 45.5 183.5 48.4101 183.5 52ZM184 52C184 55.866 180.866 59 177 59C173.134 59 170 55.866 170 52C170 48.134 173.134 45 177 45C180.866 45 184 48.134 184 52ZM174 48C173.448 48 173 48.4477 173 49V55C173 55.5523 173.448 56 174 56H180C180.552 56 181 55.5523 181 55V49C181 48.4477 180.552 48 180 48H174ZM198.5 37C198.5 40.5899 195.59 43.5 192 43.5C188.41 43.5 185.5 40.5899 185.5 37C185.5 33.4101 188.41 30.5 192 30.5C195.59 30.5 198.5 33.4101 198.5 37ZM199 37C199 40.866 195.866 44 192 44C188.134 44 185 40.866 185 37C185 33.134 188.134 30 192 30C195.866 30 199 33.134 199 37ZM192 32.5C192.179 32.5 192.345 32.5961 192.434 32.7519L196.434 39.7519C196.523 39.9067 196.522 40.0968 196.432 40.251C196.343 40.4051 196.178 40.5 196 40.5H188C187.822 40.5 187.657 40.4051 187.568 40.251C187.478 40.0968 187.477 39.9067 187.566 39.7519L191.566 32.7519C191.655 32.5961 191.821 32.5 192 32.5ZM195.138 39.5L192 34.0078L188.862 39.5H195.138ZM213.5 52C213.5 55.5899 210.59 58.5 207 58.5C203.41 58.5 200.5 55.5899 200.5 52C200.5 48.4101 203.41 45.5 207 45.5C210.59 45.5 213.5 48.4101 213.5 52ZM180 49H174V55H180V49ZM214 52C214 55.866 210.866 59 207 59C203.134 59 200 55.866 200 52C200 48.134 203.134 45 207 45C210.866 45 214 48.134 214 52ZM207 55C208.657 55 210 53.6569 210 52C210 50.3431 208.657 49 207 49C205.343 49 204 50.3431 204 52C204 53.6569 205.343 55 207 55ZM207 56C209.209 56 211 54.2091 211 52C211 49.7909 209.209 48 207 48C204.791 48 203 49.7909 203 52C203 54.2091 204.791 56 207 56ZM170.5 28V32C170.5 33.3807 169.381 34.5 168 34.5C166.619 34.5 165.5 33.3807 165.5 32V28C165.5 26.6193 166.619 25.5 168 25.5C169.381 25.5 170.5 26.6193 170.5 28ZM165 28C165 26.3431 166.343 25 168 25C169.657 25 171 26.3431 171 28V32C171 33.6569 169.657 35 168 35C166.343 35 165 33.6569 165 32V28ZM85.5 32V28C85.5 26.6193 86.6193 25.5 88 25.5C89.3807 25.5 90.5 26.6193 90.5 28V32C90.5 33.3807 89.3807 34.5 88 34.5C86.6193 34.5 85.5 33.3807 85.5 32ZM88 25C89.6569 25 91 26.3431 91 28V32C91 33.6569 89.6569 35 88 35C86.3431 35 85 33.6569 85 32V28C85 26.3431 86.3431 25 88 25ZM136 66C136.552 66 137 65.5523 137 65C137 64.4477 136.552 64 136 64C135.448 64 135 64.4477 135 65C135 65.5523 135.448 66 136 66ZM129 65C129 65.5523 128.552 66 128 66C127.448 66 127 65.5523 127 65C127 64.4477 127.448 64 128 64C128.552 64 129 64.4477 129 65ZM124 66C124.552 66 125 65.5523 125 65C125 64.4477 124.552 64 124 64C123.448 64 123 64.4477 123 65C123 65.5523 123.448 66 124 66ZM121 65C121 65.5523 120.552 66 120 66C119.448 66 119 65.5523 119 65C119 64.4477 119.448 64 120 64C120.552 64 121 64.4477 121 65ZM126 69C126.552 69 127 68.5523 127 68C127 67.4477 126.552 67 126 67C125.448 67 125 67.4477 125 68C125 68.5523 125.448 69 126 69ZM123 68C123 68.5523 122.552 69 122 69C121.448 69 121 68.5523 121 68C121 67.4477 121.448 67 122 67C122.552 67 123 67.4477 123 68ZM130 69C130.552 69 131 68.5523 131 68C131 67.4477 130.552 67 130 67C129.448 67 129 67.4477 129 68C129 68.5523 129.448 69 130 69ZM135 68C135 68.5523 134.552 69 134 69C133.448 69 133 68.5523 133 68C133 67.4477 133.448 67 134 67C134.552 67 135 67.4477 135 68ZM132 72C132.552 72 133 71.5523 133 71C133 70.4477 132.552 70 132 70C131.448 70 131 70.4477 131 71C131 71.5523 131.448 72 132 72ZM129 71C129 71.5523 128.552 72 128 72C127.448 72 127 71.5523 127 71C127 70.4477 127.448 70 128 70C128.552 70 129 70.4477 129 71ZM124 72C124.552 72 125 71.5523 125 71C125 70.4477 124.552 70 124 70C123.448 70 123 70.4477 123 71C123 71.5523 123.448 72 124 72ZM133 65C133 65.5523 132.552 66 132 66C131.448 66 131 65.5523 131 65C131 64.4477 131.448 64 132 64C132.552 64 133 64.4477 133 65Z" fill="black"/>
<path fill-rule="evenodd" clip-rule="evenodd" d="M179 82C179 92.4934 170.493 101 160 101C149.507 101 141 92.4934 141 82C141 71.5066 149.507 63 160 63C170.493 63 179 71.5066 179 82ZM160 94C166.627 94 172 88.6274 172 82C172 75.3726 166.627 70 160 70C153.373 70 148 75.3726 148 82C148 88.6274 153.373 94 160 94ZM160 95C167.18 95 173 89.1797 173 82C173 74.8203 167.18 69 160 69C152.82 69 147 74.8203 147 82C147 89.1797 152.82 95 160 95ZM167.5 82C167.5 86.1421 164.142 89.5 160 89.5C155.858 89.5 152.5 86.1421 152.5 82C152.5 77.8579 155.858 74.5 160 74.5C164.142 74.5 167.5 77.8579 167.5 82ZM168 82C168 86.4183 164.418 90 160 90C155.582 90 152 86.4183 152 82C152 77.5817 155.582 74 160 74C164.418 74 168 77.5817 168 82Z" fill="black"/>
<path fill-rule="evenodd" clip-rule="evenodd" d="M77 82C77 92.4934 85.5066 101 96 101C106.493 101 115 92.4934 115 82C115 71.5066 106.493 63 96 63C85.5066 63 77 71.5066 77 82ZM96 94C89.3726 94 84 88.6274 84 82C84 75.3726 89.3726 70 96 70C102.627 70 108 75.3726 108 82C108 88.6274 102.627 94 96 94ZM96 95C88.8203 95 83 89.1797 83 82C83 74.8203 88.8203 69 96 69C103.18 69 109 74.8203 109 82C109 89.1797 103.18 95 96 95ZM103.5 82C103.5 86.1421 100.142 89.5 96 89.5C91.8579 89.5 88.5 86.1421 88.5 82C88.5 77.8579 91.8579 74.5 96 74.5C100.142 74.5 103.5 77.8579 103.5 82ZM104 82C104 86.4183 100.418 90 96 90C91.5817 90 88 86.4183 88 82C88 77.5817 91.5817 74 96 74C100.418 74 104 77.5817 104 82Z" fill="black"/>
<path fill-rule="evenodd" clip-rule="evenodd" d="M203.466 21.3215V19.5C198 15 180 15.5 178.101 19V20.5899C181.836 19.5451 185.96 18.9818 189.87 18.9706C194.727 18.9567 199.521 19.7245 203.466 21.3215ZM203.466 22.4041C199.61 20.7651 194.802 19.9565 189.873 19.9706C185.945 19.9818 181.807 20.5634 178.101 21.6294V25H203.466V22.4041Z" fill="black"/>
<path fill-rule="evenodd" clip-rule="evenodd" d="M52.5342 21.3215V19.5C58 15 76 15.5 77.8987 19V20.5899C74.1643 19.5451 70.0398 18.9818 66.1297 18.9706C61.2731 18.9567 56.479 19.7245 52.5342 21.3215ZM52.5342 22.4041C56.3905 20.7651 61.1983 19.9565 66.1269 19.9706C70.0545 19.9818 74.1929 20.5634 77.8987 21.6294V25H52.5342V22.4041Z" fill="black"/>
<path d="M93.25 24C93.25 23.0335 94.0335 22.25 95 22.25H161C161.966 22.25 162.75 23.0335 162.75 24V56C162.75 58.0711 161.071 59.75 159 59.75H97C94.9289 59.75 93.25 58.0711 93.25 56V24Z" stroke="black" stroke-width="0.5"/>
<path d="M94 24C94 23.4477 94.4477 23 95 23H161C161.552 23 162 23.4477 162 24V56C162 57.6569 160.657 59 159 59H97C95.3431 59 94 57.6569 94 56V24Z" fill="black"/>
</svg>
