<svg width="256" height="160" viewBox="0 0 256 160" fill="none" xmlns="http://www.w3.org/2000/svg">
<path d="M203.466 21.8625V19.5C198 15 180 15.5 178.101 19V21.105" stroke="black" stroke-width="0.5"/>
<path d="M52.5342 21.8625V19.5C58 15 76 15.5 77.8987 19V21.105" stroke="black" stroke-width="0.5"/>
<path d="M173 97C174.5 97.5 176.5 99.5 177.322 101.18L186.653 127.974C189.847 138.311 198.027 144.236 208.2 144.236C211.195 144.236 214.16 143.646 216.926 142.5C219.692 141.354 222.206 139.674 224.323 137.557C226.44 135.439 228.12 132.925 229.265 130.159C230.411 127.392 231 124.427 231 121.433C229.682 105.076 228.649 77.2639 219 45C217.804 41 211.5 29 205.627 22.896C201.421 20.5795 195.711 19.4539 189.872 19.4706C184.032 19.4873 177.721 20.7499 173 23H162.5" stroke="black" stroke-width="0.5"/>
<path d="M83 97C81.5 97.5 79.5 99.5 78.6778 101.18L69.3475 127.974C66.1534 138.311 57.9734 144.236 47.7999 144.236C44.8055 144.236 41.8404 143.646 39.074 142.5C36.3076 141.354 33.794 139.674 31.6768 137.557C29.5597 135.439 27.8803 132.925 26.7347 130.159C25.5891 127.392 24.9996 124.427 25 121.433C26.3184 105.076 27.3505 77.2639 37 45C38.1963 41 44.5 29 50.3728 22.896C54.5789 20.5795 60.289 19.4539 66.1283 19.4706C71.9676 19.4873 78.2791 20.7499 83 23H93.5" stroke="black" stroke-width="0.5"/>
<path d="M186.653 127.974C194.248 132.473 203.501 131.173 210.837 129.207C224.037 125.67 230.266 119.605 230.206 112.407" stroke="black" stroke-width="0.5"/>
<path d="M69.3475 127.974C61.7523 132.473 52.4987 131.173 45.1631 129.207C31.9628 125.67 25.7344 119.605 25.7939 112.407" stroke="black" stroke-width="0.5"/>
<path d="M107.5 98H148.5" stroke="black" stroke-width="0.5"/>
<circle r="23.75" transform="matrix(-1 0 0 1 64 52)" stroke="black" stroke-width="0.5"/>
<path d="M63.9985 49C63.621 49.0008 63.2529 48.8862 62.9465 48.6725L59.205 45.1759C58.9084 44.9092 58.6858 44.5744 58.5577 44.2024L58 37.6331C58.3707 36.2868 59.2479 35.3851 60.6797 35.1321C62.8878 34.956 65.1071 34.956 67.3153 35.1321C68.7473 35.3845 69.6291 36.2862 70 37.6331L69.443 44.2022C69.315 44.5742 69.0924 44.9091 68.7956 45.1757L65.0552 48.6732C64.7471 48.8869 64.3774 49.0012 63.9985 49Z" stroke="black" stroke-width="0.5"/>
<path d="M63.6464 30.3536C63.8417 30.1583 64.1583 30.1583 64.3536 30.3536L66.1464 32.1464C66.4614 32.4614 66.2383 33 65.7929 33H62.2071C61.7617 33 61.5386 32.4614 61.8536 32.1464L63.6464 30.3536Z" fill="black"/>
<path d="M63.9985 55C63.621 54.9992 63.2529 55.1138 62.9465 55.3275L59.205 58.8241C58.9084 59.0908 58.6858 59.4256 58.5577 59.7976L58 66.3669C58.3707 67.7132 59.2479 68.6149 60.6797 68.8679C62.8878 69.044 65.1071 69.044 67.3153 68.8679C68.7473 68.6155 69.6291 67.7138 70 66.3669L69.443 59.7978C69.315 59.4258 69.0924 59.0909 68.7956 58.8243L65.0552 55.3268C64.7471 55.1131 64.3774 54.9988 63.9985 55Z" stroke="black" stroke-width="0.5"/>
<path d="M63.6464 73.6464C63.8417 73.8417 64.1583 73.8417 64.3536 73.6464L66.1464 71.8536C66.4614 71.5386 66.2383 71 65.7929 71H62.2071C61.7617 71 61.5386 71.5386 61.8536 71.8536L63.6464 73.6464Z" fill="black"/>
<path d="M67 52.0015C66.9992 52.379 67.1138 52.7471 67.3275 53.0535L70.8241 56.795C71.0908 57.0916 71.4256 57.3142 71.7976 57.4423L78.3669 58C79.7132 57.6293 80.6149 56.7521 80.8679 55.3203C81.044 53.1122 81.044 50.8929 80.8679 48.6847C80.6155 47.2527 79.7138 46.3709 78.3669 46L71.7978 46.557C71.4258 46.685 71.0909 46.9076 70.8243 47.2044L67.3268 50.9448C67.1131 51.2529 66.9988 51.6226 67 52.0015Z" stroke="black" stroke-width="0.5"/>
<path d="M85.6464 52.3536C85.8417 52.1583 85.8417 51.8417 85.6464 51.6464L83.8536 49.8536C83.5386 49.5386 83 49.7617 83 50.2071L83 53.7929C83 54.2383 83.5386 54.4614 83.8536 54.1464L85.6464 52.3536Z" fill="black"/>
<path d="M61 52.0015C61.0008 52.379 60.8862 52.7471 60.6725 53.0535L57.1759 56.795C56.9092 57.0916 56.5744 57.3142 56.2024 57.4423L49.6331 58C48.2868 57.6293 47.3851 56.7521 47.1321 55.3203C46.956 53.1122 46.956 50.8929 47.1321 48.6847C47.3845 47.2527 48.2862 46.3709 49.6331 46L56.2022 46.557C56.5742 46.685 56.9091 46.9076 57.1757 47.2044L60.6732 50.9448C60.8869 51.2529 61.0012 51.6226 61 52.0015Z" stroke="black" stroke-width="0.5"/>
<path d="M42.3536 52.3536C42.1583 52.1583 42.1583 51.8417 42.3536 51.6464L44.1464 49.8536C44.4614 49.5386 45 49.7617 45 50.2071L45 53.7929C45 54.2383 44.4614 54.4614 44.1464 54.1464L42.3536 52.3536Z" fill="black"/>
<path d="M128.537 79.9483L128.532 84.574L127.358 84.1709L127.35 78.7576L128.848 79.176C129.807 79.4481 130.394 79.9771 130.385 80.9043C130.375 81.9828 129.874 82.4011 129.025 82.0067V80.0074C129.025 79.7124 128.536 79.497 128.536 79.9483H128.537Z" fill="black"/>
<path d="M127.111 82.047L126.934 82.1039L125.226 82.7167C124.866 82.8815 124.567 82.9882 124.564 83.2571C124.573 83.5972 125.106 83.7626 125.886 83.893C126.287 83.9579 126.697 83.9411 127.091 83.8436V83.2017C126.818 83.3112 126.539 83.4061 126.256 83.4857L125.932 83.4839C125.691 83.4826 125.579 83.3281 125.819 83.2455L127.111 82.7567V82.0462L127.111 82.047Z" fill="black"/>
<path d="M130.147 82.3364C129.676 82.3406 129.209 82.4301 128.769 82.6005V83.331L129.581 83.034L130.224 82.8296C130.894 82.7192 131.161 82.9532 130.508 83.1487L128.769 83.785L128.767 84.4933L131.308 83.5792C131.588 83.4816 131.982 83.2843 131.983 83.0416C131.915 82.6658 131.35 82.4467 130.473 82.3537C130.394 82.3457 130.315 82.3406 130.236 82.3381C130.206 82.3381 130.177 82.3367 130.147 82.3364Z" fill="black"/>
<path d="M133.132 81.636C133.132 84.365 130.92 86.5773 128.191 86.5773C125.462 86.5773 123.25 84.365 123.25 81.636C123.25 78.9071 125.462 76.6948 128.191 76.6948C130.92 76.6948 133.132 78.9071 133.132 81.636Z" stroke="black" stroke-width="0.5"/>
<circle cx="192" cy="52" r="23.75" stroke="black" stroke-width="0.5"/>
<circle cx="192" cy="67" r="6.75" stroke="black" stroke-width="0.5"/>
<path d="M189 64L195 70" stroke="black" stroke-linecap="round"/>
<path d="M195 64L189 70" stroke="black" stroke-linecap="round"/>
<circle cx="177" cy="52" r="6.75" stroke="black" stroke-width="0.5"/>
<rect x="173.5" y="48.5" width="7" height="7" rx="0.5" stroke="black"/>
<circle cx="192" cy="37" r="6.75" stroke="black" stroke-width="0.5"/>
<path d="M188 40L192 33L196 40H188Z" stroke="black" stroke-linejoin="round"/>
<circle cx="207" cy="52" r="6.75" stroke="black" stroke-width="0.5"/>
<circle cx="207" cy="52" r="3.5" stroke="black"/>
<circle cx="160" cy="82" r="19.75" stroke="black" stroke-width="0.5"/>
<circle cx="160" cy="82" r="12.5" stroke="black"/>
<circle cx="160" cy="82" r="7.75" stroke="black" stroke-width="0.5"/>
<circle r="19.75" transform="matrix(-1 0 0 1 96 82)" stroke="black" stroke-width="0.5"/>
<circle r="12.5" transform="matrix(-1 0 0 1 96 82)" stroke="black"/>
<circle cx="96" cy="82" r="7.75" stroke="black" stroke-width="0.5"/>
<path d="M165.25 28C165.25 26.4812 166.481 25.25 168 25.25C169.519 25.25 170.75 26.4812 170.75 28V32C170.75 33.5188 169.519 34.75 168 34.75C166.481 34.75 165.25 33.5188 165.25 32V28Z" stroke="black" stroke-width="0.5"/>
<path d="M90.75 28C90.75 26.4812 89.5188 25.25 88 25.25C86.4812 25.25 85.25 26.4812 85.25 28V32C85.25 33.5188 86.4812 34.75 88 34.75C89.5188 34.75 90.75 33.5188 90.75 32V28Z" stroke="black" stroke-width="0.5"/>
<path d="M93.25 24C93.25 23.0335 94.0335 22.25 95 22.25H161C161.966 22.25 162.75 23.0335 162.75 24V56C162.75 58.0711 161.071 59.75 159 59.75H97C94.9289 59.75 93.25 58.0711 93.25 56V24Z" stroke="black" stroke-width="0.5"/>
<circle cx="136" cy="65" r="1" fill="black"/>
<circle cx="128" cy="65" r="1" fill="black"/>
<circle cx="124" cy="65" r="1" fill="black"/>
<circle cx="120" cy="65" r="1" fill="black"/>
<circle cx="126" cy="68" r="1" fill="black"/>
<circle cx="122" cy="68" r="1" fill="black"/>
<circle cx="130" cy="68" r="1" fill="black"/>
<circle cx="134" cy="68" r="1" fill="black"/>
<circle cx="132" cy="71" r="1" fill="black"/>
<circle cx="128" cy="71" r="1" fill="black"/>
<circle cx="124" cy="71" r="1" fill="black"/>
<circle cx="132" cy="65" r="1" fill="black"/>
</svg>
