<svg width="32" height="32" viewBox="0 0 32 32" fill="none" xmlns="http://www.w3.org/2000/svg">
<path fill-rule="evenodd" clip-rule="evenodd" d="M27.016 13.984C27.016 15.168 27.08 16.256 27.208 17.28C27.336 18.336 27.528 19.328 27.784 20.32C28.072 21.344 28.36 22.304 28.744 23.296C29.128 24.256 29.544 25.248 30.056 26.272L30.152 26.496C30.248 26.688 30.344 26.88 30.44 27.104C30.488 27.216 30.536 27.32 30.584 27.424C30.632 27.528 30.68 27.632 30.728 27.744C30.792 27.968 30.856 28.192 30.92 28.384C30.984 28.608 31.016 28.8 31.016 28.992C31.016 29.472 30.856 29.888 30.6 30.272C30.344 30.624 29.992 30.944 29.608 31.2C29.192 31.456 28.776 31.648 28.296 31.776C27.848 31.936 27.4 32 27.016 32H20.008C18.152 32 16.392 31.808 14.728 31.456C13.064 31.104 11.528 30.56 10.12 29.888C8.712 29.184 7.464 28.32 6.344 27.296C5.192 26.272 4.232 25.088 3.464 23.776C2.664 22.432 2.056 20.96 1.64 19.328C1.224 17.696 1 15.904 1 13.984C1 11.296 1.16 8.608 1.512 5.952C1.53333 5.77067 1.55467 5.59289 1.576 5.41511C1.61867 5.05955 1.66133 4.704 1.704 4.32C1.768 3.776 1.896 3.264 2.024 2.752C2.184 2.24 2.44 1.792 2.792 1.44C3.144 1.088 3.56 0.8 4.008 0.576C4.488 0.384 4.968 0.224 5.48 0.128C5.992 0.0320003 6.504 0 7.016 0H25C25.448 0 25.928 0.0640009 26.408 0.224001C26.888 0.384001 27.304 0.608 27.688 0.864C28.104 1.152 28.392 1.504 28.648 1.92C28.904 2.336 29 2.784 29 3.296C29 3.936 28.936 4.544 28.776 5.12C28.6472 5.60961 28.4976 6.07847 28.3439 6.56C28.3068 6.67643 28.2694 6.79361 28.232 6.912C28.1855 7.05936 28.1389 7.20485 28.0929 7.34891C27.9488 7.79921 27.8092 8.23561 27.688 8.672L27.304 10.4C27.208 10.976 27.144 11.552 27.08 12.16C27.016 12.736 27.016 13.376 27.016 13.984ZM15.016 13.504C15.016 14.08 14.856 14.592 14.6 15.072C14.344 15.552 13.96 15.968 13.512 16.256L15.016 20H13L11.784 16.928C11.632 16.9714 11.4947 16.9854 11.3521 16.9999C11.2846 17.0067 11.216 17.0137 11.144 17.024H10.536L9 16.992V20H7.016V9.984H11.016C11.496 9.984 12.008 10.08 12.488 10.24C12.968 10.4 13.384 10.624 13.768 10.912C14.152 11.232 14.44 11.584 14.664 12.032C14.888 12.448 15.016 12.96 15.016 13.504ZM11.016 15.008C11.208 15.008 11.432 14.976 11.688 14.912C11.912 14.848 12.136 14.752 12.328 14.656C12.52 14.528 12.68 14.368 12.808 14.176C12.936 13.984 13 13.76 13 13.504C13 13.248 12.936 13.024 12.808 12.832C12.68 12.64 12.52 12.48 12.328 12.352C12.136 12.224 11.912 12.128 11.688 12.096C11.432 12.032 11.208 12 11.016 12H9V15.008H11.016ZM23.016 9.984H15.016V12H17.992V20H20.008V12H23.016V9.984Z" fill="black"/>
</svg>
