<svg width="32" height="32" viewBox="0 0 32 32" fill="none" xmlns="http://www.w3.org/2000/svg">
<path fill-rule="evenodd" clip-rule="evenodd" d="M25 0C25.48 0 25.992 0.0320003 26.504 0.128C27.016 0.224 27.496 0.384 27.976 0.576C28.424 0.8 28.84 1.088 29.192 1.44C29.544 1.792 29.8 2.24 29.96 2.752C30.088 3.264 30.216 3.776 30.28 4.32C30.3227 4.704 30.3653 5.05955 30.408 5.41511C30.4293 5.59289 30.4507 5.77067 30.472 5.952C30.824 8.608 30.984 11.296 30.984 13.984C30.984 15.904 30.76 17.696 30.344 19.328C29.928 20.96 29.32 22.432 28.52 23.776C27.752 25.088 26.792 26.272 25.64 27.296C24.52 28.32 23.272 29.184 21.864 29.888C20.456 30.56 18.92 31.104 17.256 31.456C15.592 31.808 13.832 32 11.976 32H5C4.584 32 4.136 31.936 3.688 31.776C3.208 31.648 2.792 31.456 2.376 31.2C1.992 30.944 1.64 30.624 1.384 30.272C1.128 29.888 1 29.472 1 28.992C1 28.8 1 28.608 1.064 28.384C1.128 28.192 1.192 27.968 1.256 27.744C1.304 27.632 1.352 27.528 1.4 27.424C1.448 27.32 1.496 27.216 1.544 27.104C1.64 26.88 1.736 26.688 1.832 26.496L1.928 26.272C2.408 25.248 2.856 24.256 3.24 23.296C3.592 22.304 3.912 21.344 4.2 20.32C4.456 19.328 4.648 18.336 4.776 17.28C4.904 16.256 5 15.168 5 13.984C5 13.344 4.968 12.736 4.904 12.128C4.84 11.552 4.776 10.976 4.68 10.4L4.296 8.672C4.17478 8.23559 4.03518 7.79918 3.89113 7.34885C3.84506 7.20481 3.79853 7.05934 3.752 6.912C3.71461 6.79358 3.67721 6.67637 3.64005 6.55991C3.48642 6.07841 3.33684 5.60958 3.208 5.12C3.048 4.544 2.984 3.936 2.984 3.296V3.104V2.944C3.048 2.464 3.208 2.08 3.464 1.696C3.72 1.344 4.04 1.024 4.424 0.768C4.808 0.544 5.224 0.351999 5.672 0.191999C6.12 0.0639994 6.568 0 6.984 0H25ZM13 17.984H17V20H10.984V9.984H13V17.984ZM25 9.984H17V12H19.976V20H21.992V12H25V9.984Z" fill="black"/>
</svg>
