<svg width="32" height="32" viewBox="0 0 32 32" fill="none" xmlns="http://www.w3.org/2000/svg">
<path d="M14.4 17.28L15.744 13.152C15.7576 13.0841 15.7769 13.0104 15.7971 12.9334C15.8246 12.829 15.8536 12.7185 15.872 12.608C15.8887 12.5247 15.8967 12.4327 15.905 12.3365C15.906 12.3254 15.9069 12.3143 15.9079 12.3031C15.9148 12.225 15.9226 12.1445 15.936 12.064H16L16.096 12.64C16.096 12.7423 16.1222 12.8577 16.1494 12.9778C16.1648 13.0455 16.1805 13.1148 16.192 13.184L17.504 17.28H14.4Z" fill="black"/>
<path fill-rule="evenodd" clip-rule="evenodd" d="M16 0C17.472 0 18.88 0.192 20.256 0.576C21.6 0.96 22.88 1.504 24.064 2.176C25.248 2.88 26.336 3.712 27.296 4.704C28.288 5.664 29.12 6.752 29.824 7.936C30.496 9.12 31.04 10.4 31.424 11.744C31.808 13.12 32 14.528 32 16C32 17.472 31.808 18.912 31.424 20.256C31.04 21.632 30.528 22.912 29.824 24.096C29.12 25.28 28.288 26.336 27.328 27.328C26.336 28.288 25.28 29.12 24.096 29.824C22.912 30.528 21.632 31.04 20.256 31.424C18.912 31.808 17.472 32 16 32C14.528 32 13.088 31.808 11.744 31.424C10.368 31.04 9.088 30.528 7.904 29.824C6.72 29.12 5.664 28.288 4.672 27.328C3.712 26.336 2.88 25.28 2.176 24.096C1.472 22.912 0.96 21.632 0.576 20.256C0.192 18.912 0 17.472 0 16C0 14.528 0.192 13.088 0.576 11.744C0.96 10.368 1.472 9.088 2.176 7.904C2.88 6.72 3.712 5.664 4.672 4.672C5.664 3.712 6.72 2.88 7.904 2.176C9.088 1.472 10.368 0.96 11.744 0.576C13.088 0.192 14.528 0 16 0ZM15.905 12.3365C15.906 12.3254 15.9069 12.3143 15.9079 12.3031C15.9148 12.225 15.9226 12.1445 15.936 12.064H16L16.096 12.64C16.096 12.7423 16.1222 12.8577 16.1494 12.9778M14.432 9.92L9.984 22.08H12.96L13.824 19.36H18.144L19.008 22.08H22.016L17.664 9.92H14.432Z" fill="black"/>
</svg>
