<svg width="32" height="32" viewBox="0 0 32 32" fill="none" xmlns="http://www.w3.org/2000/svg">
<path fill-rule="evenodd" clip-rule="evenodd" d="M13 2C11.8954 2 11 2.89543 11 4L11 11L4 11C2.89543 11 2 11.8954 2 13L2 19C2 20.1046 2.89543 21 4 21L11 21L11 28C11 29.1046 11.8954 30 13 30L19 30C20.1046 30 21 29.1046 21 28L21 21L28 21C29.1046 21 30 20.1046 30 19L30 13C30 11.8954 29.1046 11 28 11L21 11L21 4C21 2.89543 20.1046 2 19 2L13 2ZM5 19L13 19L15.2929 16.7071C15.6834 16.3166 15.6834 15.6834 15.2929 15.2929L13 13L5 13C4.44771 13 4 13.4477 4 14L4 18C4 18.5523 4.44771 19 5 19Z" fill="black"/>
</svg>
