<svg width="32" height="32" viewBox="0 0 32 32" fill="none" xmlns="http://www.w3.org/2000/svg">
<path fill-rule="evenodd" clip-rule="evenodd" d="M28 11C29.1046 11 30 11.8954 30 13V19C30 20.1046 29.1046 21 28 21H21V28C21 29.1046 20.1046 30 19 30H13C11.8954 30 11 29.1046 11 28V21H4C2.89543 21 2 20.1046 2 19V13C2 11.8954 2.89543 11 4 11H11V4C11 2.89543 11.8954 2 13 2H19C20.1046 2 21 2.89543 21 4V11H28ZM13 19V27C13 27.5523 13.4477 28 14 28H18C18.5523 28 19 27.5523 19 27V19L16.7071 16.7071C16.3166 16.3166 15.6834 16.3166 15.2929 16.7071L13 19ZM13 5V13L15.2929 15.2929C15.6834 15.6834 16.3166 15.6834 16.7071 15.2929L19 13V5C19 4.44772 18.5523 4 18 4H14C13.4477 4 13 4.44772 13 5Z" fill="black"/>
</svg>
