<svg width="32" height="32" viewBox="0 0 32 32" fill="none" xmlns="http://www.w3.org/2000/svg">
<path fill-rule="evenodd" clip-rule="evenodd" d="M11 4C11 2.89543 11.8954 2 13 2L19 2C20.1046 2 21 2.89543 21 4L21 11L28 11C29.1046 11 30 11.8954 30 13L30 19C30 20.1046 29.1046 21 28 21L21 21L21 28C21 29.1046 20.1046 30 19 30L13 30C11.8954 30 11 29.1046 11 28L11 21L4 21C2.89543 21 2 20.1046 2 19L2 13C2 11.8954 2.89543 11 4 11L11 11L11 4ZM19 19L27 19C27.5523 19 28 18.5523 28 18L28 14C28 13.4477 27.5523 13 27 13L19 13L16.7071 15.2929C16.3166 15.6834 16.3166 16.3166 16.7071 16.7071L19 19ZM5 19L13 19L15.2929 16.7071C15.6834 16.3166 15.6834 15.6834 15.2929 15.2929L13 13L5 13C4.44771 13 4 13.4477 4 14L4 18C4 18.5523 4.44771 19 5 19Z" fill="black"/>
</svg>
