<svg width="32" height="32" viewBox="0 0 32 32" fill="none" xmlns="http://www.w3.org/2000/svg">
<path fill-rule="evenodd" clip-rule="evenodd" d="M16 26C21.5228 26 26 21.5228 26 16C26 10.4772 21.5228 6 16 6C10.4772 6 6 10.4772 6 16C6 21.5228 10.4772 26 16 26ZM19.4673 21H12.7706V10.8182H15.2315V19.0014H19.4673V21Z" fill="black"/>
<path d="M29 16C29 17.7072 28.6637 19.3977 28.0104 20.9749C27.3571 22.5521 26.3995 23.9852 25.1924 25.1924C23.9852 26.3995 22.5521 27.3571 20.9749 28.0104C19.3977 28.6637 17.7072 29 16 29C14.2928 29 12.6023 28.6637 11.0251 28.0104C9.44788 27.3571 8.01477 26.3995 6.80761 25.1924C5.60045 23.9852 4.64288 22.5521 3.98957 20.9749C3.33625 19.3977 3 17.7072 3 16C3 14.2928 3.33626 12.6023 3.98957 11.0251C4.64288 9.44788 5.60045 8.01477 6.80761 6.80761C8.01477 5.60045 9.44788 4.64288 11.0251 3.98957C12.6023 3.33625 14.2928 3 16 3C17.7072 3 19.3977 3.33626 20.9749 3.98957C22.5521 4.64288 23.9852 5.60045 25.1924 6.80761C26.3996 8.01478 27.3571 9.44788 28.0104 11.0251C28.6637 12.6024 29 14.2928 29 16L29 16Z" stroke="black" stroke-width="2" stroke-linecap="round"/>
</svg>
