<svg width="32" height="32" viewBox="0 0 32 32" fill="none" xmlns="http://www.w3.org/2000/svg">
<g clip-path="url(#clip0)">
<path fill-rule="evenodd" clip-rule="evenodd" d="M16 26C21.5228 26 26 21.5228 26 16C26 10.4772 21.5228 6 16 6C10.4772 6 6 10.4772 6 16C6 21.5228 10.4772 26 16 26ZM19.4673 21H12.7706V10.8182H15.2315V19.0014H19.4673V21Z" fill="black"/>
<path d="M27.2583 22.5C26.1173 24.4762 24.4762 26.1173 22.5 27.2583C20.5237 28.3993 18.282 29 16 29C13.718 29 11.4762 28.3993 9.5 27.2583C7.52375 26.1173 5.88266 24.4762 4.74167 22.5" stroke="black" stroke-width="2" stroke-linecap="round"/>
<path d="M27.2583 9.5C26.1173 7.52375 24.4762 5.88266 22.5 4.74167C20.5238 3.60068 18.282 3 16 3C13.718 3 11.4762 3.60068 9.5 4.74167C7.52375 5.88266 5.88266 7.52375 4.74167 9.5" stroke="black" stroke-width="2" stroke-linecap="round"/>
<path d="M0.3698 15.4453C0.145867 15.7812 0.145867 16.2188 0.3698 16.5547L2.16795 19.2519C2.71678 20.0752 4 19.6866 4 18.6972L4 13.3028C4 12.3134 2.71677 11.9248 2.16795 12.7481L0.3698 15.4453Z" fill="black"/>
<path d="M31.6302 15.4453C31.8541 15.7812 31.8541 16.2188 31.6302 16.5547L29.832 19.2519C29.2832 20.0752 28 19.6866 28 18.6972L28 13.3028C28 12.3134 29.2832 11.9248 29.8321 12.7481L31.6302 15.4453Z" fill="black"/>
</g>
<defs>
<clipPath id="clip0">
<rect width="32" height="32" fill="white"/>
</clipPath>
</defs>
</svg>
