<svg width="32" height="32" viewBox="0 0 32 32" fill="none" xmlns="http://www.w3.org/2000/svg">
<path fill-rule="evenodd" clip-rule="evenodd" d="M16 0C17.472 0 18.88 0.192 20.256 0.576C21.6 0.96 22.88 1.504 24.064 2.176C25.248 2.88 26.336 3.712 27.296 4.704C28.288 5.664 29.12 6.752 29.824 7.936C30.496 9.12 31.04 10.4 31.424 11.744C31.808 13.12 32 14.528 32 16C32 17.472 31.808 18.912 31.424 20.256C31.04 21.632 30.528 22.912 29.824 24.096C29.12 25.28 28.288 26.336 27.328 27.328C26.336 28.288 25.28 29.12 24.096 29.824C22.912 30.528 21.632 31.04 20.256 31.424C18.912 31.808 17.472 32 16 32C14.528 32 13.088 31.808 11.744 31.424C10.368 31.04 9.088 30.528 7.904 29.824C6.72 29.12 5.664 28.288 4.672 27.328C3.712 26.336 2.88 25.28 2.176 24.096C1.472 22.912 0.96 21.632 0.576 20.256C0.192 18.912 0 17.472 0 16C0 14.528 0.192 13.088 0.576 11.744C0.96 10.368 1.472 9.088 2.176 7.904C2.88 6.72 3.712 5.664 4.672 4.672C5.664 3.712 6.72 2.88 7.904 2.176C9.088 1.472 10.368 0.96 11.744 0.576C13.088 0.192 14.528 0 16 0ZM21.536 9.92H18.496L16.544 13.504C16.448 13.664 16.384 13.824 16.32 14.048C16.2917 14.133 16.2696 14.2179 16.2483 14.3001C16.2214 14.4037 16.1957 14.5028 16.16 14.592H16.128C16.096 14.432 16.032 14.24 15.968 14.08C15.904 13.888 15.84 13.728 15.744 13.568L14.016 9.92H10.688L14.24 16L10.368 22.08H13.632L15.744 18.144C15.7875 18.0788 15.8162 17.9988 15.8502 17.904C15.8663 17.8593 15.8835 17.8113 15.904 17.76C15.9157 17.7013 15.9318 17.6426 15.9474 17.5855C15.9743 17.4869 16 17.3931 16 17.312H16.032C16.0372 17.3328 16.0424 17.3544 16.0477 17.3766C16.0752 17.4911 16.1064 17.6208 16.16 17.728C16.192 17.856 16.224 17.984 16.288 18.112L18.368 22.08H21.632L17.888 15.936L21.536 9.92Z" fill="black"/>
</svg>
