<svg width="32" height="32" viewBox="0 0 32 32" fill="none" xmlns="http://www.w3.org/2000/svg">
<path d="M20 16.016H21.504C21.76 16.016 22.016 15.92 22.208 15.728C22.4 15.536 22.496 15.28 22.496 15.024C22.496 14.736 22.4 14.512 22.208 14.32C22.016 14.128 21.76 14 21.504 14H20V16.016Z" fill="black"/>
<path d="M22.016 20.016C22.272 20.016 22.496 19.92 22.688 19.728C22.912 19.536 23.008 19.28 23.008 19.024C23.008 18.736 22.912 18.512 22.688 18.32C22.496 18.128 22.272 18 22.016 18H20V20.016H22.016Z" fill="black"/>
<path d="M10.016 17.008H11.488C11.904 17.008 12.256 16.88 12.576 16.592C12.864 16.272 12.992 15.92 12.992 15.504C12.992 15.088 12.864 14.736 12.576 14.448C12.256 14.16 11.904 14 11.488 14H10.016V17.008Z" fill="black"/>
<path fill-rule="evenodd" clip-rule="evenodd" d="M32 22C32 22.576 31.904 23.088 31.68 23.568C31.488 24.048 31.2 24.464 30.816 24.848C30.464 25.2 30.048 25.488 29.568 25.712C29.056 25.904 28.544 26 28 26H6.496C5.44 26 4.512 25.744 3.712 25.168C2.912 24.624 2.368 23.824 2.016 22.8L0.544 18.32C0.352 17.744 0.224 17.104 0.128 16.432C0.032 15.792 0 15.152 0 14.512C0 13.936 0.096 13.36 0.32 12.784C0.544 12.24 0.864 11.728 1.312 11.312L5.312 7.312C5.728 6.896 6.208 6.576 6.784 6.352C7.328 6.128 7.904 6 8.512 6H11.008C11.84 6 12.8 6.032 13.856 6.096C14.912 6.16 15.968 6.256 17.088 6.384C18.208 6.512 19.36 6.704 20.512 6.928C21.632 7.152 22.752 7.44 23.808 7.76C24.864 8.112 25.856 8.496 26.784 8.944C27.68 9.424 28.48 9.936 29.184 10.544C29.568 10.896 29.92 11.28 30.24 11.728C30.56 12.144 30.784 12.656 30.912 13.168C30.928 13.232 30.936 13.296 30.944 13.36C30.952 13.424 30.96 13.488 30.976 13.552C30.976 13.68 30.976 13.808 31.008 13.968L32 21.904V22ZM14.56 17.2C14.848 16.688 15.008 16.112 15.008 15.504C15.008 15.024 14.912 14.576 14.72 14.16C14.56 13.744 14.304 13.36 13.984 13.04C13.664 12.72 13.28 12.464 12.864 12.304C12.448 12.112 11.968 12.016 11.488 12.016H8V22H10.016V19.024H11.36L12.896 22H15.104L13.344 18.48C13.856 18.16 14.272 17.744 14.56 17.2ZM11.488 17.008H10.016V14H11.488C11.904 14 12.256 14.16 12.576 14.448C12.864 14.736 12.992 15.088 12.992 15.504C12.992 15.92 12.864 16.272 12.576 16.592C12.256 16.88 11.904 17.008 11.488 17.008ZM23.968 16.72C24.288 17.04 24.544 17.36 24.736 17.776C24.896 18.16 24.992 18.576 24.992 19.024C24.992 19.44 24.928 19.824 24.768 20.176C24.608 20.56 24.384 20.88 24.128 21.136C23.84 21.424 23.552 21.616 23.168 21.776C22.816 21.936 22.432 22 22.016 22H18.016V12.016H21.504C21.92 12.016 22.304 12.08 22.656 12.24C23.04 12.4 23.36 12.624 23.616 12.88C23.904 13.168 24.096 13.488 24.256 13.84C24.416 14.224 24.512 14.608 24.512 15.024C24.512 15.664 24.32 16.24 23.968 16.72ZM20 16.016H21.504C21.76 16.016 22.016 15.92 22.208 15.728C22.4 15.536 22.496 15.28 22.496 15.024C22.496 14.736 22.4 14.512 22.208 14.32C22.016 14.128 21.76 14 21.504 14H20V16.016ZM22.016 20.016C22.272 20.016 22.496 19.92 22.688 19.728C22.912 19.536 23.008 19.28 23.008 19.024C23.008 18.736 22.912 18.512 22.688 18.32C22.496 18.128 22.272 18 22.016 18H20V20.016H22.016Z" fill="black"/>
</svg>
