<svg width="32" height="32" viewBox="0 0 32 32" fill="none" xmlns="http://www.w3.org/2000/svg">
<path fill-rule="evenodd" clip-rule="evenodd" d="M30 13C30 11.8954 29.1046 11 28 11H21V4C21 2.89543 20.1046 2 19 2H13C11.8954 2 11 2.89543 11 4V11H4C2.89543 11 2 11.8954 2 13V19C2 20.1046 2.89543 21 4 21H11V28C11 29.1046 11.8954 30 13 30H19C20.1046 30 21 29.1046 21 28V21H28C29.1046 21 30 20.1046 30 19V13ZM13 5V13L15.2929 15.2929C15.6834 15.6834 16.3166 15.6834 16.7071 15.2929L19 13V5C19 4.44772 18.5523 4 18 4H14C13.4477 4 13 4.44772 13 5Z" fill="black"/>
</svg>
