<svg width="32" height="32" viewBox="0 0 32 32" fill="none" xmlns="http://www.w3.org/2000/svg">
<path d="M18.016 16.016H19.488C19.776 16.016 20 15.92 20.192 15.728C20.416 15.536 20.512 15.28 20.512 15.024C20.512 14.736 20.416 14.512 20.192 14.32C20 14.128 19.776 14 19.488 14H18.016V16.016Z" fill="black"/>
<path d="M20 20.016C20.256 20.016 20.512 19.92 20.704 19.728C20.896 19.536 20.992 19.28 20.992 19.024C20.992 18.736 20.896 18.512 20.704 18.32C20.512 18.128 20.256 18 20 18H18.016V20.016H20Z" fill="black"/>
<path fill-rule="evenodd" clip-rule="evenodd" d="M23.488 6C24.096 6 24.672 6.128 25.216 6.352C25.792 6.576 26.272 6.896 26.688 7.312L30.688 11.312C31.136 11.728 31.456 12.24 31.68 12.784C31.904 13.36 32 13.936 32 14.512C32 15.152 31.968 15.792 31.872 16.432C31.776 17.104 31.648 17.744 31.456 18.32L29.952 22.8C29.888 22.928 29.856 23.056 29.824 23.184C29.8164 23.2067 29.8089 23.2311 29.8009 23.2569C29.7751 23.3404 29.7449 23.4382 29.696 23.536C29.504 23.92 29.248 24.272 28.96 24.592C28.64 24.912 28.32 25.168 27.968 25.36C27.584 25.584 27.2 25.744 26.784 25.84C26.368 25.968 25.952 26 25.504 26H4C3.456 26 2.944 25.904 2.432 25.712C1.952 25.488 1.536 25.2 1.184 24.848C0.8 24.464 0.512 24.048 0.32 23.568C0.096 23.088 0 22.576 0 22V21.904L0.992 13.968C1.024 13.808 1.024 13.68 1.024 13.552C1.04 13.488 1.048 13.424 1.056 13.36C1.064 13.296 1.072 13.232 1.088 13.168C1.216 12.656 1.44 12.144 1.76 11.728C2.08 11.28 2.432 10.896 2.816 10.544C3.488 9.936 4.288 9.424 5.216 8.944C6.144 8.496 7.136 8.112 8.192 7.76C9.248 7.44 10.368 7.152 11.488 6.928C12.64 6.704 13.792 6.512 14.912 6.384C16.032 6.256 17.088 6.16 18.144 6.096C19.2 6.032 20.16 6 20.992 6H23.488ZM14.016 20.016H10.016V12.016H8V22H14.016V20.016ZM21.952 16.72C22.272 17.04 22.56 17.36 22.72 17.776C22.912 18.16 23.008 18.576 23.008 19.024C23.008 19.44 22.912 19.824 22.752 20.176C22.624 20.56 22.4 20.88 22.112 21.136C21.856 21.424 21.536 21.616 21.184 21.776C20.8 21.936 20.416 22 20 22H16V12.016H19.488C19.904 12.016 20.32 12.08 20.672 12.24C21.024 12.4 21.344 12.624 21.632 12.88C21.888 13.168 22.112 13.488 22.272 13.84C22.432 14.224 22.496 14.608 22.496 15.024C22.496 15.664 22.304 16.24 21.952 16.72ZM18.016 16.016H19.488C19.776 16.016 20 15.92 20.192 15.728C20.416 15.536 20.512 15.28 20.512 15.024C20.512 14.736 20.416 14.512 20.192 14.32C20 14.128 19.776 14 19.488 14H18.016V16.016ZM20 20.016C20.256 20.016 20.512 19.92 20.704 19.728C20.896 19.536 20.992 19.28 20.992 19.024C20.992 18.736 20.896 18.512 20.704 18.32C20.512 18.128 20.256 18 20 18H18.016V20.016H20Z" fill="black"/>
</svg>
