<svg width="32" height="32" viewBox="0 0 32 32" fill="none" xmlns="http://www.w3.org/2000/svg">
<path fill-rule="evenodd" clip-rule="evenodd" d="M16 0C17.472 0 18.88 0.192 20.256 0.576C21.6 0.96 22.88 1.504 24.064 2.176C25.248 2.88 26.336 3.712 27.296 4.704C28.288 5.664 29.12 6.752 29.824 7.936C30.496 9.12 31.04 10.4 31.424 11.744C31.808 13.12 32 14.528 32 16C32 17.472 31.808 18.912 31.424 20.256C31.04 21.632 30.528 22.912 29.824 24.096C29.12 25.28 28.288 26.336 27.328 27.328C26.336 28.288 25.28 29.12 24.096 29.824C22.912 30.528 21.632 31.04 20.256 31.424C18.912 31.808 17.472 32 16 32C14.528 32 13.088 31.808 11.744 31.424C10.368 31.04 9.088 30.528 7.904 29.824C6.72 29.12 5.664 28.288 4.672 27.328C3.712 26.336 2.88 25.28 2.176 24.096C1.472 22.912 0.96 21.632 0.576 20.256C0.192 18.912 0 17.472 0 16C0 14.528 0.192 13.088 0.576 11.744C0.96 10.368 1.472 9.088 2.176 7.904C2.88 6.72 3.712 5.664 4.672 4.672C5.664 3.712 6.72 2.88 7.904 2.176C9.088 1.472 10.368 0.96 11.744 0.576C13.088 0.192 14.528 0 16 0ZM16.128 15.456H16.096C16.082 15.3861 16.0619 15.3161 16.041 15.2435C16.0142 15.15 15.986 15.0521 15.968 14.944C15.936 14.752 15.872 14.592 15.808 14.464L13.856 9.92H10.688L14.592 17.824V22.08H17.344V17.76L21.312 9.92H18.368L16.384 14.496C16.3722 14.5256 16.3603 14.5541 16.3487 14.5821C16.2974 14.7055 16.2501 14.8195 16.224 14.976L16.128 15.456Z" fill="black"/>
</svg>
