<svg width="32" height="32" viewBox="0 0 32 32" fill="none" xmlns="http://www.w3.org/2000/svg">
<g clip-path="url(#clip0)">
<path d="M11 9C11.7021 7.78385 12.712 6.77394 13.9282 6.0718C15.1444 5.36965 16.5957 5 18 5H21" stroke="black" stroke-width="2" stroke-linecap="round"/>
<path d="M19 2L22 5L19 8" stroke="black" stroke-width="2" stroke-linecap="round" stroke-linejoin="round"/>
<path fill-rule="evenodd" clip-rule="evenodd" d="M-2.62268e-07 16C-1.17422e-07 19.3137 2.68629 22 6 22L26 22C29.3137 22 32 19.3137 32 16L32 11C32 10.4477 31.5523 10 31 10L0.999999 10C0.447715 10 -5.04966e-07 10.4477 -4.80825e-07 11L-2.62268e-07 16ZM22 16C22 15.4477 21.5523 15 21 15C20.4477 15 20 15.4477 20 16C20 16.5523 20.4477 17 21 17C21.5523 17 22 16.5523 22 16ZM19 17C19.5523 17 20 17.4477 20 18C20 18.5523 19.5523 19 19 19C18.4477 19 18 18.5523 18 18C18 17.4477 18.4477 17 19 17ZM20 14C20 13.4477 19.5523 13 19 13C18.4477 13 18 13.4477 18 14C18 14.5523 18.4477 15 19 15C19.5523 15 20 14.5523 20 14ZM17 15C17.5523 15 18 15.4477 18 16C18 16.5523 17.5523 17 17 17C16.4477 17 16 16.5523 16 16C16 15.4477 16.4477 15 17 15ZM11 16C11 14.3431 9.65685 13 8 13C6.34315 13 5 14.3431 5 16C5 17.6569 6.34315 19 8 19C9.65685 19 11 17.6569 11 16Z" fill="black"/>
<path d="M22 23C21.2979 24.2162 20.288 25.2261 19.0718 25.9282C17.8556 26.6303 16.4043 27 15 27H12" stroke="black" stroke-width="2" stroke-linecap="round"/>
<path d="M14 30L11 27L14 24" stroke="black" stroke-width="2" stroke-linecap="round" stroke-linejoin="round"/>
</g>
<defs>
<clipPath id="clip0">
<rect width="32" height="32" fill="white"/>
</clipPath>
</defs>
</svg>
