<svg width="32" height="32" viewBox="0 0 32 32" fill="none" xmlns="http://www.w3.org/2000/svg">
<path fill-rule="evenodd" clip-rule="evenodd" d="M32 6H0V18C0 22.4183 3.58172 26 8 26H20C26.6274 26 32 20.6274 32 14V6ZM14.2315 21H11.7706V10.8182H15.9766C18.2635 10.8182 19.6903 12.1158 19.6903 14.2088C19.6903 15.6158 19.044 16.6151 17.9254 17.1222L20.0384 21H17.3537L15.4943 17.5149H14.2315V21ZM14.2315 12.8018V15.576H15.4446C16.5483 15.576 17.1399 15.1534 17.1399 14.2088C17.1399 13.2642 16.5483 12.8018 15.4446 12.8018H14.2315Z" fill="black"/>
</svg>
