<svg width="32" height="32" viewBox="0 0 32 32" fill="none" xmlns="http://www.w3.org/2000/svg">
<path fill-rule="evenodd" clip-rule="evenodd" d="M16 12C19.3137 12 22 9.31371 22 6C22 2.68629 19.3137 0 16 0C12.6863 0 10 2.68629 10 6C10 9.31371 12.6863 12 16 12ZM15.2191 3.97609L13.2998 6.3753C12.7759 7.03007 13.2421 8 14.0806 8H17.9194C18.7579 8 19.2241 7.03007 18.7002 6.37531L16.7809 3.97609C16.3805 3.47568 15.6195 3.47568 15.2191 3.97609Z" fill="black"/>
<path fill-rule="evenodd" clip-rule="evenodd" d="M16 32C19.3137 32 22 29.3137 22 26C22 22.6863 19.3137 20 16 20C12.6863 20 10 22.6863 10 26C10 29.3137 12.6863 32 16 32ZM15.2191 28.0239L13.2998 25.6247C12.7759 24.9699 13.2421 24 14.0806 24H17.9194C18.7579 24 19.2241 24.9699 18.7002 25.6247L16.7809 28.0239C16.3805 28.5243 15.6195 28.5243 15.2191 28.0239Z" fill="black"/>
</svg>
