<svg width="32" height="32" viewBox="0 0 32 32" fill="none" xmlns="http://www.w3.org/2000/svg">
<path fill-rule="evenodd" clip-rule="evenodd" d="M32 16C32 24.8366 24.8366 32 16 32C7.16344 32 0 24.8366 0 16C0 7.16344 7.16344 0 16 0C24.8366 0 32 7.16344 32 16ZM14.5858 5C15.3668 4.21895 16.6332 4.21895 17.4142 5L27 14.5858C28.2599 15.8457 27.3676 18 25.5858 18H24V25V26H23H9H8V25V18H6.41421C4.6324 18 3.74007 15.8457 5 14.5858L14.5858 5ZM16 6.41421L6.41421 16L9 16H10V17V24H22V17V16H23H25.5858L16 6.41421ZM19 21V17H13V21H19Z" fill="black"/>
</svg>
