<svg width="32" height="32" viewBox="0 0 32 32" fill="none" xmlns="http://www.w3.org/2000/svg">
<path fill-rule="evenodd" clip-rule="evenodd" d="M16 12C19.3137 12 22 9.31371 22 6C22 2.68629 19.3137 0 16 0C12.6863 0 10 2.68629 10 6C10 9.31371 12.6863 12 16 12ZM15.2191 3.97609L13.2998 6.3753C12.7759 7.03007 13.2421 8 14.0806 8H17.9194C18.7579 8 19.2241 7.03007 18.7002 6.37531L16.7809 3.97609C16.3805 3.47568 15.6195 3.47568 15.2191 3.97609Z" fill="black"/>
<path fill-rule="evenodd" clip-rule="evenodd" d="M16 32C19.3137 32 22 29.3137 22 26C22 22.6863 19.3137 20 16 20C12.6863 20 10 22.6863 10 26C10 29.3137 12.6863 32 16 32ZM15.2191 28.0239L13.2998 25.6247C12.7759 24.9699 13.2421 24 14.0806 24H17.9194C18.7579 24 19.2241 24.9699 18.7002 25.6247L16.7809 28.0239C16.3805 28.5243 15.6195 28.5243 15.2191 28.0239Z" fill="black"/>
<path fill-rule="evenodd" clip-rule="evenodd" d="M6 22C9.31371 22 12 19.3137 12 16C12 12.6863 9.31371 10 6 10C2.68629 10 0 12.6863 0 16C0 19.3137 2.68629 22 6 22ZM3.97609 16.7809L6.3753 18.7002C7.03007 19.2241 8 18.7579 8 17.9194V14.0806C8 13.2421 7.03007 12.7759 6.37531 13.2998L3.97609 15.2191C3.47568 15.6195 3.47568 16.3805 3.97609 16.7809Z" fill="black"/>
<path fill-rule="evenodd" clip-rule="evenodd" d="M26 22C29.3137 22 32 19.3137 32 16C32 12.6863 29.3137 10 26 10C22.6863 10 20 12.6863 20 16C20 19.3137 22.6863 22 26 22ZM28.0239 16.7809L25.6247 18.7002C24.9699 19.2241 24 18.7579 24 17.9194L24 14.0806C24 13.2421 24.9699 12.7759 25.6247 13.2998L28.0239 15.2191C28.5243 15.6195 28.5243 16.3805 28.0239 16.7809Z" fill="black"/>
</svg>
