<svg width="32" height="32" viewBox="0 0 32 32" fill="none" xmlns="http://www.w3.org/2000/svg">
<g clip-path="url(#clip0)">
<path fill-rule="evenodd" clip-rule="evenodd" d="M16 26C21.5228 26 26 21.5228 26 16C26 10.4772 21.5228 6 16 6C10.4772 6 6 10.4772 6 16C6 21.5228 10.4772 26 16 26ZM19.4673 21H12.7706V10.8182H15.2315V19.0014H19.4673V21Z" fill="black"/>
<path d="M16.5547 0.3698C16.2188 0.145867 15.7812 0.145868 15.4453 0.3698L12.7481 2.16795C11.9248 2.71678 12.3134 4 13.3028 4L18.6972 4C19.6866 4 20.0752 2.71677 19.2519 2.16795L16.5547 0.3698Z" fill="black"/>
<path d="M28.557 19.3646C27.9664 21.5689 26.806 23.5788 25.1924 25.1924C23.5788 26.806 21.5689 27.9664 19.3646 28.557" stroke="black" stroke-width="2" stroke-linecap="round"/>
<path d="M3.44296 19.3646C4.03358 21.5689 5.19401 23.5788 6.80761 25.1924C8.42121 26.806 10.4311 27.9664 12.6354 28.557" stroke="black" stroke-width="2" stroke-linecap="round"/>
<path d="M3.44296 12.6354C3.88482 10.9863 4.64714 9.4405 5.68641 8.0861C6.72567 6.7317 8.02154 5.59526 9.5 4.74167" stroke="black" stroke-width="2" stroke-linecap="round"/>
<path d="M28.557 12.6354C28.1152 10.9863 27.3529 9.4405 26.3136 8.0861C25.2743 6.7317 23.9785 5.59526 22.5 4.74167" stroke="black" stroke-width="2" stroke-linecap="round"/>
</g>
<defs>
<clipPath id="clip0">
<rect width="32" height="32" fill="white"/>
</clipPath>
</defs>
</svg>
