<svg width="32" height="32" viewBox="0 0 32 32" fill="none" xmlns="http://www.w3.org/2000/svg">
<path fill-rule="evenodd" clip-rule="evenodd" d="M6 22C9.31371 22 12 19.3137 12 16C12 12.6863 9.31371 10 6 10C2.68629 10 0 12.6863 0 16C0 19.3137 2.68629 22 6 22ZM3.97609 16.7809L6.3753 18.7002C7.03007 19.2241 8 18.7579 8 17.9194V14.0806C8 13.2421 7.03007 12.7759 6.37531 13.2998L3.97609 15.2191C3.47568 15.6195 3.47568 16.3805 3.97609 16.7809Z" fill="black"/>
<path fill-rule="evenodd" clip-rule="evenodd" d="M26 22C29.3137 22 32 19.3137 32 16C32 12.6863 29.3137 10 26 10C22.6863 10 20 12.6863 20 16C20 19.3137 22.6863 22 26 22ZM28.0239 16.7809L25.6247 18.7002C24.9699 19.2241 24 18.7579 24 17.9194L24 14.0806C24 13.2421 24.9699 12.7759 25.6247 13.2998L28.0239 15.2191C28.5243 15.6195 28.5243 16.3805 28.0239 16.7809Z" fill="black"/>
</svg>
