<svg width="32" height="32" viewBox="0 0 32 32" fill="none" xmlns="http://www.w3.org/2000/svg">
<path fill-rule="evenodd" clip-rule="evenodd" d="M28 15C28 21.6274 22.6274 27 16 27C9.37258 27 4 21.6274 4 15C4 8.37258 9.37258 3 16 3C13.8936 3 11.8242 3.55447 10 4.60769L16 9L22 4.60769C20.1758 3.55448 18.1064 3 16 3C22.6274 3 28 8.37258 28 15ZM12.7706 21H19.4673V19.0014H15.2315V10.8182H12.7706V21Z" fill="black"/>
<path d="M26.3843 11.2359C27.4419 13.1381 28 15.2987 28 17.5C28 19.7013 27.4419 21.8619 26.3843 23.7641C25.3269 25.6661 23.8086 27.2408 21.9858 28.3337C20.1633 29.4264 18.099 30 16 30C13.901 30 11.8367 29.4264 10.0142 28.3337C8.1914 27.2408 6.67312 25.6661 5.61568 23.7641C4.55811 21.8619 4 19.7013 4 17.5C4 15.2987 4.55811 13.1381 5.61567 11.2359" stroke="black" stroke-width="2" stroke-linecap="round"/>
<path d="M16.6 6.55C16.2444 6.81667 15.7556 6.81667 15.4 6.55L10.4 2.8C9.63119 2.22339 10.039 1 11 1L21 1C21.961 1 22.3688 2.22339 21.6 2.8L16.6 6.55Z" fill="black"/>
</svg>
