<svg width="32" height="32" viewBox="0 0 32 32" fill="none" xmlns="http://www.w3.org/2000/svg">
<path fill-rule="evenodd" clip-rule="evenodd" d="M10 0C5.58172 0 2 3.58172 2 8V32H30V12C30 5.37258 24.6274 0 18 0H10ZM15.7898 21H7.7358V19.598L12.6825 12.8168H7.74077V10.8182H15.7947V12.2202L10.848 19.0014H15.7898V21ZM19.7608 21H17.2999V10.8182H21.5059C23.7928 10.8182 25.2196 12.1158 25.2196 14.2088C25.2196 15.6158 24.5733 16.6151 23.4547 17.1222L25.5676 21H22.883L21.0236 17.5149H19.7608V21ZM19.7608 12.8018V15.576H20.9739C22.0776 15.576 22.6692 15.1534 22.6692 14.2088C22.6692 13.2642 22.0776 12.8018 20.9739 12.8018H19.7608Z" fill="black"/>
</svg>
