<svg width="32" height="32" viewBox="0 0 32 32" fill="none" xmlns="http://www.w3.org/2000/svg">
<g clip-path="url(#clip0)">
<path fill-rule="evenodd" clip-rule="evenodd" d="M16 26C21.5228 26 26 21.5228 26 16C26 10.4772 21.5228 6 16 6C10.4772 6 6 10.4772 6 16C6 21.5228 10.4772 26 16 26ZM19.4673 21H12.7706V10.8182H15.2315V19.0014H19.4673V21Z" fill="black"/>
<path d="M9.5 27.2583C7.02166 25.8275 5.08471 23.6188 3.98957 20.9749C2.89442 18.331 2.70229 15.3996 3.44296 12.6354C4.18364 9.87112 5.81573 7.42853 8.0861 5.68641C10.3565 3.94429 13.1383 3 16 3C18.8617 3 21.6435 3.94429 23.9139 5.68641C26.1843 7.42852 27.8164 9.87112 28.557 12.6354C29.2977 15.3996 29.1056 18.331 28.0104 20.9749C26.9153 23.6188 24.9783 25.8275 22.5 27.2583" stroke="black" stroke-width="2" stroke-linecap="round"/>
<path d="M16.5547 31.6302C16.2188 31.8541 15.7812 31.8541 15.4453 31.6302L12.7481 29.832C11.9248 29.2832 12.3134 28 13.3028 28L18.6972 28C19.6866 28 20.0752 29.2832 19.2519 29.8321L16.5547 31.6302Z" fill="black"/>
</g>
<defs>
<clipPath id="clip0">
<rect width="32" height="32" fill="white"/>
</clipPath>
</defs>
</svg>
