<svg width="32" height="32" viewBox="0 0 32 32" fill="none" xmlns="http://www.w3.org/2000/svg">
<path fill-rule="evenodd" clip-rule="evenodd" d="M0.209982 10.1998C0.0957449 7.91502 1.9174 6 4.20499 6H27.795C30.0826 6 31.9042 7.91502 31.79 10.1998L31.1425 23.1498C31.0627 24.7464 29.7449 26 28.1462 26H3.85374C2.25512 26 0.937316 24.7464 0.857484 23.1498L0.209982 10.1998ZM11.2929 21.7071L8.29289 18.7071C7.90237 18.3166 7.90237 17.6834 8.29289 17.2929C8.68342 16.9024 9.31658 16.9024 9.7071 17.2929L11 18.5858V15C11 14.4477 11.4477 14 12 14C12.5523 14 13 14.4477 13 15V18.5858L14.2929 17.2929C14.6834 16.9024 15.3166 16.9024 15.7071 17.2929C16.0976 17.6834 16.0976 18.3166 15.7071 18.7071L12.7071 21.7071C12.3166 22.0976 11.6834 22.0976 11.2929 21.7071ZM16.2929 14.7071L19.2929 17.7071C19.6834 18.0976 20.3166 18.0976 20.7071 17.7071L23.7071 14.7071C24.0976 14.3166 24.0976 13.6834 23.7071 13.2929C23.3166 12.9024 22.6834 12.9024 22.2929 13.2929L21 14.5858V11C21 10.4477 20.5523 10 20 10C19.4477 10 19 10.4477 19 11V14.5858L17.7071 13.2929C17.3166 12.9024 16.6834 12.9024 16.2929 13.2929C15.9024 13.6834 15.9024 14.3166 16.2929 14.7071Z" fill="black"/>
</svg>
