<svg width="32" height="32" viewBox="0 0 32 32" fill="none" xmlns="http://www.w3.org/2000/svg">
<path fill-rule="evenodd" clip-rule="evenodd" d="M3 9C1.34315 9 0 10.3431 0 12C0 13.6569 1.34315 15 3 15H6V28H26V15H29C30.6569 15 32 13.6569 32 12C32 10.3431 30.6569 9 29 9H3ZM15.4006 24H9.66051V15.2727H11.7699V22.2869H15.4006V24ZM23.2894 21.5199C23.2937 23.0369 21.8406 24.1193 19.7951 24.1193C17.8008 24.1193 16.3817 23.0114 16.3647 21.4347H18.4869C18.5082 22.0099 19.0579 22.4062 19.8036 22.4062C20.5536 22.4062 21.082 21.9759 21.0735 21.358C21.082 20.7443 20.5067 20.3097 19.6246 20.3097H18.7766V18.8097H19.6246C20.4002 18.8097 20.9371 18.392 20.9329 17.7869C20.9371 17.2031 20.4812 16.7983 19.8121 16.7983C19.109 16.7983 18.5721 17.1989 18.555 17.7955H16.5394C16.5565 16.2443 17.9286 15.1534 19.8121 15.1534C21.6829 15.1534 22.9698 16.2273 22.9656 17.6506C22.9698 18.6307 22.2539 19.3082 21.244 19.4531V19.5213C22.5906 19.679 23.2937 20.446 23.2894 21.5199Z" fill="black"/>
<path d="M16.7071 7.29289C16.3166 7.68342 15.6834 7.68342 15.2929 7.29289L11.7071 3.70711C11.0771 3.07714 11.5233 2 12.4142 2L19.5858 2C20.4767 2 20.9229 3.07714 20.2929 3.70711L16.7071 7.29289Z" fill="black"/>
</svg>
