<svg width="32" height="32" viewBox="0 0 32 32" fill="none" xmlns="http://www.w3.org/2000/svg">
<g clip-path="url(#clip0)">
<path d="M22 16C22 12.6863 19.3137 10 16 10C12.6863 10 10 12.6863 10 16V26C10 29.3137 12.6863 32 16 32C19.3137 32 22 29.3137 22 26V16Z" fill="black"/>
<path d="M5.19034 4.45455C5.19034 2.77166 4.12642 1.83949 2.75923 1.83949C1.38707 1.83949 0.330611 2.77166 0.330611 4.45455C0.330611 6.12997 1.38707 7.0696 2.75923 7.0696C4.12642 7.0696 5.19034 6.13743 5.19034 4.45455ZM3.93253 4.45455C3.93253 5.45135 3.49503 5.99077 2.75923 5.99077C2.02592 5.99077 1.58594 5.45135 1.58594 4.45455C1.58594 3.45774 2.02592 2.91832 2.75923 2.91832C3.49503 2.91832 3.93253 3.45774 3.93253 4.45455ZM5.90874 7H7.1392V5.41903H7.97443C9.14027 5.41903 9.86861 4.72798 9.86861 3.67152C9.86861 2.625 9.15518 1.90909 8.01172 1.90909H5.90874V7ZM7.1392 4.44957V2.90092H7.74574C8.29759 2.90092 8.59339 3.19922 8.59339 3.67152C8.59339 4.14134 8.29759 4.44957 7.74574 4.44957H7.1392ZM10.3086 2.90838H11.8548V7H13.0678V2.90838H14.6115V1.90909H10.3086V2.90838ZM16.4429 1.90909H15.2124V7H16.4429V1.90909ZM22.0204 4.45455C22.0204 2.77166 20.9565 1.83949 19.5893 1.83949C18.2172 1.83949 17.1607 2.77166 17.1607 4.45455C17.1607 6.12997 18.2172 7.0696 19.5893 7.0696C20.9565 7.0696 22.0204 6.13743 22.0204 4.45455ZM20.7626 4.45455C20.7626 5.45135 20.3251 5.99077 19.5893 5.99077C18.856 5.99077 18.416 5.45135 18.416 4.45455C18.416 3.45774 18.856 2.91832 19.5893 2.91832C20.3251 2.91832 20.7626 3.45774 20.7626 4.45455ZM27.0716 1.90909H25.8436V4.84233H25.8013L23.7978 1.90909H22.7388V7H23.9693V4.06179H24.0016L26.0275 7H27.0716V1.90909ZM30.597 3.43537H31.7753C31.7654 2.48331 31.0072 1.83949 29.824 1.83949C28.6606 1.83949 27.8229 2.47337 27.8303 3.42045C27.8279 4.19354 28.3698 4.62855 29.2497 4.8299L29.7817 4.95419C30.341 5.08345 30.5921 5.23509 30.597 5.52095C30.5921 5.83168 30.3012 6.04794 29.8066 6.04794C29.2622 6.04794 28.9042 5.79439 28.8769 5.30469H27.6986C27.7135 6.49538 28.5413 7.06463 29.8215 7.06463C31.0892 7.06463 31.8399 6.49041 31.8449 5.52344C31.8399 4.71058 31.2906 4.21342 30.2863 3.99219L29.8488 3.89276C29.3865 3.79332 29.0931 3.6392 29.1031 3.33594C29.1056 3.05753 29.3442 2.85618 29.8215 2.85618C30.3012 2.85618 30.5647 3.07244 30.597 3.43537Z" fill="black"/>
</g>
<defs>
<clipPath id="clip0">
<rect width="32" height="32" fill="white"/>
</clipPath>
</defs>
</svg>
