<svg width="32" height="32" viewBox="0 0 32 32" fill="none" xmlns="http://www.w3.org/2000/svg">
<path fill-rule="evenodd" clip-rule="evenodd" d="M16 32C24.8366 32 32 24.8366 32 16C32 7.16344 24.8366 0 16 0C7.16344 0 0 7.16344 0 16C0 24.8366 7.16344 32 16 32ZM7.93934 7.93934C8.52513 7.35355 9.47487 7.35355 10.0607 7.93934L16 13.8787L21.9393 7.93934C22.5251 7.35355 23.4749 7.35355 24.0607 7.93934C24.6464 8.52513 24.6464 9.47487 24.0607 10.0607L18.1213 16L24.0607 21.9393C24.6464 22.5251 24.6464 23.4749 24.0607 24.0607C23.4749 24.6464 22.5251 24.6464 21.9393 24.0607L16 18.1213L10.0607 24.0607C9.47487 24.6464 8.52513 24.6464 7.93934 24.0607C7.35355 23.4749 7.35355 22.5251 7.93934 21.9393L13.8787 16L7.93934 10.0607C7.35355 9.47487 7.35355 8.52513 7.93934 7.93934Z" fill="black"/>
</svg>
