<svg width="32" height="32" viewBox="0 0 32 32" fill="none" xmlns="http://www.w3.org/2000/svg">
<path d="M20.5646 9.33883L21 4.88546C21 3 20 2 16 2C12 2 11 3 11 4.88546L11.4354 9.33883C11.4773 9.76808 11.6569 10.1723 11.9474 10.4911L14.6487 13.4564C14.7362 13.5525 14.8313 13.6425 14.9427 13.7093C15.5891 14.0969 16.4109 14.0969 17.0573 13.7093C17.1687 13.6425 17.2638 13.5525 17.3513 13.4564L20.0526 10.4911C20.3431 10.1723 20.5227 9.76808 20.5646 9.33883Z" fill="black"/>
<path d="M20.5646 22.6612L21 27.1145C21 29 20 30 16 30C12 30 11 29 11 27.1145L11.4354 22.6612C11.4773 22.2319 11.6569 21.8277 11.9474 21.5089L14.6487 18.5436C14.7362 18.4475 14.8313 18.3575 14.9427 18.2907C15.5891 17.9031 16.4109 17.9031 17.0573 18.2907C17.1687 18.3575 17.2638 18.4475 17.3513 18.5436L20.0526 21.5089C20.3431 21.8277 20.5227 22.2319 20.5646 22.6612Z" fill="black"/>
<path d="M19.217 15.3879L18.5436 14.6487L19.217 15.3879C19.1865 15.4157 19.1679 15.4348 19.1564 15.4479C19.151 15.4541 19.148 15.4579 19.1469 15.4594C18.951 15.7881 18.951 16.2119 19.1469 16.5406C19.148 16.5421 19.151 16.5459 19.1564 16.5521C19.1679 16.5652 19.1865 16.5843 19.217 16.6121L22.1823 19.3134L21.5089 20.0526L22.1823 19.3134C22.3418 19.4586 22.5438 19.5484 22.7585 19.5694L27.1609 19.9998C27.8751 19.9924 28.1947 19.8119 28.4249 19.4564C28.7422 18.9665 29 17.9727 29 16C29 14.0273 28.7422 13.0335 28.4249 12.5436C28.1947 12.1881 27.8751 12.0076 27.1609 12.0002L22.7585 12.4306C22.5438 12.4516 22.3417 12.5414 22.1823 12.6866L19.217 15.3879Z" stroke="black" stroke-width="2"/>
<path d="M9.33883 11.4354L4.88546 11C3 11 2 12 2 16C2 20 3 21 4.88546 21L9.33883 20.5646C9.76808 20.5227 10.1723 20.3431 10.4911 20.0526L13.4564 17.3513C13.5525 17.2638 13.6425 17.1687 13.7093 17.0573C14.0969 16.4109 14.0969 15.5891 13.7093 14.9427C13.6425 14.8313 13.5525 14.7362 13.4564 14.6487L10.4911 11.9474C10.1723 11.6569 9.76808 11.4773 9.33883 11.4354Z" fill="black"/>
</svg>
