<svg width="32" height="32" viewBox="0 0 32 32" fill="none" xmlns="http://www.w3.org/2000/svg">
<path fill-rule="evenodd" clip-rule="evenodd" d="M0.209982 10.1998C0.0957449 7.91502 1.9174 6 4.20499 6H27.795C30.0826 6 31.9042 7.91502 31.79 10.1998L31.1425 23.1498C31.0627 24.7464 29.7449 26 28.1462 26H3.85374C2.25512 26 0.937316 24.7464 0.857484 23.1498L0.209982 10.1998ZM15.7071 17.2929L12.7071 14.2929C12.3166 13.9024 11.6834 13.9024 11.2929 14.2929C10.9024 14.6834 10.9024 15.3166 11.2929 15.7071L12.5858 17H9C8.44771 17 8 17.4477 8 18C8 18.5523 8.44771 19 9 19H12.5858L11.2929 20.2929C10.9024 20.6834 10.9024 21.3166 11.2929 21.7071C11.6834 22.0976 12.3166 22.0976 12.7071 21.7071L15.7071 18.7071C16.0976 18.3166 16.0976 17.6834 15.7071 17.2929ZM23.7071 13.2929C24.0976 13.6834 24.0976 14.3166 23.7071 14.7071L20.7071 17.7071C20.3166 18.0976 19.6834 18.0976 19.2929 17.7071C18.9024 17.3166 18.9024 16.6834 19.2929 16.2929L20.5858 15H17C16.4477 15 16 14.5523 16 14C16 13.4477 16.4477 13 17 13H20.5858L19.2929 11.7071C18.9024 11.3166 18.9024 10.6834 19.2929 10.2929C19.6834 9.90237 20.3166 9.90237 20.7071 10.2929L23.7071 13.2929Z" fill="black"/>
</svg>
