<svg width="32" height="32" viewBox="0 0 32 32" fill="none" xmlns="http://www.w3.org/2000/svg">
<path d="M20.5646 9.33883L21 4.88546C21 3 20 2 16 2C12 2 11 3 11 4.88546L11.4354 9.33883C11.4773 9.76808 11.6569 10.1723 11.9474 10.4911L14.6487 13.4564C14.7362 13.5525 14.8313 13.6425 14.9427 13.7093C15.5891 14.0969 16.4109 14.0969 17.0573 13.7093C17.1687 13.6425 17.2638 13.5525 17.3513 13.4564L20.0526 10.4911C20.3431 10.1723 20.5227 9.76808 20.5646 9.33883Z" fill="black"/>
<path d="M20.5646 22.6612L21 27.1145C21 29 20 30 16 30C12 30 11 29 11 27.1145L11.4354 22.6612C11.4773 22.2319 11.6569 21.8277 11.9474 21.5089L14.6487 18.5436C14.7362 18.4475 14.8313 18.3575 14.9427 18.2907C15.5891 17.9031 16.4109 17.9031 17.0573 18.2907C17.1687 18.3575 17.2638 18.4475 17.3513 18.5436L20.0526 21.5089C20.3431 21.8277 20.5227 22.2319 20.5646 22.6612Z" fill="black"/>
<path d="M22.6612 11.4354L27.1145 11C29 11 30 12 30 16C30 20 29 21 27.1145 21L22.6612 20.5646C22.2319 20.5227 21.8277 20.3431 21.5089 20.0526L18.5436 17.3513C18.4475 17.2638 18.3575 17.1687 18.2907 17.0573C17.9031 16.4109 17.9031 15.5891 18.2907 14.9427C18.3575 14.8313 18.4475 14.7362 18.5436 14.6487L21.5089 11.9474C21.8277 11.6569 22.2319 11.4773 22.6612 11.4354Z" fill="black"/>
<path d="M9.33883 11.4354L4.88546 11C3 11 2 12 2 16C2 20 3 21 4.88546 21L9.33883 20.5646C9.76808 20.5227 10.1723 20.3431 10.4911 20.0526L13.4564 17.3513C13.5525 17.2638 13.6425 17.1687 13.7093 17.0573C14.0969 16.4109 14.0969 15.5891 13.7093 14.9427C13.6425 14.8313 13.5525 14.7362 13.4564 14.6487L10.4911 11.9474C10.1723 11.6569 9.76808 11.4773 9.33883 11.4354Z" fill="black"/>
</svg>
