<svg width="32" height="32" viewBox="0 0 32 32" fill="none" xmlns="http://www.w3.org/2000/svg">
<path d="M22 16C22 12.6863 19.3137 10 16 10C12.6863 10 10 12.6863 10 16V26C10 29.3137 12.6863 32 16 32C19.3137 32 22 29.3137 22 26V16Z" fill="black"/>
<path d="M7.13707 3.43537H8.31534C8.3054 2.48331 7.54723 1.83949 6.36399 1.83949C5.20064 1.83949 4.36293 2.47337 4.37038 3.42045C4.3679 4.19354 4.9098 4.62855 5.78977 4.8299L6.32173 4.95419C6.88104 5.08345 7.1321 5.23509 7.13707 5.52095C7.1321 5.83168 6.84126 6.04794 6.34659 6.04794C5.8022 6.04794 5.44425 5.79439 5.4169 5.30469H4.23864C4.25355 6.49538 5.08132 7.06463 6.36151 7.06463C7.62926 7.06463 8.37997 6.49041 8.38494 5.52344C8.37997 4.71058 7.83061 4.21342 6.82635 3.99219L6.38885 3.89276C5.92649 3.79332 5.63317 3.6392 5.64311 3.33594C5.6456 3.05753 5.88423 2.85618 6.36151 2.85618C6.84126 2.85618 7.10476 3.07244 7.13707 3.43537ZM9.00639 7H10.2369V4.95419H12.2429V7H13.4709V1.90909H12.2429V3.95241H10.2369V1.90909H9.00639V7ZM15.3439 7L15.6795 5.93111H17.437L17.7725 7H19.095L17.3773 1.90909H15.7392L14.0215 7H15.3439ZM15.9728 4.99645L16.5371 3.19176H16.5769L17.1436 4.99645H15.9728ZM19.6431 7H20.8736V5.25746H21.505L22.4347 7H23.777L22.7205 5.06108C23.2798 4.80753 23.603 4.30788 23.603 3.6044C23.603 2.55788 22.8896 1.90909 21.7461 1.90909H19.6431V7ZM20.8736 4.288V2.90092H21.4801C22.032 2.90092 22.3278 3.1321 22.3278 3.6044C22.3278 4.0767 22.032 4.288 21.4801 4.288H20.8736ZM24.2779 7H27.8276V6.00071H25.5083V4.95419H27.6461V3.95241H25.5083V2.90838H27.8276V1.90909H24.2779V7Z" fill="black"/>
</svg>
